<svg xmlns="http://www.w3.org/2000/svg" xmlns:xlink="http://www.w3.org/1999/xlink" width="800" zoomAndPan="magnify" viewBox="0 0 600 187.499995" height="250" preserveAspectRatio="xMidYMid meet" version="1.0"><defs><g/><clipPath id="9c909a28c3"><path d="M 167.878906 7 L 265.121094 7 L 265.121094 71 L 167.878906 71 Z M 167.878906 7 " clip-rule="nonzero"/></clipPath><clipPath id="dab31d5870"><path d="M 253.074219 11.195312 L 429.996094 11.195312 L 429.996094 46 L 253.074219 46 Z M 253.074219 11.195312 " clip-rule="nonzero"/></clipPath><clipPath id="3b7ee6bbbb"><path d="M 254.242188 32.386719 C 261.574219 27.824219 265.089844 26.328125 267.933594 25.882812 C 270.324219 25.507812 272.269531 25.65625 274.886719 26.105469 C 278.328125 26.703125 283.414062 29.472656 286.707031 29.84375 C 289.027344 30.144531 290.894531 29.84375 292.691406 29.398438 C 294.261719 29.023438 295.457031 28.347656 296.804688 27.453125 C 298.300781 26.480469 299.722656 25.28125 301.070312 23.5625 C 302.863281 21.316406 304.136719 16.304688 306.082031 14.660156 C 307.425781 13.539062 308.324219 13.539062 310.417969 13.164062 C 315.132812 12.265625 326.203125 12.042969 334.429688 11.894531 C 343.03125 11.742188 351.859375 12.417969 360.757812 12.34375 C 369.960938 12.265625 379.757812 11.21875 388.660156 11.519531 C 396.886719 11.742188 405.191406 13.464844 412.222656 13.613281 C 417.90625 13.761719 425.460938 12.417969 427.78125 13.015625 C 428.527344 13.238281 428.902344 13.390625 429.128906 13.839844 C 429.425781 14.363281 429.277344 15.183594 429.050781 16.082031 C 428.605469 17.726562 426.734375 19.671875 425.460938 22.367188 C 423.515625 26.628906 421.273438 35.53125 419.253906 39.644531 C 418.058594 42.113281 416.785156 44.582031 415.738281 45.328125 C 415.289062 45.703125 415.214844 45.628906 414.464844 45.703125 C 411.101562 46.078125 392.476562 44.957031 385.21875 44.28125 C 380.804688 43.90625 379.085938 43.160156 374.746094 42.933594 C 367.640625 42.488281 355.375 43.382812 346.546875 43.234375 C 338.617188 43.085938 330.839844 42.1875 324.105469 42.261719 C 318.496094 42.335938 313.261719 43.609375 308.847656 43.234375 C 305.40625 42.933594 302.488281 42.335938 299.796875 41.214844 C 297.328125 40.167969 294.933594 38.523438 293.289062 36.953125 C 291.941406 35.679688 291.496094 33.808594 290.222656 32.914062 C 288.949219 32.015625 286.257812 32.238281 285.660156 31.417969 C 285.285156 30.894531 285.359375 29.84375 285.660156 29.546875 C 285.960938 29.246094 286.855469 29.171875 287.230469 29.398438 C 287.53125 29.546875 287.828125 30.070312 287.828125 30.445312 C 287.828125 30.816406 287.304688 31.566406 286.929688 31.714844 C 286.632812 31.863281 286.035156 31.789062 285.734375 31.566406 C 285.433594 31.265625 285.210938 30.367188 285.359375 29.996094 C 285.511719 29.621094 286.109375 29.320312 286.707031 29.246094 C 287.679688 29.097656 289.550781 29.546875 290.746094 30.292969 C 292.167969 31.191406 292.914062 33.210938 294.335938 34.558594 C 295.90625 36.054688 297.851562 37.476562 300.023438 38.523438 C 302.566406 39.71875 305.480469 40.542969 308.847656 40.839844 C 313.1875 41.214844 318.421875 39.792969 324.105469 39.71875 C 331.214844 39.644531 339.964844 40.765625 348.042969 40.914062 C 356.195312 41.066406 366.070312 40.09375 372.800781 40.46875 C 377.441406 40.691406 380.507812 41.664062 384.546875 41.886719 C 388.808594 42.1875 393.148438 41.738281 397.785156 41.964844 C 402.945312 42.1875 411.175781 44.730469 414.019531 43.460938 C 415.4375 42.785156 415.511719 41.8125 416.410156 40.167969 C 418.503906 36.277344 422.320312 23.335938 424.339844 19.296875 C 425.238281 17.503906 425.835938 16.230469 426.585938 15.632812 C 426.957031 15.335938 427.78125 15.257812 427.78125 15.183594 C 427.707031 14.886719 419.179688 16.007812 413.867188 15.933594 C 406.6875 15.859375 395.691406 14.136719 388.660156 13.839844 C 383.648438 13.613281 380.433594 13.6875 375.644531 13.761719 C 369.660156 13.839844 362.40625 14.4375 355.671875 14.511719 C 348.714844 14.585938 341.910156 13.914062 334.503906 14.136719 C 326.203125 14.363281 313.785156 12.640625 308.324219 15.933594 C 304.507812 18.175781 304.210938 23.785156 301.59375 26.480469 C 299.273438 28.796875 296.507812 30.742188 293.8125 31.714844 C 291.417969 32.539062 289.25 32.6875 286.558594 32.386719 C 283.042969 32.015625 277.65625 29.097656 274.589844 28.5 C 272.792969 28.125 271.820312 28.050781 270.175781 28.199219 C 268.15625 28.347656 265.6875 28.796875 263.371094 29.695312 C 260.75 30.742188 257.085938 34.109375 255.441406 34.332031 C 254.765625 34.410156 254.167969 34.183594 253.945312 33.882812 C 253.71875 33.585938 254.242188 32.386719 254.242188 32.386719 " clip-rule="nonzero"/></clipPath><clipPath id="232f289e66"><path d="M 281.460938 28 L 292.179688 28 L 292.179688 34.34375 L 281.460938 34.34375 Z M 281.460938 28 " clip-rule="nonzero"/></clipPath><clipPath id="7ab15f2e4c"><path d="M 282.667969 29.097656 C 288.277344 29.472656 290.074219 30.21875 290.894531 30.667969 C 291.34375 30.894531 291.644531 30.96875 291.792969 31.339844 C 291.941406 31.863281 291.71875 33.210938 291.121094 33.585938 C 290.148438 34.183594 286.558594 33.359375 285.210938 32.6875 C 284.3125 32.238281 283.640625 31.417969 283.414062 30.742188 C 283.265625 30.21875 283.414062 29.472656 283.640625 29.097656 C 283.863281 28.722656 284.164062 28.574219 284.6875 28.425781 C 285.808594 28.199219 289.027344 28.347656 290.296875 29.097656 C 291.195312 29.621094 291.941406 30.816406 292.09375 31.566406 C 292.167969 32.089844 292.09375 32.539062 291.792969 32.914062 C 291.417969 33.4375 290.445312 33.960938 289.476562 34.109375 C 288.128906 34.332031 285.359375 34.109375 284.164062 33.285156 C 283.191406 32.613281 282.519531 30.96875 282.519531 30.070312 C 282.519531 29.472656 282.816406 28.871094 283.191406 28.574219 C 283.492188 28.273438 283.863281 28.199219 284.464844 28.125 C 285.660156 27.976562 288.726562 28.050781 290 28.871094 C 290.972656 29.472656 291.941406 30.894531 291.941406 31.714844 C 291.941406 32.464844 291.046875 33.359375 290.296875 33.734375 C 289.476562 34.183594 287.753906 34.257812 286.929688 33.960938 C 286.332031 33.734375 285.585938 32.988281 285.585938 32.539062 C 285.585938 32.089844 286.183594 31.339844 286.632812 31.265625 C 287.082031 31.191406 288.277344 31.941406 288.277344 32.386719 C 288.351562 32.835938 287.082031 33.960938 286.632812 33.960938 C 286.257812 33.960938 285.734375 33.511719 285.660156 33.136719 C 285.511719 32.761719 285.734375 31.863281 286.109375 31.566406 C 286.707031 31.191406 289.324219 32.089844 289.398438 31.941406 C 289.476562 31.714844 285.585938 29.695312 285.210938 29.996094 C 285.0625 30.144531 285.136719 30.894531 285.433594 31.117188 C 285.960938 31.566406 289.027344 31.492188 289.027344 31.417969 C 289.027344 31.339844 286.929688 31.339844 286.40625 30.96875 C 286.035156 30.742188 285.660156 30.144531 285.734375 29.996094 C 285.960938 29.695312 290.523438 30.667969 290.671875 31.265625 C 290.746094 31.640625 290.074219 32.386719 289.398438 32.613281 C 288.054688 33.0625 283.492188 32.089844 282.367188 31.339844 C 281.84375 30.96875 281.472656 30.445312 281.546875 30.070312 C 281.621094 29.695312 282.667969 29.097656 282.667969 29.097656 " clip-rule="nonzero"/></clipPath></defs><g fill="#e63946" fill-opacity="1"><g transform="translate(44.791997, 144.923071)"><g><path d="M 7.578125 -64.671875 L 8.75 -64.671875 C 11.425781 -64.671875 13.664062 -63.132812 15.46875 -60.0625 C 15.976562 -59.070312 16.234375 -57.882812 16.234375 -56.5 L 16.234375 -40.359375 L 49.15625 -40.359375 L 49.15625 -56.015625 C 49.15625 -60.335938 51.257812 -63.175781 55.46875 -64.53125 C 56.070312 -64.625 56.550781 -64.671875 56.90625 -64.671875 L 58.046875 -64.671875 C 60.804688 -64.671875 63.085938 -63.0625 64.890625 -59.84375 C 65.222656 -58.851562 65.390625 -58.085938 65.390625 -57.546875 L 65.390625 -6.984375 C 65.390625 -4.492188 63.84375 -2.375 60.75 -0.625 C 59.875 -0.207031 59.0625 0 58.3125 0 L 56.5 0 C 53.644531 0 51.378906 -1.742188 49.703125 -5.234375 C 49.335938 -6.285156 49.15625 -7.425781 49.15625 -8.65625 L 49.15625 -24.3125 L 16.234375 -24.3125 L 16.234375 -7.75 C 16.234375 -4.238281 14.203125 -1.703125 10.140625 -0.140625 C 9.691406 -0.046875 9.316406 0 9.015625 0 L 7.21875 0 C 4.476562 0 2.238281 -1.648438 0.5 -4.953125 C 0.164062 -5.828125 0 -6.597656 0 -7.265625 L 0 -57.140625 C 0 -60.410156 1.921875 -62.832031 5.765625 -64.40625 C 6.429688 -64.582031 7.035156 -64.671875 7.578125 -64.671875 Z M 7.578125 -64.671875 "/></g></g></g><g fill="#e63946" fill-opacity="1"><g transform="translate(114.681699, 144.923071)"><g><path d="M 22.5 -64.671875 L 42.65625 -64.671875 C 50.144531 -64.671875 56.566406 -62.082031 61.921875 -56.90625 C 64.234375 -53.96875 65.390625 -51.382812 65.390625 -49.15625 L 65.390625 -15.515625 C 65.390625 -12.203125 63.285156 -8.773438 59.078125 -5.234375 C 53.910156 -1.742188 48.300781 0 42.25 0 L 23.359375 0 C 16.054688 0 9.816406 -2.238281 4.640625 -6.71875 C 1.546875 -9.8125 0 -12.953125 0 -16.140625 L 0 -48.53125 C 0 -53.84375 3.632812 -58.378906 10.90625 -62.140625 C 15.144531 -63.828125 19.007812 -64.671875 22.5 -64.671875 Z M 15.6875 -48.65625 L 15.6875 -16.015625 L 49.703125 -16.015625 L 49.703125 -48.65625 Z M 15.6875 -48.65625 "/></g></g></g><g fill="#e63946" fill-opacity="1"><g transform="translate(184.571401, 144.923071)"><g><path d="M 7.578125 -64.671875 L 8.75 -64.671875 C 11.425781 -64.671875 13.664062 -63.132812 15.46875 -60.0625 C 15.976562 -59.070312 16.234375 -57.882812 16.234375 -56.5 L 16.234375 -16.046875 L 56.640625 -16.046875 C 61.390625 -16.046875 64.304688 -13.75 65.390625 -9.15625 L 65.390625 -6.984375 C 65.390625 -4.492188 63.84375 -2.375 60.75 -0.625 C 59.875 -0.207031 59.0625 0 58.3125 0 L 7.21875 0 C 4.476562 0 2.238281 -1.648438 0.5 -4.953125 C 0.164062 -5.828125 0 -6.597656 0 -7.265625 L 0 -57.140625 C 0 -60.410156 1.921875 -62.832031 5.765625 -64.40625 C 6.429688 -64.582031 7.035156 -64.671875 7.578125 -64.671875 Z M 7.578125 -64.671875 "/></g></g></g><g fill="#e63946" fill-opacity="1"><g transform="translate(254.461103, 144.923071)"><g><path d="M 7.796875 -64.671875 L 9.015625 -64.671875 C 11.785156 -64.671875 14.085938 -63.132812 15.921875 -60.0625 C 16.429688 -59.070312 16.6875 -57.882812 16.6875 -56.5 L 16.6875 -7.75 C 16.6875 -4.238281 14.613281 -1.703125 10.46875 -0.140625 C 9.976562 -0.046875 9.585938 0 9.296875 0 L 7.4375 0 C 4.613281 0 2.316406 -1.648438 0.546875 -4.953125 C 0.179688 -5.828125 0 -6.597656 0 -7.265625 L 0 -57.140625 C 0 -60.410156 1.984375 -62.832031 5.953125 -64.40625 C 6.609375 -64.582031 7.222656 -64.671875 7.796875 -64.671875 Z M 7.796875 -64.671875 "/></g></g></g><g fill="#e63946" fill-opacity="1"><g transform="translate(275.653464, 144.923071)"><g><path d="M 7.578125 -64.671875 L 33.59375 -64.671875 C 41.195312 -64.671875 48.441406 -61.664062 55.328125 -55.65625 C 59.453125 -51.382812 62.113281 -47.472656 63.3125 -43.921875 C 64.695312 -40.109375 65.390625 -36.847656 65.390625 -34.140625 L 65.390625 -30.671875 C 65.390625 -23.359375 62.21875 -16.273438 55.875 -9.421875 C 51.125 -5.210938 46.523438 -2.492188 42.078125 -1.265625 C 38.796875 -0.421875 36.179688 0 34.234375 0 L 7.21875 0 C 4.476562 0 2.238281 -1.648438 0.5 -4.953125 C 0.164062 -5.828125 0 -6.597656 0 -7.265625 L 0 -57.140625 C 0 -60.410156 1.921875 -62.832031 5.765625 -64.40625 C 6.429688 -64.582031 7.035156 -64.671875 7.578125 -64.671875 Z M 16.234375 -48.609375 L 16.234375 -16.046875 L 30.625 -16.046875 C 36.21875 -16.046875 41.117188 -18.164062 45.328125 -22.40625 C 47.878906 -25.476562 49.15625 -28.625 49.15625 -31.84375 L 49.15625 -32.96875 C 49.15625 -37.78125 46.492188 -41.988281 41.171875 -45.59375 C 37.835938 -47.601562 34.019531 -48.609375 29.71875 -48.609375 Z M 16.234375 -48.609375 "/></g></g></g><g fill="#e63946" fill-opacity="1"><g transform="translate(345.543167, 144.923071)"><g><path d="M 32.109375 -64.671875 L 33.5 -64.671875 C 36.84375 -64.671875 39.535156 -62.007812 41.578125 -56.6875 C 57.003906 -26.289062 64.941406 -10.492188 65.390625 -9.296875 L 65.390625 -6.859375 C 65.390625 -4.117188 63.585938 -1.921875 59.984375 -0.265625 C 59.203125 -0.0859375 58.566406 0 58.078125 0 L 56.90625 0 C 53.539062 0 50.820312 -2.75 48.75 -8.25 C 38.132812 -29.238281 32.753906 -39.789062 32.609375 -39.90625 C 20.734375 -16.039062 14.460938 -3.625 13.796875 -2.65625 C 12.023438 -0.882812 10.191406 0 8.296875 0 L 7.171875 0 C 4.429688 0 2.175781 -1.648438 0.40625 -4.953125 C 0.132812 -5.921875 0 -6.691406 0 -7.265625 L 0 -8.25 C 0 -9.457031 1.53125 -12.929688 4.59375 -18.671875 L 26.34375 -61.609375 C 28.050781 -63.648438 29.972656 -64.671875 32.109375 -64.671875 Z M 32.109375 -64.671875 "/></g></g></g><g fill="#e63946" fill-opacity="1"><g transform="translate(415.432869, 144.923071)"><g><path d="M 7.34375 -64.671875 L 8.609375 -64.671875 C 10.742188 -64.671875 13.101562 -63.226562 15.6875 -60.34375 C 26.9375 -49.25 32.648438 -43.6875 32.828125 -43.65625 C 46.117188 -56.96875 52.988281 -63.625 53.4375 -63.625 C 54.695312 -64.320312 55.8125 -64.671875 56.78125 -64.671875 L 58.046875 -64.671875 C 60.898438 -64.671875 63.179688 -63.015625 64.890625 -59.703125 C 65.222656 -58.835938 65.390625 -58.070312 65.390625 -57.40625 L 65.390625 -55.875 C 65.390625 -53.59375 63.421875 -50.796875 59.484375 -47.484375 L 40.8125 -29.046875 L 40.8125 -7.53125 C 40.8125 -4.226562 38.84375 -1.765625 34.90625 -0.140625 L 33.59375 0 L 31.796875 0 C 29.148438 0 26.925781 -1.648438 25.125 -4.953125 C 24.757812 -6.015625 24.578125 -6.90625 24.578125 -7.625 L 24.578125 -29.046875 C 9.003906 -44.347656 1.203125 -52.101562 1.171875 -52.3125 C 0.390625 -53.78125 0 -55.015625 0 -56.015625 L 0 -57.140625 C 0 -60.117188 1.664062 -62.460938 5 -64.171875 C 5.875 -64.503906 6.65625 -64.671875 7.34375 -64.671875 Z M 7.34375 -64.671875 "/></g></g></g><g fill="#e63946" fill-opacity="1"><g transform="translate(485.322571, 144.923071)"><g><path d="M 22.453125 -64.671875 L 57.953125 -64.671875 C 61.253906 -64.671875 63.6875 -62.878906 65.25 -59.296875 C 65.34375 -58.847656 65.390625 -58.472656 65.390625 -58.171875 L 65.390625 -55.734375 C 65.390625 -53.210938 63.796875 -51.050781 60.609375 -49.25 C 59.347656 -48.820312 58.328125 -48.609375 57.546875 -48.609375 L 16.328125 -48.609375 L 16.328125 -40.5 L 40.859375 -40.5 C 50.804688 -40.5 58.21875 -37.359375 63.09375 -31.078125 C 64.625 -28.703125 65.390625 -26.703125 65.390625 -25.078125 L 65.390625 -15.421875 C 65.390625 -11.660156 62.863281 -7.960938 57.8125 -4.328125 C 52.96875 -1.441406 48.21875 0 43.5625 0 L 7.078125 0 C 4.609375 0 2.457031 -1.394531 0.625 -4.1875 C 0.207031 -5.09375 0 -5.90625 0 -6.625 L 0 -8.390625 C 0 -11.660156 1.921875 -14.082031 5.765625 -15.65625 C 6.640625 -15.914062 7.632812 -16.046875 8.75 -16.046875 L 49.203125 -16.046875 L 49.203125 -24.171875 L 23.265625 -24.171875 C 16.054688 -24.171875 9.847656 -26.425781 4.640625 -30.9375 C 1.546875 -34.03125 0 -37.171875 0 -40.359375 L 0 -48.53125 C 0 -53.820312 3.632812 -58.359375 10.90625 -62.140625 C 15.144531 -63.828125 18.992188 -64.671875 22.453125 -64.671875 Z M 22.453125 -64.671875 "/></g></g></g><g fill="#e63946" fill-opacity="1"><g transform="translate(59.434481, 176.435873)"><g><path d="M 13.140625 -6.96875 C 13.140625 -5.757812 12.953125 -4.707031 12.578125 -3.8125 C 12.203125 -2.925781 11.671875 -2.191406 10.984375 -1.609375 C 10.304688 -1.035156 9.492188 -0.601562 8.546875 -0.3125 C 7.597656 -0.0195312 6.554688 0.125 5.421875 0.125 C 4.859375 0.125 4.238281 0.0976562 3.5625 0.046875 C 2.882812 0.00390625 2.269531 -0.0820312 1.71875 -0.21875 L 1.71875 -13.703125 C 2.269531 -13.835938 2.882812 -13.925781 3.5625 -13.96875 C 4.238281 -14.019531 4.859375 -14.046875 5.421875 -14.046875 C 6.554688 -14.046875 7.597656 -13.898438 8.546875 -13.609375 C 9.492188 -13.328125 10.304688 -12.894531 10.984375 -12.3125 C 11.671875 -11.726562 12.203125 -10.988281 12.578125 -10.09375 C 12.953125 -9.207031 13.140625 -8.164062 13.140625 -6.96875 Z M 5.578125 -1.578125 C 7.421875 -1.578125 8.796875 -2.046875 9.703125 -2.984375 C 10.617188 -3.929688 11.078125 -5.257812 11.078125 -6.96875 C 11.078125 -8.664062 10.617188 -9.984375 9.703125 -10.921875 C 8.796875 -11.867188 7.421875 -12.34375 5.578125 -12.34375 C 5.023438 -12.34375 4.597656 -12.332031 4.296875 -12.3125 C 4.003906 -12.300781 3.796875 -12.289062 3.671875 -12.28125 L 3.671875 -1.640625 C 3.796875 -1.628906 4.003906 -1.613281 4.296875 -1.59375 C 4.597656 -1.582031 5.023438 -1.578125 5.578125 -1.578125 Z M 5.578125 -1.578125 "/></g></g></g><g fill="#e63946" fill-opacity="1"><g transform="translate(73.734363, 176.435873)"><g><path d="M 11.015625 0 C 10.785156 -0.601562 10.570312 -1.191406 10.375 -1.765625 C 10.175781 -2.347656 9.96875 -2.941406 9.75 -3.546875 L 3.453125 -3.546875 L 2.1875 0 L 0.15625 0 C 0.695312 -1.46875 1.203125 -2.828125 1.671875 -4.078125 C 2.140625 -5.328125 2.597656 -6.515625 3.046875 -7.640625 C 3.492188 -8.765625 3.9375 -9.835938 4.375 -10.859375 C 4.8125 -11.890625 5.273438 -12.90625 5.765625 -13.90625 L 7.546875 -13.90625 C 8.023438 -12.90625 8.484375 -11.890625 8.921875 -10.859375 C 9.367188 -9.835938 9.816406 -8.765625 10.265625 -7.640625 C 10.710938 -6.515625 11.171875 -5.328125 11.640625 -4.078125 C 12.109375 -2.828125 12.609375 -1.46875 13.140625 0 Z M 9.1875 -5.15625 C 8.757812 -6.320312 8.332031 -7.445312 7.90625 -8.53125 C 7.488281 -9.625 7.050781 -10.671875 6.59375 -11.671875 C 6.125 -10.671875 5.679688 -9.625 5.265625 -8.53125 C 4.847656 -7.445312 4.429688 -6.320312 4.015625 -5.15625 Z M 9.1875 -5.15625 "/></g></g></g><g fill="#e63946" fill-opacity="1"><g transform="translate(87.031442, 176.435873)"><g><path d="M 11.015625 -13.90625 L 11.015625 -12.21875 L 6.640625 -12.21875 L 6.640625 0 L 4.6875 0 L 4.6875 -12.21875 L 0.328125 -12.21875 L 0.328125 -13.90625 Z M 11.015625 -13.90625 "/></g></g></g><g fill="#e63946" fill-opacity="1"><g transform="translate(98.363044, 176.435873)"><g><path d="M 1.71875 0 L 1.71875 -13.90625 L 10.21875 -13.90625 L 10.21875 -12.234375 L 3.671875 -12.234375 L 3.671875 -8.109375 L 9.484375 -8.109375 L 9.484375 -6.484375 L 3.671875 -6.484375 L 3.671875 -1.671875 L 10.71875 -1.671875 L 10.71875 0 Z M 1.71875 0 "/></g></g></g><g fill="#e63946" fill-opacity="1"><g transform="translate(109.81498, 176.435873)"><g><path d="M 0.515625 -6.875 L 5.484375 -6.875 L 5.484375 -5.140625 L 0.515625 -5.140625 Z M 0.515625 -6.875 "/></g></g></g><g fill="#e63946" fill-opacity="1"><g transform="translate(115.811703, 176.435873)"><g><path d="M 1.71875 0 L 1.71875 -13.90625 L 10.109375 -13.90625 L 10.109375 -12.234375 L 3.671875 -12.234375 L 3.671875 -8.046875 L 9.390625 -8.046875 L 9.390625 -6.40625 L 3.671875 -6.40625 L 3.671875 0 Z M 1.71875 0 "/></g></g></g><g fill="#e63946" fill-opacity="1"><g transform="translate(126.581741, 176.435873)"><g><path d="M 11.25 0 C 10.957031 -0.5 10.617188 -1.054688 10.234375 -1.671875 C 9.859375 -2.285156 9.445312 -2.921875 9 -3.578125 C 8.5625 -4.242188 8.101562 -4.914062 7.625 -5.59375 C 7.15625 -6.28125 6.6875 -6.941406 6.21875 -7.578125 C 5.75 -8.210938 5.289062 -8.8125 4.84375 -9.375 C 4.40625 -9.9375 4 -10.429688 3.625 -10.859375 L 3.625 0 L 1.71875 0 L 1.71875 -13.90625 L 3.265625 -13.90625 C 3.898438 -13.238281 4.570312 -12.457031 5.28125 -11.5625 C 6 -10.675781 6.707031 -9.757812 7.40625 -8.8125 C 8.113281 -7.875 8.773438 -6.945312 9.390625 -6.03125 C 10.015625 -5.125 10.539062 -4.316406 10.96875 -3.609375 L 10.96875 -13.90625 L 12.875 -13.90625 L 12.875 0 Z M 11.25 0 "/></g></g></g><g fill="#e63946" fill-opacity="1"><g transform="translate(141.182465, 176.435873)"><g><path d="M 4.953125 -1.390625 C 6.984375 -1.390625 8 -2.082031 8 -3.46875 C 8 -3.894531 7.910156 -4.257812 7.734375 -4.5625 C 7.554688 -4.863281 7.3125 -5.125 7 -5.34375 C 6.695312 -5.5625 6.347656 -5.75 5.953125 -5.90625 C 5.554688 -6.070312 5.132812 -6.238281 4.6875 -6.40625 C 4.1875 -6.570312 3.707031 -6.765625 3.25 -6.984375 C 2.789062 -7.210938 2.394531 -7.472656 2.0625 -7.765625 C 1.726562 -8.066406 1.460938 -8.425781 1.265625 -8.84375 C 1.078125 -9.257812 0.984375 -9.765625 0.984375 -10.359375 C 0.984375 -11.566406 1.394531 -12.507812 2.21875 -13.1875 C 3.050781 -13.875 4.195312 -14.21875 5.65625 -14.21875 C 6.5 -14.21875 7.265625 -14.128906 7.953125 -13.953125 C 8.640625 -13.773438 9.144531 -13.578125 9.46875 -13.359375 L 8.84375 -11.78125 C 8.5625 -11.945312 8.144531 -12.113281 7.59375 -12.28125 C 7.039062 -12.445312 6.394531 -12.53125 5.65625 -12.53125 C 5.28125 -12.53125 4.929688 -12.488281 4.609375 -12.40625 C 4.296875 -12.332031 4.015625 -12.210938 3.765625 -12.046875 C 3.523438 -11.890625 3.332031 -11.6875 3.1875 -11.4375 C 3.050781 -11.195312 2.984375 -10.910156 2.984375 -10.578125 C 2.984375 -10.203125 3.054688 -9.882812 3.203125 -9.625 C 3.359375 -9.375 3.566406 -9.148438 3.828125 -8.953125 C 4.097656 -8.765625 4.410156 -8.585938 4.765625 -8.421875 C 5.117188 -8.265625 5.507812 -8.101562 5.9375 -7.9375 C 6.539062 -7.695312 7.09375 -7.457031 7.59375 -7.21875 C 8.09375 -6.976562 8.523438 -6.691406 8.890625 -6.359375 C 9.265625 -6.023438 9.550781 -5.625 9.75 -5.15625 C 9.945312 -4.695312 10.046875 -4.140625 10.046875 -3.484375 C 10.046875 -2.273438 9.601562 -1.34375 8.71875 -0.6875 C 7.832031 -0.03125 6.578125 0.296875 4.953125 0.296875 C 4.410156 0.296875 3.90625 0.257812 3.4375 0.1875 C 2.976562 0.113281 2.566406 0.03125 2.203125 -0.0625 C 1.847656 -0.164062 1.535156 -0.273438 1.265625 -0.390625 C 1.003906 -0.503906 0.800781 -0.601562 0.65625 -0.6875 L 1.25 -2.28125 C 1.550781 -2.113281 2.015625 -1.921875 2.640625 -1.703125 C 3.273438 -1.492188 4.046875 -1.390625 4.953125 -1.390625 Z M 4.953125 -1.390625 "/></g></g></g><g fill="#e63946" fill-opacity="1"><g transform="translate(151.852223, 176.435873)"><g/></g></g><g fill="#e63946" fill-opacity="1"><g transform="translate(156.48514, 176.435873)"><g><path d="M 6.171875 -7.078125 C 6.171875 -6.734375 6.109375 -6.40625 5.984375 -6.09375 C 5.867188 -5.789062 5.703125 -5.523438 5.484375 -5.296875 C 5.265625 -5.066406 5 -4.878906 4.6875 -4.734375 C 4.375 -4.597656 4.015625 -4.53125 3.609375 -4.53125 C 3.210938 -4.53125 2.851562 -4.597656 2.53125 -4.734375 C 2.21875 -4.878906 1.953125 -5.066406 1.734375 -5.296875 C 1.515625 -5.523438 1.34375 -5.789062 1.21875 -6.09375 C 1.101562 -6.40625 1.046875 -6.734375 1.046875 -7.078125 C 1.046875 -7.410156 1.101562 -7.734375 1.21875 -8.046875 C 1.34375 -8.367188 1.515625 -8.640625 1.734375 -8.859375 C 1.953125 -9.085938 2.21875 -9.269531 2.53125 -9.40625 C 2.851562 -9.550781 3.210938 -9.625 3.609375 -9.625 C 4.015625 -9.625 4.375 -9.550781 4.6875 -9.40625 C 5 -9.269531 5.265625 -9.085938 5.484375 -8.859375 C 5.703125 -8.640625 5.867188 -8.367188 5.984375 -8.046875 C 6.109375 -7.734375 6.171875 -7.410156 6.171875 -7.078125 Z M 6.171875 -7.078125 "/></g></g></g><g fill="#e63946" fill-opacity="1"><g transform="translate(163.705281, 176.435873)"><g/></g></g><g fill="#e63946" fill-opacity="1"><g transform="translate(168.338197, 176.435873)"><g><path d="M 13.140625 -6.96875 C 13.140625 -5.757812 12.953125 -4.707031 12.578125 -3.8125 C 12.203125 -2.925781 11.671875 -2.191406 10.984375 -1.609375 C 10.304688 -1.035156 9.492188 -0.601562 8.546875 -0.3125 C 7.597656 -0.0195312 6.554688 0.125 5.421875 0.125 C 4.859375 0.125 4.238281 0.0976562 3.5625 0.046875 C 2.882812 0.00390625 2.269531 -0.0820312 1.71875 -0.21875 L 1.71875 -13.703125 C 2.269531 -13.835938 2.882812 -13.925781 3.5625 -13.96875 C 4.238281 -14.019531 4.859375 -14.046875 5.421875 -14.046875 C 6.554688 -14.046875 7.597656 -13.898438 8.546875 -13.609375 C 9.492188 -13.328125 10.304688 -12.894531 10.984375 -12.3125 C 11.671875 -11.726562 12.203125 -10.988281 12.578125 -10.09375 C 12.953125 -9.207031 13.140625 -8.164062 13.140625 -6.96875 Z M 5.578125 -1.578125 C 7.421875 -1.578125 8.796875 -2.046875 9.703125 -2.984375 C 10.617188 -3.929688 11.078125 -5.257812 11.078125 -6.96875 C 11.078125 -8.664062 10.617188 -9.984375 9.703125 -10.921875 C 8.796875 -11.867188 7.421875 -12.34375 5.578125 -12.34375 C 5.023438 -12.34375 4.597656 -12.332031 4.296875 -12.3125 C 4.003906 -12.300781 3.796875 -12.289062 3.671875 -12.28125 L 3.671875 -1.640625 C 3.796875 -1.628906 4.003906 -1.613281 4.296875 -1.59375 C 4.597656 -1.582031 5.023438 -1.578125 5.578125 -1.578125 Z M 5.578125 -1.578125 "/></g></g></g><g fill="#e63946" fill-opacity="1"><g transform="translate(182.63808, 176.435873)"><g><path d="M 11.015625 0 C 10.785156 -0.601562 10.570312 -1.191406 10.375 -1.765625 C 10.175781 -2.347656 9.96875 -2.941406 9.75 -3.546875 L 3.453125 -3.546875 L 2.1875 0 L 0.15625 0 C 0.695312 -1.46875 1.203125 -2.828125 1.671875 -4.078125 C 2.140625 -5.328125 2.597656 -6.515625 3.046875 -7.640625 C 3.492188 -8.765625 3.9375 -9.835938 4.375 -10.859375 C 4.8125 -11.890625 5.273438 -12.90625 5.765625 -13.90625 L 7.546875 -13.90625 C 8.023438 -12.90625 8.484375 -11.890625 8.921875 -10.859375 C 9.367188 -9.835938 9.816406 -8.765625 10.265625 -7.640625 C 10.710938 -6.515625 11.171875 -5.328125 11.640625 -4.078125 C 12.109375 -2.828125 12.609375 -1.46875 13.140625 0 Z M 9.1875 -5.15625 C 8.757812 -6.320312 8.332031 -7.445312 7.90625 -8.53125 C 7.488281 -9.625 7.050781 -10.671875 6.59375 -11.671875 C 6.125 -10.671875 5.679688 -9.625 5.265625 -8.53125 C 4.847656 -7.445312 4.429688 -6.320312 4.015625 -5.15625 Z M 9.1875 -5.15625 "/></g></g></g><g fill="#e63946" fill-opacity="1"><g transform="translate(195.935158, 176.435873)"><g><path d="M 11.015625 -13.90625 L 11.015625 -12.21875 L 6.640625 -12.21875 L 6.640625 0 L 4.6875 0 L 4.6875 -12.21875 L 0.328125 -12.21875 L 0.328125 -13.90625 Z M 11.015625 -13.90625 "/></g></g></g><g fill="#e63946" fill-opacity="1"><g transform="translate(207.26676, 176.435873)"><g><path d="M 1.71875 0 L 1.71875 -13.90625 L 10.21875 -13.90625 L 10.21875 -12.234375 L 3.671875 -12.234375 L 3.671875 -8.109375 L 9.484375 -8.109375 L 9.484375 -6.484375 L 3.671875 -6.484375 L 3.671875 -1.671875 L 10.71875 -1.671875 L 10.71875 0 Z M 1.71875 0 "/></g></g></g><g fill="#e63946" fill-opacity="1"><g transform="translate(218.718696, 176.435873)"><g><path d="M 0.515625 -6.875 L 5.484375 -6.875 L 5.484375 -5.140625 L 0.515625 -5.140625 Z M 0.515625 -6.875 "/></g></g></g><g fill="#e63946" fill-opacity="1"><g transform="translate(224.715419, 176.435873)"><g><path d="M 1.71875 0 L 1.71875 -13.90625 L 10.109375 -13.90625 L 10.109375 -12.234375 L 3.671875 -12.234375 L 3.671875 -8.046875 L 9.390625 -8.046875 L 9.390625 -6.40625 L 3.671875 -6.40625 L 3.671875 0 Z M 1.71875 0 "/></g></g></g><g fill="#e63946" fill-opacity="1"><g transform="translate(235.485457, 176.435873)"><g><path d="M 11.25 0 C 10.957031 -0.5 10.617188 -1.054688 10.234375 -1.671875 C 9.859375 -2.285156 9.445312 -2.921875 9 -3.578125 C 8.5625 -4.242188 8.101562 -4.914062 7.625 -5.59375 C 7.15625 -6.28125 6.6875 -6.941406 6.21875 -7.578125 C 5.75 -8.210938 5.289062 -8.8125 4.84375 -9.375 C 4.40625 -9.9375 4 -10.429688 3.625 -10.859375 L 3.625 0 L 1.71875 0 L 1.71875 -13.90625 L 3.265625 -13.90625 C 3.898438 -13.238281 4.570312 -12.457031 5.28125 -11.5625 C 6 -10.675781 6.707031 -9.757812 7.40625 -8.8125 C 8.113281 -7.875 8.773438 -6.945312 9.390625 -6.03125 C 10.015625 -5.125 10.539062 -4.316406 10.96875 -3.609375 L 10.96875 -13.90625 L 12.875 -13.90625 L 12.875 0 Z M 11.25 0 "/></g></g></g><g fill="#e63946" fill-opacity="1"><g transform="translate(250.086181, 176.435873)"><g><path d="M 4.953125 -1.390625 C 6.984375 -1.390625 8 -2.082031 8 -3.46875 C 8 -3.894531 7.910156 -4.257812 7.734375 -4.5625 C 7.554688 -4.863281 7.3125 -5.125 7 -5.34375 C 6.695312 -5.5625 6.347656 -5.75 5.953125 -5.90625 C 5.554688 -6.070312 5.132812 -6.238281 4.6875 -6.40625 C 4.1875 -6.570312 3.707031 -6.765625 3.25 -6.984375 C 2.789062 -7.210938 2.394531 -7.472656 2.0625 -7.765625 C 1.726562 -8.066406 1.460938 -8.425781 1.265625 -8.84375 C 1.078125 -9.257812 0.984375 -9.765625 0.984375 -10.359375 C 0.984375 -11.566406 1.394531 -12.507812 2.21875 -13.1875 C 3.050781 -13.875 4.195312 -14.21875 5.65625 -14.21875 C 6.5 -14.21875 7.265625 -14.128906 7.953125 -13.953125 C 8.640625 -13.773438 9.144531 -13.578125 9.46875 -13.359375 L 8.84375 -11.78125 C 8.5625 -11.945312 8.144531 -12.113281 7.59375 -12.28125 C 7.039062 -12.445312 6.394531 -12.53125 5.65625 -12.53125 C 5.28125 -12.53125 4.929688 -12.488281 4.609375 -12.40625 C 4.296875 -12.332031 4.015625 -12.210938 3.765625 -12.046875 C 3.523438 -11.890625 3.332031 -11.6875 3.1875 -11.4375 C 3.050781 -11.195312 2.984375 -10.910156 2.984375 -10.578125 C 2.984375 -10.203125 3.054688 -9.882812 3.203125 -9.625 C 3.359375 -9.375 3.566406 -9.148438 3.828125 -8.953125 C 4.097656 -8.765625 4.410156 -8.585938 4.765625 -8.421875 C 5.117188 -8.265625 5.507812 -8.101562 5.9375 -7.9375 C 6.539062 -7.695312 7.09375 -7.457031 7.59375 -7.21875 C 8.09375 -6.976562 8.523438 -6.691406 8.890625 -6.359375 C 9.265625 -6.023438 9.550781 -5.625 9.75 -5.15625 C 9.945312 -4.695312 10.046875 -4.140625 10.046875 -3.484375 C 10.046875 -2.273438 9.601562 -1.34375 8.71875 -0.6875 C 7.832031 -0.03125 6.578125 0.296875 4.953125 0.296875 C 4.410156 0.296875 3.90625 0.257812 3.4375 0.1875 C 2.976562 0.113281 2.566406 0.03125 2.203125 -0.0625 C 1.847656 -0.164062 1.535156 -0.273438 1.265625 -0.390625 C 1.003906 -0.503906 0.800781 -0.601562 0.65625 -0.6875 L 1.25 -2.28125 C 1.550781 -2.113281 2.015625 -1.921875 2.640625 -1.703125 C 3.273438 -1.492188 4.046875 -1.390625 4.953125 -1.390625 Z M 4.953125 -1.390625 "/></g></g></g><g fill="#e63946" fill-opacity="1"><g transform="translate(260.755939, 176.435873)"><g><path d="M 0.515625 -6.875 L 5.484375 -6.875 L 5.484375 -5.140625 L 0.515625 -5.140625 Z M 0.515625 -6.875 "/></g></g></g><g fill="#e63946" fill-opacity="1"><g transform="translate(266.752651, 176.435873)"><g><path d="M 10.46875 -13.90625 L 12.421875 -13.90625 L 12.421875 0 L 10.46875 0 L 10.46875 -6.421875 L 3.671875 -6.421875 L 3.671875 0 L 1.71875 0 L 1.71875 -13.90625 L 3.671875 -13.90625 L 3.671875 -8.109375 L 10.46875 -8.109375 Z M 10.46875 -13.90625 "/></g></g></g><g fill="#e63946" fill-opacity="1"><g transform="translate(280.892069, 176.435873)"><g><path d="M 1.15625 -6.96875 C 1.15625 -8.15625 1.332031 -9.203125 1.6875 -10.109375 C 2.050781 -11.015625 2.535156 -11.769531 3.140625 -12.375 C 3.742188 -12.988281 4.453125 -13.445312 5.265625 -13.75 C 6.078125 -14.0625 6.9375 -14.21875 7.84375 -14.21875 C 8.738281 -14.21875 9.582031 -14.0625 10.375 -13.75 C 11.175781 -13.445312 11.875 -12.988281 12.46875 -12.375 C 13.070312 -11.769531 13.550781 -11.015625 13.90625 -10.109375 C 14.257812 -9.203125 14.4375 -8.15625 14.4375 -6.96875 C 14.4375 -5.769531 14.257812 -4.71875 13.90625 -3.8125 C 13.550781 -2.90625 13.070312 -2.144531 12.46875 -1.53125 C 11.875 -0.925781 11.175781 -0.46875 10.375 -0.15625 C 9.582031 0.144531 8.738281 0.296875 7.84375 0.296875 C 6.9375 0.296875 6.078125 0.144531 5.265625 -0.15625 C 4.453125 -0.46875 3.742188 -0.925781 3.140625 -1.53125 C 2.535156 -2.144531 2.050781 -2.90625 1.6875 -3.8125 C 1.332031 -4.71875 1.15625 -5.769531 1.15625 -6.96875 Z M 3.203125 -6.96875 C 3.203125 -6.125 3.3125 -5.351562 3.53125 -4.65625 C 3.75 -3.96875 4.050781 -3.382812 4.4375 -2.90625 C 4.832031 -2.425781 5.3125 -2.054688 5.875 -1.796875 C 6.445312 -1.535156 7.085938 -1.40625 7.796875 -1.40625 C 8.515625 -1.40625 9.148438 -1.535156 9.703125 -1.796875 C 10.265625 -2.054688 10.742188 -2.425781 11.140625 -2.90625 C 11.535156 -3.382812 11.835938 -3.96875 12.046875 -4.65625 C 12.265625 -5.351562 12.375 -6.125 12.375 -6.96875 C 12.375 -7.800781 12.265625 -8.5625 12.046875 -9.25 C 11.835938 -9.945312 11.535156 -10.535156 11.140625 -11.015625 C 10.742188 -11.492188 10.265625 -11.863281 9.703125 -12.125 C 9.148438 -12.382812 8.515625 -12.515625 7.796875 -12.515625 C 7.085938 -12.515625 6.445312 -12.382812 5.875 -12.125 C 5.3125 -11.863281 4.832031 -11.492188 4.4375 -11.015625 C 4.050781 -10.535156 3.75 -9.945312 3.53125 -9.25 C 3.3125 -8.5625 3.203125 -7.800781 3.203125 -6.96875 Z M 3.203125 -6.96875 "/></g></g></g><g fill="#e63946" fill-opacity="1"><g transform="translate(296.495584, 176.435873)"><g><path d="M 10.09375 -1.6875 L 10.09375 0 L 1.71875 0 L 1.71875 -13.90625 L 3.671875 -13.90625 L 3.671875 -1.6875 Z M 10.09375 -1.6875 "/></g></g></g><g fill="#e63946" fill-opacity="1"><g transform="translate(306.904609, 176.435873)"><g><path d="M 1.71875 -13.90625 L 3.671875 -13.90625 L 3.671875 0 L 1.71875 0 Z M 1.71875 -13.90625 "/></g></g></g><g fill="#e63946" fill-opacity="1"><g transform="translate(312.299661, 176.435873)"><g><path d="M 13.140625 -6.96875 C 13.140625 -5.757812 12.953125 -4.707031 12.578125 -3.8125 C 12.203125 -2.925781 11.671875 -2.191406 10.984375 -1.609375 C 10.304688 -1.035156 9.492188 -0.601562 8.546875 -0.3125 C 7.597656 -0.0195312 6.554688 0.125 5.421875 0.125 C 4.859375 0.125 4.238281 0.0976562 3.5625 0.046875 C 2.882812 0.00390625 2.269531 -0.0820312 1.71875 -0.21875 L 1.71875 -13.703125 C 2.269531 -13.835938 2.882812 -13.925781 3.5625 -13.96875 C 4.238281 -14.019531 4.859375 -14.046875 5.421875 -14.046875 C 6.554688 -14.046875 7.597656 -13.898438 8.546875 -13.609375 C 9.492188 -13.328125 10.304688 -12.894531 10.984375 -12.3125 C 11.671875 -11.726562 12.203125 -10.988281 12.578125 -10.09375 C 12.953125 -9.207031 13.140625 -8.164062 13.140625 -6.96875 Z M 5.578125 -1.578125 C 7.421875 -1.578125 8.796875 -2.046875 9.703125 -2.984375 C 10.617188 -3.929688 11.078125 -5.257812 11.078125 -6.96875 C 11.078125 -8.664062 10.617188 -9.984375 9.703125 -10.921875 C 8.796875 -11.867188 7.421875 -12.34375 5.578125 -12.34375 C 5.023438 -12.34375 4.597656 -12.332031 4.296875 -12.3125 C 4.003906 -12.300781 3.796875 -12.289062 3.671875 -12.28125 L 3.671875 -1.640625 C 3.796875 -1.628906 4.003906 -1.613281 4.296875 -1.59375 C 4.597656 -1.582031 5.023438 -1.578125 5.578125 -1.578125 Z M 5.578125 -1.578125 "/></g></g></g><g fill="#e63946" fill-opacity="1"><g transform="translate(326.599555, 176.435873)"><g><path d="M 11.015625 0 C 10.785156 -0.601562 10.570312 -1.191406 10.375 -1.765625 C 10.175781 -2.347656 9.96875 -2.941406 9.75 -3.546875 L 3.453125 -3.546875 L 2.1875 0 L 0.15625 0 C 0.695312 -1.46875 1.203125 -2.828125 1.671875 -4.078125 C 2.140625 -5.328125 2.597656 -6.515625 3.046875 -7.640625 C 3.492188 -8.765625 3.9375 -9.835938 4.375 -10.859375 C 4.8125 -11.890625 5.273438 -12.90625 5.765625 -13.90625 L 7.546875 -13.90625 C 8.023438 -12.90625 8.484375 -11.890625 8.921875 -10.859375 C 9.367188 -9.835938 9.816406 -8.765625 10.265625 -7.640625 C 10.710938 -6.515625 11.171875 -5.328125 11.640625 -4.078125 C 12.109375 -2.828125 12.609375 -1.46875 13.140625 0 Z M 9.1875 -5.15625 C 8.757812 -6.320312 8.332031 -7.445312 7.90625 -8.53125 C 7.488281 -9.625 7.050781 -10.671875 6.59375 -11.671875 C 6.125 -10.671875 5.679688 -9.625 5.265625 -8.53125 C 4.847656 -7.445312 4.429688 -6.320312 4.015625 -5.15625 Z M 9.1875 -5.15625 "/></g></g></g><g fill="#e63946" fill-opacity="1"><g transform="translate(339.896645, 176.435873)"><g><path d="M 5.03125 0 L 5.03125 -5.578125 C 4.113281 -7.003906 3.242188 -8.410156 2.421875 -9.796875 C 1.609375 -11.191406 0.84375 -12.5625 0.125 -13.90625 L 2.40625 -13.90625 C 2.914062 -12.8125 3.484375 -11.695312 4.109375 -10.5625 C 4.742188 -9.4375 5.394531 -8.347656 6.0625 -7.296875 C 6.71875 -8.347656 7.359375 -9.4375 7.984375 -10.5625 C 8.609375 -11.695312 9.179688 -12.8125 9.703125 -13.90625 L 11.875 -13.90625 C 11.15625 -12.5625 10.382812 -11.195312 9.5625 -9.8125 C 8.75 -8.4375 7.890625 -7.039062 6.984375 -5.625 L 6.984375 0 Z M 5.03125 0 "/></g></g></g><g fill="#e63946" fill-opacity="1"><g transform="translate(351.89009, 176.435873)"><g><path d="M 0.515625 -6.875 L 5.484375 -6.875 L 5.484375 -5.140625 L 0.515625 -5.140625 Z M 0.515625 -6.875 "/></g></g></g><g fill="#e63946" fill-opacity="1"><g transform="translate(357.886802, 176.435873)"><g><path d="M 6.90625 0.296875 C 5.988281 0.296875 5.195312 0.15625 4.53125 -0.125 C 3.863281 -0.40625 3.316406 -0.785156 2.890625 -1.265625 C 2.460938 -1.753906 2.144531 -2.332031 1.9375 -3 C 1.726562 -3.675781 1.625 -4.398438 1.625 -5.171875 L 1.625 -13.90625 L 3.578125 -13.90625 L 3.578125 -5.390625 C 3.578125 -4.003906 3.882812 -2.992188 4.5 -2.359375 C 5.113281 -1.734375 5.914062 -1.421875 6.90625 -1.421875 C 7.394531 -1.421875 7.84375 -1.5 8.25 -1.65625 C 8.664062 -1.8125 9.019531 -2.046875 9.3125 -2.359375 C 9.601562 -2.679688 9.828125 -3.09375 9.984375 -3.59375 C 10.148438 -4.101562 10.234375 -4.703125 10.234375 -5.390625 L 10.234375 -13.90625 L 12.171875 -13.90625 L 12.171875 -5.171875 C 12.171875 -4.398438 12.066406 -3.675781 11.859375 -3 C 11.660156 -2.332031 11.34375 -1.753906 10.90625 -1.265625 C 10.46875 -0.785156 9.914062 -0.40625 9.25 -0.125 C 8.59375 0.15625 7.8125 0.296875 6.90625 0.296875 Z M 6.90625 0.296875 "/></g></g></g><g fill="#e63946" fill-opacity="1"><g transform="translate(371.68527, 176.435873)"><g><path d="M 4.953125 -1.390625 C 6.984375 -1.390625 8 -2.082031 8 -3.46875 C 8 -3.894531 7.910156 -4.257812 7.734375 -4.5625 C 7.554688 -4.863281 7.3125 -5.125 7 -5.34375 C 6.695312 -5.5625 6.347656 -5.75 5.953125 -5.90625 C 5.554688 -6.070312 5.132812 -6.238281 4.6875 -6.40625 C 4.1875 -6.570312 3.707031 -6.765625 3.25 -6.984375 C 2.789062 -7.210938 2.394531 -7.472656 2.0625 -7.765625 C 1.726562 -8.066406 1.460938 -8.425781 1.265625 -8.84375 C 1.078125 -9.257812 0.984375 -9.765625 0.984375 -10.359375 C 0.984375 -11.566406 1.394531 -12.507812 2.21875 -13.1875 C 3.050781 -13.875 4.195312 -14.21875 5.65625 -14.21875 C 6.5 -14.21875 7.265625 -14.128906 7.953125 -13.953125 C 8.640625 -13.773438 9.144531 -13.578125 9.46875 -13.359375 L 8.84375 -11.78125 C 8.5625 -11.945312 8.144531 -12.113281 7.59375 -12.28125 C 7.039062 -12.445312 6.394531 -12.53125 5.65625 -12.53125 C 5.28125 -12.53125 4.929688 -12.488281 4.609375 -12.40625 C 4.296875 -12.332031 4.015625 -12.210938 3.765625 -12.046875 C 3.523438 -11.890625 3.332031 -11.6875 3.1875 -11.4375 C 3.050781 -11.195312 2.984375 -10.910156 2.984375 -10.578125 C 2.984375 -10.203125 3.054688 -9.882812 3.203125 -9.625 C 3.359375 -9.375 3.566406 -9.148438 3.828125 -8.953125 C 4.097656 -8.765625 4.410156 -8.585938 4.765625 -8.421875 C 5.117188 -8.265625 5.507812 -8.101562 5.9375 -7.9375 C 6.539062 -7.695312 7.09375 -7.457031 7.59375 -7.21875 C 8.09375 -6.976562 8.523438 -6.691406 8.890625 -6.359375 C 9.265625 -6.023438 9.550781 -5.625 9.75 -5.15625 C 9.945312 -4.695312 10.046875 -4.140625 10.046875 -3.484375 C 10.046875 -2.273438 9.601562 -1.34375 8.71875 -0.6875 C 7.832031 -0.03125 6.578125 0.296875 4.953125 0.296875 C 4.410156 0.296875 3.90625 0.257812 3.4375 0.1875 C 2.976562 0.113281 2.566406 0.03125 2.203125 -0.0625 C 1.847656 -0.164062 1.535156 -0.273438 1.265625 -0.390625 C 1.003906 -0.503906 0.800781 -0.601562 0.65625 -0.6875 L 1.25 -2.28125 C 1.550781 -2.113281 2.015625 -1.921875 2.640625 -1.703125 C 3.273438 -1.492188 4.046875 -1.390625 4.953125 -1.390625 Z M 4.953125 -1.390625 "/></g></g></g><g fill="#e63946" fill-opacity="1"><g transform="translate(382.355029, 176.435873)"><g/></g></g><g fill="#e63946" fill-opacity="1"><g transform="translate(386.987945, 176.435873)"><g><path d="M 6.171875 -7.078125 C 6.171875 -6.734375 6.109375 -6.40625 5.984375 -6.09375 C 5.867188 -5.789062 5.703125 -5.523438 5.484375 -5.296875 C 5.265625 -5.066406 5 -4.878906 4.6875 -4.734375 C 4.375 -4.597656 4.015625 -4.53125 3.609375 -4.53125 C 3.210938 -4.53125 2.851562 -4.597656 2.53125 -4.734375 C 2.21875 -4.878906 1.953125 -5.066406 1.734375 -5.296875 C 1.515625 -5.523438 1.34375 -5.789062 1.21875 -6.09375 C 1.101562 -6.40625 1.046875 -6.734375 1.046875 -7.078125 C 1.046875 -7.410156 1.101562 -7.734375 1.21875 -8.046875 C 1.34375 -8.367188 1.515625 -8.640625 1.734375 -8.859375 C 1.953125 -9.085938 2.21875 -9.269531 2.53125 -9.40625 C 2.851562 -9.550781 3.210938 -9.625 3.609375 -9.625 C 4.015625 -9.625 4.375 -9.550781 4.6875 -9.40625 C 5 -9.269531 5.265625 -9.085938 5.484375 -8.859375 C 5.703125 -8.640625 5.867188 -8.367188 5.984375 -8.046875 C 6.109375 -7.734375 6.171875 -7.410156 6.171875 -7.078125 Z M 6.171875 -7.078125 "/></g></g></g><g fill="#e63946" fill-opacity="1"><g transform="translate(394.208086, 176.435873)"><g/></g></g><g fill="#e63946" fill-opacity="1"><g transform="translate(398.841003, 176.435873)"><g><path d="M 5.421875 -14.046875 C 7.367188 -14.046875 8.867188 -13.671875 9.921875 -12.921875 C 10.972656 -12.179688 11.5 -11.078125 11.5 -9.609375 C 11.5 -8.804688 11.351562 -8.117188 11.0625 -7.546875 C 10.78125 -6.984375 10.367188 -6.523438 9.828125 -6.171875 C 9.285156 -5.816406 8.625 -5.554688 7.84375 -5.390625 C 7.070312 -5.234375 6.195312 -5.15625 5.21875 -5.15625 L 3.671875 -5.15625 L 3.671875 0 L 1.71875 0 L 1.71875 -13.703125 C 2.269531 -13.835938 2.882812 -13.925781 3.5625 -13.96875 C 4.238281 -14.019531 4.859375 -14.046875 5.421875 -14.046875 Z M 5.578125 -12.34375 C 4.742188 -12.34375 4.109375 -12.320312 3.671875 -12.28125 L 3.671875 -6.828125 L 5.140625 -6.828125 C 5.804688 -6.828125 6.40625 -6.867188 6.9375 -6.953125 C 7.476562 -7.035156 7.929688 -7.179688 8.296875 -7.390625 C 8.660156 -7.597656 8.941406 -7.878906 9.140625 -8.234375 C 9.347656 -8.597656 9.453125 -9.0625 9.453125 -9.625 C 9.453125 -10.164062 9.347656 -10.609375 9.140625 -10.953125 C 8.929688 -11.296875 8.648438 -11.570312 8.296875 -11.78125 C 7.941406 -11.988281 7.53125 -12.132812 7.0625 -12.21875 C 6.59375 -12.300781 6.097656 -12.34375 5.578125 -12.34375 Z M 5.578125 -12.34375 "/></g></g></g><g fill="#e63946" fill-opacity="1"><g transform="translate(411.035009, 176.435873)"><g><path d="M 8.53125 -5.8125 C 8.738281 -5.550781 9.003906 -5.203125 9.328125 -4.765625 C 9.660156 -4.328125 10 -3.84375 10.34375 -3.3125 C 10.695312 -2.789062 11.039062 -2.238281 11.375 -1.65625 C 11.71875 -1.082031 12.015625 -0.53125 12.265625 0 L 10.125 0 C 9.863281 -0.507812 9.570312 -1.023438 9.25 -1.546875 C 8.9375 -2.066406 8.617188 -2.5625 8.296875 -3.03125 C 7.984375 -3.507812 7.664062 -3.957031 7.34375 -4.375 C 7.03125 -4.789062 6.75 -5.148438 6.5 -5.453125 C 6.320312 -5.441406 6.144531 -5.4375 5.96875 -5.4375 C 5.789062 -5.4375 5.609375 -5.4375 5.421875 -5.4375 L 3.671875 -5.4375 L 3.671875 0 L 1.71875 0 L 1.71875 -13.703125 C 2.269531 -13.835938 2.882812 -13.925781 3.5625 -13.96875 C 4.238281 -14.019531 4.859375 -14.046875 5.421875 -14.046875 C 7.367188 -14.046875 8.851562 -13.675781 9.875 -12.9375 C 10.90625 -12.207031 11.421875 -11.113281 11.421875 -9.65625 C 11.421875 -8.726562 11.175781 -7.9375 10.6875 -7.28125 C 10.195312 -6.625 9.476562 -6.132812 8.53125 -5.8125 Z M 5.578125 -12.34375 C 4.742188 -12.34375 4.109375 -12.320312 3.671875 -12.28125 L 3.671875 -7.046875 L 5.0625 -7.046875 C 5.726562 -7.046875 6.328125 -7.078125 6.859375 -7.140625 C 7.390625 -7.210938 7.835938 -7.335938 8.203125 -7.515625 C 8.578125 -7.703125 8.863281 -7.96875 9.0625 -8.3125 C 9.269531 -8.65625 9.375 -9.109375 9.375 -9.671875 C 9.375 -10.191406 9.269531 -10.625 9.0625 -10.96875 C 8.863281 -11.320312 8.59375 -11.597656 8.25 -11.796875 C 7.914062 -11.992188 7.515625 -12.132812 7.046875 -12.21875 C 6.585938 -12.300781 6.097656 -12.34375 5.578125 -12.34375 Z M 5.578125 -12.34375 "/></g></g></g><g fill="#e63946" fill-opacity="1"><g transform="translate(423.650179, 176.435873)"><g><path d="M 1.15625 -6.96875 C 1.15625 -8.15625 1.332031 -9.203125 1.6875 -10.109375 C 2.050781 -11.015625 2.535156 -11.769531 3.140625 -12.375 C 3.742188 -12.988281 4.453125 -13.445312 5.265625 -13.75 C 6.078125 -14.0625 6.9375 -14.21875 7.84375 -14.21875 C 8.738281 -14.21875 9.582031 -14.0625 10.375 -13.75 C 11.175781 -13.445312 11.875 -12.988281 12.46875 -12.375 C 13.070312 -11.769531 13.550781 -11.015625 13.90625 -10.109375 C 14.257812 -9.203125 14.4375 -8.15625 14.4375 -6.96875 C 14.4375 -5.769531 14.257812 -4.71875 13.90625 -3.8125 C 13.550781 -2.90625 13.070312 -2.144531 12.46875 -1.53125 C 11.875 -0.925781 11.175781 -0.46875 10.375 -0.15625 C 9.582031 0.144531 8.738281 0.296875 7.84375 0.296875 C 6.9375 0.296875 6.078125 0.144531 5.265625 -0.15625 C 4.453125 -0.46875 3.742188 -0.925781 3.140625 -1.53125 C 2.535156 -2.144531 2.050781 -2.90625 1.6875 -3.8125 C 1.332031 -4.71875 1.15625 -5.769531 1.15625 -6.96875 Z M 3.203125 -6.96875 C 3.203125 -6.125 3.3125 -5.351562 3.53125 -4.65625 C 3.75 -3.96875 4.050781 -3.382812 4.4375 -2.90625 C 4.832031 -2.425781 5.3125 -2.054688 5.875 -1.796875 C 6.445312 -1.535156 7.085938 -1.40625 7.796875 -1.40625 C 8.515625 -1.40625 9.148438 -1.535156 9.703125 -1.796875 C 10.265625 -2.054688 10.742188 -2.425781 11.140625 -2.90625 C 11.535156 -3.382812 11.835938 -3.96875 12.046875 -4.65625 C 12.265625 -5.351562 12.375 -6.125 12.375 -6.96875 C 12.375 -7.800781 12.265625 -8.5625 12.046875 -9.25 C 11.835938 -9.945312 11.535156 -10.535156 11.140625 -11.015625 C 10.742188 -11.492188 10.265625 -11.863281 9.703125 -12.125 C 9.148438 -12.382812 8.515625 -12.515625 7.796875 -12.515625 C 7.085938 -12.515625 6.445312 -12.382812 5.875 -12.125 C 5.3125 -11.863281 4.832031 -11.492188 4.4375 -11.015625 C 4.050781 -10.535156 3.75 -9.945312 3.53125 -9.25 C 3.3125 -8.5625 3.203125 -7.800781 3.203125 -6.96875 Z M 3.203125 -6.96875 "/></g></g></g><g fill="#e63946" fill-opacity="1"><g transform="translate(439.253695, 176.435873)"><g><path d="M 7.96875 -1.921875 C 7.832031 -2.242188 7.65625 -2.648438 7.4375 -3.140625 C 7.21875 -3.640625 6.976562 -4.175781 6.71875 -4.75 C 6.46875 -5.332031 6.195312 -5.925781 5.90625 -6.53125 C 5.625 -7.132812 5.351562 -7.707031 5.09375 -8.25 C 4.84375 -8.789062 4.601562 -9.273438 4.375 -9.703125 C 4.15625 -10.140625 3.984375 -10.46875 3.859375 -10.6875 C 3.703125 -9.113281 3.578125 -7.40625 3.484375 -5.5625 C 3.390625 -3.726562 3.3125 -1.875 3.25 0 L 1.34375 0 C 1.394531 -1.207031 1.453125 -2.421875 1.515625 -3.640625 C 1.585938 -4.867188 1.664062 -6.070312 1.75 -7.25 C 1.84375 -8.4375 1.9375 -9.59375 2.03125 -10.71875 C 2.132812 -11.84375 2.25 -12.90625 2.375 -13.90625 L 4.078125 -13.90625 C 4.429688 -13.3125 4.816406 -12.613281 5.234375 -11.8125 C 5.648438 -11.007812 6.066406 -10.171875 6.484375 -9.296875 C 6.898438 -8.421875 7.300781 -7.546875 7.6875 -6.671875 C 8.070312 -5.796875 8.425781 -4.992188 8.75 -4.265625 C 9.070312 -4.992188 9.425781 -5.796875 9.8125 -6.671875 C 10.195312 -7.546875 10.597656 -8.421875 11.015625 -9.296875 C 11.429688 -10.171875 11.84375 -11.007812 12.25 -11.8125 C 12.664062 -12.613281 13.054688 -13.3125 13.421875 -13.90625 L 15.125 -13.90625 C 15.582031 -9.425781 15.925781 -4.789062 16.15625 0 L 14.25 0 C 14.175781 -1.875 14.09375 -3.726562 14 -5.5625 C 13.90625 -7.40625 13.785156 -9.113281 13.640625 -10.6875 C 13.503906 -10.46875 13.328125 -10.140625 13.109375 -9.703125 C 12.890625 -9.273438 12.648438 -8.789062 12.390625 -8.25 C 12.140625 -7.707031 11.867188 -7.132812 11.578125 -6.53125 C 11.296875 -5.925781 11.023438 -5.332031 10.765625 -4.75 C 10.515625 -4.175781 10.28125 -3.640625 10.0625 -3.140625 C 9.84375 -2.648438 9.664062 -2.242188 9.53125 -1.921875 Z M 7.96875 -1.921875 "/></g></g></g><g fill="#e63946" fill-opacity="1"><g transform="translate(456.72243, 176.435873)"><g><path d="M 5.421875 -14.046875 C 7.367188 -14.046875 8.867188 -13.671875 9.921875 -12.921875 C 10.972656 -12.179688 11.5 -11.078125 11.5 -9.609375 C 11.5 -8.804688 11.351562 -8.117188 11.0625 -7.546875 C 10.78125 -6.984375 10.367188 -6.523438 9.828125 -6.171875 C 9.285156 -5.816406 8.625 -5.554688 7.84375 -5.390625 C 7.070312 -5.234375 6.195312 -5.15625 5.21875 -5.15625 L 3.671875 -5.15625 L 3.671875 0 L 1.71875 0 L 1.71875 -13.703125 C 2.269531 -13.835938 2.882812 -13.925781 3.5625 -13.96875 C 4.238281 -14.019531 4.859375 -14.046875 5.421875 -14.046875 Z M 5.578125 -12.34375 C 4.742188 -12.34375 4.109375 -12.320312 3.671875 -12.28125 L 3.671875 -6.828125 L 5.140625 -6.828125 C 5.804688 -6.828125 6.40625 -6.867188 6.9375 -6.953125 C 7.476562 -7.035156 7.929688 -7.179688 8.296875 -7.390625 C 8.660156 -7.597656 8.941406 -7.878906 9.140625 -8.234375 C 9.347656 -8.597656 9.453125 -9.0625 9.453125 -9.625 C 9.453125 -10.164062 9.347656 -10.609375 9.140625 -10.953125 C 8.929688 -11.296875 8.648438 -11.570312 8.296875 -11.78125 C 7.941406 -11.988281 7.53125 -12.132812 7.0625 -12.21875 C 6.59375 -12.300781 6.097656 -12.34375 5.578125 -12.34375 Z M 5.578125 -12.34375 "/></g></g></g><g fill="#e63946" fill-opacity="1"><g transform="translate(468.916413, 176.435873)"><g><path d="M 11.015625 -13.90625 L 11.015625 -12.21875 L 6.640625 -12.21875 L 6.640625 0 L 4.6875 0 L 4.6875 -12.21875 L 0.328125 -12.21875 L 0.328125 -13.90625 Z M 11.015625 -13.90625 "/></g></g></g><g fill="#e63946" fill-opacity="1"><g transform="translate(480.248027, 176.435873)"><g><path d="M 0.515625 -6.875 L 5.484375 -6.875 L 5.484375 -5.140625 L 0.515625 -5.140625 Z M 0.515625 -6.875 "/></g></g></g><g fill="#e63946" fill-opacity="1"><g transform="translate(486.244761, 176.435873)"><g><path d="M 4.953125 -1.390625 C 6.984375 -1.390625 8 -2.082031 8 -3.46875 C 8 -3.894531 7.910156 -4.257812 7.734375 -4.5625 C 7.554688 -4.863281 7.3125 -5.125 7 -5.34375 C 6.695312 -5.5625 6.347656 -5.75 5.953125 -5.90625 C 5.554688 -6.070312 5.132812 -6.238281 4.6875 -6.40625 C 4.1875 -6.570312 3.707031 -6.765625 3.25 -6.984375 C 2.789062 -7.210938 2.394531 -7.472656 2.0625 -7.765625 C 1.726562 -8.066406 1.460938 -8.425781 1.265625 -8.84375 C 1.078125 -9.257812 0.984375 -9.765625 0.984375 -10.359375 C 0.984375 -11.566406 1.394531 -12.507812 2.21875 -13.1875 C 3.050781 -13.875 4.195312 -14.21875 5.65625 -14.21875 C 6.5 -14.21875 7.265625 -14.128906 7.953125 -13.953125 C 8.640625 -13.773438 9.144531 -13.578125 9.46875 -13.359375 L 8.84375 -11.78125 C 8.5625 -11.945312 8.144531 -12.113281 7.59375 -12.28125 C 7.039062 -12.445312 6.394531 -12.53125 5.65625 -12.53125 C 5.28125 -12.53125 4.929688 -12.488281 4.609375 -12.40625 C 4.296875 -12.332031 4.015625 -12.210938 3.765625 -12.046875 C 3.523438 -11.890625 3.332031 -11.6875 3.1875 -11.4375 C 3.050781 -11.195312 2.984375 -10.910156 2.984375 -10.578125 C 2.984375 -10.203125 3.054688 -9.882812 3.203125 -9.625 C 3.359375 -9.375 3.566406 -9.148438 3.828125 -8.953125 C 4.097656 -8.765625 4.410156 -8.585938 4.765625 -8.421875 C 5.117188 -8.265625 5.507812 -8.101562 5.9375 -7.9375 C 6.539062 -7.695312 7.09375 -7.457031 7.59375 -7.21875 C 8.09375 -6.976562 8.523438 -6.691406 8.890625 -6.359375 C 9.265625 -6.023438 9.550781 -5.625 9.75 -5.15625 C 9.945312 -4.695312 10.046875 -4.140625 10.046875 -3.484375 C 10.046875 -2.273438 9.601562 -1.34375 8.71875 -0.6875 C 7.832031 -0.03125 6.578125 0.296875 4.953125 0.296875 C 4.410156 0.296875 3.90625 0.257812 3.4375 0.1875 C 2.976562 0.113281 2.566406 0.03125 2.203125 -0.0625 C 1.847656 -0.164062 1.535156 -0.273438 1.265625 -0.390625 C 1.003906 -0.503906 0.800781 -0.601562 0.65625 -0.6875 L 1.25 -2.28125 C 1.550781 -2.113281 2.015625 -1.921875 2.640625 -1.703125 C 3.273438 -1.492188 4.046875 -1.390625 4.953125 -1.390625 Z M 4.953125 -1.390625 "/></g></g></g><g fill="#e63946" fill-opacity="1"><g transform="translate(496.914519, 176.435873)"><g><path d="M 5.03125 0 L 5.03125 -5.578125 C 4.113281 -7.003906 3.242188 -8.410156 2.421875 -9.796875 C 1.609375 -11.191406 0.84375 -12.5625 0.125 -13.90625 L 2.40625 -13.90625 C 2.914062 -12.8125 3.484375 -11.695312 4.109375 -10.5625 C 4.742188 -9.4375 5.394531 -8.347656 6.0625 -7.296875 C 6.71875 -8.347656 7.359375 -9.4375 7.984375 -10.5625 C 8.609375 -11.695312 9.179688 -12.8125 9.703125 -13.90625 L 11.875 -13.90625 C 11.15625 -12.5625 10.382812 -11.195312 9.5625 -9.8125 C 8.75 -8.4375 7.890625 -7.039062 6.984375 -5.625 L 6.984375 0 Z M 5.03125 0 "/></g></g></g><g fill="#e63946" fill-opacity="1"><g transform="translate(508.907942, 176.435873)"><g><path d="M 11.25 0 C 10.957031 -0.5 10.617188 -1.054688 10.234375 -1.671875 C 9.859375 -2.285156 9.445312 -2.921875 9 -3.578125 C 8.5625 -4.242188 8.101562 -4.914062 7.625 -5.59375 C 7.15625 -6.28125 6.6875 -6.941406 6.21875 -7.578125 C 5.75 -8.210938 5.289062 -8.8125 4.84375 -9.375 C 4.40625 -9.9375 4 -10.429688 3.625 -10.859375 L 3.625 0 L 1.71875 0 L 1.71875 -13.90625 L 3.265625 -13.90625 C 3.898438 -13.238281 4.570312 -12.457031 5.28125 -11.5625 C 6 -10.675781 6.707031 -9.757812 7.40625 -8.8125 C 8.113281 -7.875 8.773438 -6.945312 9.390625 -6.03125 C 10.015625 -5.125 10.539062 -4.316406 10.96875 -3.609375 L 10.96875 -13.90625 L 12.875 -13.90625 L 12.875 0 Z M 11.25 0 "/></g></g></g><g fill="#e63946" fill-opacity="1"><g transform="translate(523.508654, 176.435873)"><g><path d="M 7.703125 0.296875 C 6.722656 0.296875 5.832031 0.140625 5.03125 -0.171875 C 4.226562 -0.492188 3.539062 -0.960938 2.96875 -1.578125 C 2.394531 -2.191406 1.945312 -2.953125 1.625 -3.859375 C 1.3125 -4.765625 1.15625 -5.800781 1.15625 -6.96875 C 1.15625 -8.125 1.332031 -9.15625 1.6875 -10.0625 C 2.050781 -10.96875 2.53125 -11.726562 3.125 -12.34375 C 3.726562 -12.957031 4.429688 -13.421875 5.234375 -13.734375 C 6.035156 -14.054688 6.890625 -14.21875 7.796875 -14.21875 C 8.378906 -14.21875 8.898438 -14.175781 9.359375 -14.09375 C 9.816406 -14.019531 10.21875 -13.925781 10.5625 -13.8125 C 10.90625 -13.707031 11.179688 -13.601562 11.390625 -13.5 C 11.609375 -13.394531 11.757812 -13.316406 11.84375 -13.265625 L 11.28125 -11.65625 C 11.15625 -11.738281 10.976562 -11.828125 10.75 -11.921875 C 10.519531 -12.015625 10.257812 -12.109375 9.96875 -12.203125 C 9.6875 -12.296875 9.375 -12.367188 9.03125 -12.421875 C 8.695312 -12.484375 8.351562 -12.515625 8 -12.515625 C 7.269531 -12.515625 6.609375 -12.382812 6.015625 -12.125 C 5.429688 -11.875 4.929688 -11.507812 4.515625 -11.03125 C 4.097656 -10.550781 3.78125 -9.96875 3.5625 -9.28125 C 3.34375 -8.59375 3.234375 -7.820312 3.234375 -6.96875 C 3.234375 -6.132812 3.328125 -5.375 3.515625 -4.6875 C 3.710938 -4.007812 4.003906 -3.425781 4.390625 -2.9375 C 4.773438 -2.445312 5.257812 -2.066406 5.84375 -1.796875 C 6.425781 -1.535156 7.109375 -1.40625 7.890625 -1.40625 C 8.785156 -1.40625 9.523438 -1.5 10.109375 -1.6875 C 10.703125 -1.875 11.144531 -2.039062 11.4375 -2.1875 L 11.9375 -0.578125 C 11.84375 -0.515625 11.675781 -0.429688 11.4375 -0.328125 C 11.195312 -0.234375 10.894531 -0.140625 10.53125 -0.046875 C 10.164062 0.046875 9.742188 0.125 9.265625 0.1875 C 8.785156 0.257812 8.265625 0.296875 7.703125 0.296875 Z M 7.703125 0.296875 "/></g></g></g><g fill="#e63946" fill-opacity="1"><g transform="translate(535.937215, 176.435873)"><g/></g></g><g fill="#e63946" fill-opacity="1"><g transform="translate(332.218649, 32.61303)"><g><path d="M 9.316406 -2.511719 L 4.148438 -2.511719 L 4.148438 -11.292969 C 4.148438 -11.703125 3.949219 -11.8125 3.625 -11.8125 L 1.847656 -11.8125 C 1.527344 -11.8125 1.328125 -11.703125 1.328125 -11.292969 L 1.328125 -0.519531 C 1.328125 -0.199219 1.4375 0 1.847656 0 L 9.316406 0 C 9.730469 0 9.835938 -0.199219 9.835938 -0.519531 L 9.835938 -1.992188 C 9.835938 -2.316406 9.730469 -2.511719 9.316406 -2.511719 Z M 9.316406 -2.511719 "/></g></g></g><g fill="#e63946" fill-opacity="1"><g transform="translate(342.666755, 32.61303)"><g><path d="M 11.488281 -0.503906 L 7.523438 -11.257812 C 7.359375 -11.632812 7.179688 -11.8125 6.785156 -11.8125 L 5.0625 -11.8125 C 4.667969 -11.8125 4.46875 -11.632812 4.328125 -11.257812 L 0.339844 -0.503906 C 0.25 -0.289062 0.25 0 0.644531 0 L 2.53125 0 C 2.925781 0 3.070312 -0.109375 3.214844 -0.539062 L 3.714844 -1.957031 L 8.113281 -1.957031 L 8.617188 -0.539062 C 8.761719 -0.109375 8.902344 0 9.300781 0 L 11.183594 0 C 11.578125 0 11.578125 -0.289062 11.488281 -0.503906 Z M 5.925781 -8.4375 L 7.269531 -4.46875 L 4.578125 -4.46875 Z M 5.925781 -8.4375 "/></g></g></g><g fill="#e63946" fill-opacity="1"><g transform="translate(354.425364, 32.61303)"><g><path d="M 9.746094 -6.121094 C 9.910156 -6.195312 11.058594 -6.769531 11.058594 -8.582031 C 11.058594 -10.269531 9.800781 -11.832031 6.875 -11.832031 L 1.847656 -11.832031 C 1.4375 -11.832031 1.328125 -11.632812 1.328125 -11.308594 L 1.328125 -0.519531 C 1.328125 -0.199219 1.4375 0 1.847656 0 L 7.128906 0 C 9.621094 0 11.398438 -1.167969 11.398438 -3.445312 C 11.398438 -5.386719 9.890625 -6.066406 9.746094 -6.121094 Z M 7.164062 -2.550781 L 4.148438 -2.550781 L 4.148438 -9.300781 L 6.875 -9.300781 C 7.808594 -9.300781 8.367188 -9.101562 8.367188 -8.292969 C 8.367188 -7.59375 7.917969 -7.214844 6.875 -7.214844 L 6.640625 -7.214844 C 6.230469 -7.214844 6.121094 -7.019531 6.121094 -6.695312 L 6.121094 -5.332031 C 6.121094 -5.007812 6.230469 -4.8125 6.640625 -4.8125 L 7.054688 -4.8125 C 7.917969 -4.8125 8.546875 -4.558594 8.546875 -3.714844 C 8.546875 -2.910156 8.042969 -2.550781 7.164062 -2.550781 Z M 7.164062 -2.550781 "/></g></g></g><g fill="#e63946" fill-opacity="1"><g transform="translate(366.758434, 32.61303)"><g><path d="M 5.367188 -12.082031 C 3.394531 -12.082031 0.898438 -10.84375 0.898438 -8.007812 L 0.898438 -3.804688 C 0.898438 -0.96875 3.394531 0.269531 5.367188 0.269531 C 7.359375 0.269531 9.855469 -0.96875 9.855469 -3.804688 L 9.855469 -8.007812 C 9.855469 -10.84375 7.359375 -12.082031 5.367188 -12.082031 Z M 7.234375 -7.613281 L 7.234375 -4.199219 C 7.234375 -3.050781 6.460938 -2.242188 5.367188 -2.242188 C 4.273438 -2.242188 3.519531 -3.050781 3.519531 -4.199219 L 3.519531 -7.613281 C 3.519531 -8.761719 4.273438 -9.570312 5.367188 -9.570312 C 6.460938 -9.570312 7.234375 -8.761719 7.234375 -7.613281 Z M 7.234375 -7.613281 "/></g></g></g><g fill="#e63946" fill-opacity="1"><g transform="translate(377.511729, 32.61303)"><g><path d="M 6.550781 -6.910156 L 8.796875 -9.300781 C 8.941406 -9.480469 8.992188 -9.585938 8.992188 -9.820312 L 8.992188 -11.273438 C 8.992188 -11.597656 8.886719 -11.792969 8.472656 -11.792969 L 1.617188 -11.792969 C 1.203125 -11.792969 1.09375 -11.597656 1.09375 -11.273438 L 1.09375 -9.820312 C 1.09375 -9.515625 1.203125 -9.300781 1.617188 -9.300781 L 5.511719 -9.300781 L 3.625 -7.324219 C 3.484375 -7.164062 3.410156 -6.984375 3.410156 -6.714844 L 3.410156 -5.566406 C 3.410156 -5.152344 3.484375 -5.042969 3.894531 -5.042969 L 4.703125 -5.042969 C 5.941406 -5.042969 6.605469 -4.578125 6.605469 -3.625 C 6.605469 -2.65625 5.671875 -2.207031 4.917969 -2.207031 C 4.328125 -2.207031 3.320312 -2.40625 3.050781 -3.265625 C 2.980469 -3.574219 2.910156 -3.664062 2.601562 -3.664062 L 1.003906 -3.664062 C 0.609375 -3.664062 0.503906 -3.589844 0.503906 -3.125 C 0.503906 -1.203125 2.550781 0.269531 4.8125 0.269531 C 7.234375 0.25 9.28125 -1.058594 9.28125 -3.644531 C 9.28125 -5.492188 7.808594 -6.625 6.550781 -6.910156 Z M 6.550781 -6.910156 "/></g></g></g><g clip-path="url(#9c909a28c3)"><path fill="#e63946" d="M 264.644531 48.253906 L 253.375 36.984375 C 254.765625 36.132812 255.667969 34.949219 255.875 33.578125 C 256.105469 32.027344 255.453125 30.527344 254.058594 29.328125 L 258.550781 15.855469 C 258.714844 15.363281 258.632812 14.820312 258.328125 14.394531 C 258.023438 13.972656 257.53125 13.722656 257.011719 13.722656 L 252.144531 13.722656 C 251.585938 13.722656 251.066406 14.011719 250.769531 14.484375 L 244.515625 24.492188 L 238.902344 16.066406 C 238.597656 15.613281 238.09375 15.34375 237.550781 15.34375 L 232.683594 15.34375 C 232.175781 15.34375 231.695312 15.582031 231.390625 15.988281 C 231.085938 16.394531 230.984375 16.921875 231.125 17.410156 L 233.777344 26.695312 L 212.601562 26.695312 L 221.160156 9.582031 C 221.410156 9.078125 221.382812 8.480469 221.089844 8.003906 C 220.792969 7.527344 220.273438 7.234375 219.710938 7.234375 L 213.222656 7.234375 C 212.792969 7.234375 212.378906 7.40625 212.074219 7.710938 L 193.074219 26.710938 C 185.464844 26.914062 181.222656 28.167969 177.707031 30.816406 C 177.28125 31.132812 177.300781 31.785156 177.722656 32.101562 L 181.109375 34.644531 C 181.25 34.75 181.421875 34.804688 181.597656 34.804688 L 184.03125 34.804688 C 184.925781 34.804688 185.652344 35.53125 185.652344 36.425781 C 185.652344 37.324219 184.925781 38.050781 184.03125 38.050781 L 180.785156 38.050781 C 180.433594 38.050781 180.09375 37.9375 179.8125 37.726562 L 174.867188 33.652344 C 174.542969 33.386719 174.074219 33.410156 173.777344 33.703125 L 172.675781 34.804688 C 167.941406 37.550781 167.476562 41.621094 168.101562 44.214844 C 168.835938 47.269531 171.808594 49.253906 175.921875 49.402344 L 186.140625 49.402344 C 185.835938 50.140625 185.652344 50.960938 185.652344 51.835938 C 185.652344 54.964844 187.835938 57.511719 190.515625 57.511719 C 196.6875 57.511719 203.210938 56.238281 205.6875 53.511719 L 231.808594 70.230469 C 232.070312 70.398438 232.375 70.484375 232.683594 70.484375 L 244.039062 70.484375 C 244.71875 70.484375 245.328125 70.058594 245.558594 69.421875 C 245.792969 68.78125 245.601562 68.0625 245.082031 67.625 L 220.746094 47.132812 C 231.246094 45.371094 239.226562 43.011719 243.667969 41.511719 L 259.332031 52.355469 C 259.609375 52.546875 259.929688 52.644531 260.253906 52.644531 C 260.503906 52.644531 260.75 52.589844 260.980469 52.476562 L 264.222656 50.855469 C 264.691406 50.621094 265.015625 50.175781 265.101562 49.664062 C 265.183594 49.148438 265.015625 48.625 264.644531 48.253906 Z M 192.140625 38.050781 L 190.515625 38.050781 C 189.621094 38.050781 188.894531 37.324219 188.894531 36.425781 C 188.894531 35.53125 189.621094 34.804688 190.515625 34.804688 L 192.140625 34.804688 C 193.035156 34.804688 193.761719 35.53125 193.761719 36.425781 C 193.761719 37.324219 193.035156 38.050781 192.140625 38.050781 Z M 200.246094 38.050781 L 198.625 38.050781 C 197.730469 38.050781 197.003906 37.324219 197.003906 36.425781 C 197.003906 35.53125 197.730469 34.804688 198.625 34.804688 L 200.246094 34.804688 C 201.144531 34.804688 201.871094 35.53125 201.871094 36.425781 C 201.871094 37.324219 201.144531 38.050781 200.246094 38.050781 Z M 208.355469 38.050781 L 206.734375 38.050781 C 205.839844 38.050781 205.113281 37.324219 205.113281 36.425781 C 205.113281 35.53125 205.839844 34.804688 206.734375 34.804688 L 208.355469 34.804688 C 209.253906 34.804688 209.980469 35.53125 209.980469 36.425781 C 209.980469 37.324219 209.253906 38.050781 208.355469 38.050781 Z M 216.464844 38.050781 L 214.84375 38.050781 C 213.949219 38.050781 213.222656 37.324219 213.222656 36.425781 C 213.222656 35.53125 213.949219 34.804688 214.84375 34.804688 L 216.464844 34.804688 C 217.363281 34.804688 218.089844 35.53125 218.089844 36.425781 C 218.089844 37.324219 217.363281 38.050781 216.464844 38.050781 Z M 224.574219 38.050781 L 222.953125 38.050781 C 222.058594 38.050781 221.332031 37.324219 221.332031 36.425781 C 221.332031 35.53125 222.058594 34.804688 222.953125 34.804688 L 224.574219 34.804688 C 225.46875 34.804688 226.195312 35.53125 226.195312 36.425781 C 226.195312 37.324219 225.46875 38.050781 224.574219 38.050781 Z M 232.683594 38.050781 L 231.0625 38.050781 C 230.167969 38.050781 229.441406 37.324219 229.441406 36.425781 C 229.441406 35.53125 230.167969 34.804688 231.0625 34.804688 L 232.683594 34.804688 C 233.578125 34.804688 234.304688 35.53125 234.304688 36.425781 C 234.304688 37.324219 233.578125 38.050781 232.683594 38.050781 Z M 232.683594 38.050781 " fill-opacity="1" fill-rule="nonzero"/></g><g clip-path="url(#dab31d5870)"><g clip-path="url(#3b7ee6bbbb)"><path fill="#e63946" d="M 250.953125 8.527344 L 432.121094 8.527344 L 432.121094 48.695312 L 250.953125 48.695312 Z M 250.953125 8.527344 " fill-opacity="1" fill-rule="nonzero"/></g></g><g clip-path="url(#232f289e66)"><g clip-path="url(#7ab15f2e4c)"><path fill="#e63946" d="M 278.554688 25.132812 L 295.085938 25.132812 L 295.085938 37.101562 L 278.554688 37.101562 Z M 278.554688 25.132812 " fill-opacity="1" fill-rule="nonzero"/></g></g></svg>