<svg xmlns="http://www.w3.org/2000/svg" xmlns:xlink="http://www.w3.org/1999/xlink" width="800" zoomAndPan="magnify" viewBox="0 0 600 187.499995" height="250" preserveAspectRatio="xMidYMid meet" version="1.0"><defs><g/><clipPath id="c83051c796"><path d="M 520 7 L 586 7 L 586 74 L 520 74 Z M 520 7 " clip-rule="nonzero"/></clipPath><clipPath id="b5b8de71da"><path d="M 585.910156 19.964844 L 585.910156 60.035156 L 569.457031 73.53125 L 543.949219 64.234375 L 543.949219 73.449219 L 529.507812 54.566406 L 571.59375 57.855469 L 571.59375 21.777344 Z M 571.882812 21.980469 L 548.269531 7.625 L 548.269531 17.046875 L 526.585938 23.421875 L 520.085938 31.773438 L 520.085938 50.738281 L 529.386719 54.851562 L 529.386719 30.539062 Z M 571.882812 21.980469 " clip-rule="nonzero"/></clipPath><linearGradient x1="9" gradientTransform="matrix(4.114029, 0, 0, 4.114029, 515.973624, 3.50984)" y1="17.019999" x2="9" gradientUnits="userSpaceOnUse" y2="1" id="ed4e430ea0"><stop stop-opacity="1" stop-color="rgb(0%, 47.099304%, 83.099365%)" offset="0"/><stop stop-opacity="1" stop-color="rgb(0.109863%, 47.145081%, 83.13446%)" offset="0.0078125"/><stop stop-opacity="1" stop-color="rgb(0.404358%, 47.267151%, 83.227539%)" offset="0.015625"/><stop stop-opacity="1" stop-color="rgb(0.772095%, 47.418213%, 83.346558%)" offset="0.0234375"/><stop stop-opacity="1" stop-color="rgb(1.139832%, 47.570801%, 83.46405%)" offset="0.03125"/><stop stop-opacity="1" stop-color="rgb(1.507568%, 47.723389%, 83.581543%)" offset="0.0390625"/><stop stop-opacity="1" stop-color="rgb(1.875305%, 47.874451%, 83.699036%)" offset="0.046875"/><stop stop-opacity="1" stop-color="rgb(2.244568%, 48.027039%, 83.816528%)" offset="0.0546875"/><stop stop-opacity="1" stop-color="rgb(2.612305%, 48.179626%, 83.935547%)" offset="0.0625"/><stop stop-opacity="1" stop-color="rgb(2.980042%, 48.330688%, 84.05304%)" offset="0.0703125"/><stop stop-opacity="1" stop-color="rgb(3.347778%, 48.483276%, 84.170532%)" offset="0.078125"/><stop stop-opacity="1" stop-color="rgb(3.715515%, 48.635864%, 84.288025%)" offset="0.0859375"/><stop stop-opacity="1" stop-color="rgb(4.084778%, 48.788452%, 84.405518%)" offset="0.09375"/><stop stop-opacity="1" stop-color="rgb(4.452515%, 48.939514%, 84.52301%)" offset="0.101563"/><stop stop-opacity="1" stop-color="rgb(4.820251%, 49.092102%, 84.642029%)" offset="0.109375"/><stop stop-opacity="1" stop-color="rgb(5.187988%, 49.24469%, 84.759521%)" offset="0.117188"/><stop stop-opacity="1" stop-color="rgb(5.555725%, 49.395752%, 84.877014%)" offset="0.125"/><stop stop-opacity="1" stop-color="rgb(5.924988%, 49.54834%, 84.994507%)" offset="0.132813"/><stop stop-opacity="1" stop-color="rgb(6.292725%, 49.700928%, 85.112%)" offset="0.140625"/><stop stop-opacity="1" stop-color="rgb(6.660461%, 49.85199%, 85.231018%)" offset="0.148438"/><stop stop-opacity="1" stop-color="rgb(7.028198%, 50.004578%, 85.348511%)" offset="0.15625"/><stop stop-opacity="1" stop-color="rgb(7.392883%, 50.15564%, 85.462952%)" offset="0.164063"/><stop stop-opacity="1" stop-color="rgb(7.743835%, 50.302124%, 85.565186%)" offset="0.171875"/><stop stop-opacity="1" stop-color="rgb(8.084106%, 50.444031%, 85.656738%)" offset="0.179688"/><stop stop-opacity="1" stop-color="rgb(8.422852%, 50.585938%, 85.748291%)" offset="0.1875"/><stop stop-opacity="1" stop-color="rgb(8.763123%, 50.727844%, 85.838318%)" offset="0.195312"/><stop stop-opacity="1" stop-color="rgb(9.101868%, 50.869751%, 85.929871%)" offset="0.203125"/><stop stop-opacity="1" stop-color="rgb(9.442139%, 51.011658%, 86.021423%)" offset="0.210938"/><stop stop-opacity="1" stop-color="rgb(9.780884%, 51.15509%, 86.112976%)" offset="0.21875"/><stop stop-opacity="1" stop-color="rgb(10.121155%, 51.296997%, 86.204529%)" offset="0.226562"/><stop stop-opacity="1" stop-color="rgb(10.4599%, 51.438904%, 86.294556%)" offset="0.234375"/><stop stop-opacity="1" stop-color="rgb(10.800171%, 51.580811%, 86.386108%)" offset="0.242188"/><stop stop-opacity="1" stop-color="rgb(11.138916%, 51.722717%, 86.477661%)" offset="0.25"/><stop stop-opacity="1" stop-color="rgb(11.479187%, 51.864624%, 86.569214%)" offset="0.257813"/><stop stop-opacity="1" stop-color="rgb(11.817932%, 52.008057%, 86.660767%)" offset="0.265625"/><stop stop-opacity="1" stop-color="rgb(12.158203%, 52.149963%, 86.750793%)" offset="0.273438"/><stop stop-opacity="1" stop-color="rgb(12.498474%, 52.29187%, 86.842346%)" offset="0.28125"/><stop stop-opacity="1" stop-color="rgb(12.837219%, 52.433777%, 86.933899%)" offset="0.289063"/><stop stop-opacity="1" stop-color="rgb(13.17749%, 52.575684%, 87.025452%)" offset="0.296875"/><stop stop-opacity="1" stop-color="rgb(13.516235%, 52.719116%, 87.117004%)" offset="0.304688"/><stop stop-opacity="1" stop-color="rgb(13.856506%, 52.861023%, 87.207031%)" offset="0.3125"/><stop stop-opacity="1" stop-color="rgb(14.195251%, 53.00293%, 87.298584%)" offset="0.320313"/><stop stop-opacity="1" stop-color="rgb(14.535522%, 53.144836%, 87.390137%)" offset="0.328125"/><stop stop-opacity="1" stop-color="rgb(14.874268%, 53.286743%, 87.481689%)" offset="0.335938"/><stop stop-opacity="1" stop-color="rgb(15.214539%, 53.42865%, 87.573242%)" offset="0.34375"/><stop stop-opacity="1" stop-color="rgb(15.553284%, 53.572083%, 87.663269%)" offset="0.351563"/><stop stop-opacity="1" stop-color="rgb(15.893555%, 53.713989%, 87.754822%)" offset="0.359375"/><stop stop-opacity="1" stop-color="rgb(16.2323%, 53.855896%, 87.846375%)" offset="0.367188"/><stop stop-opacity="1" stop-color="rgb(16.572571%, 53.997803%, 87.937927%)" offset="0.375"/><stop stop-opacity="1" stop-color="rgb(16.911316%, 54.139709%, 88.02948%)" offset="0.382812"/><stop stop-opacity="1" stop-color="rgb(17.251587%, 54.283142%, 88.119507%)" offset="0.390625"/><stop stop-opacity="1" stop-color="rgb(17.590332%, 54.425049%, 88.21106%)" offset="0.398438"/><stop stop-opacity="1" stop-color="rgb(17.930603%, 54.566956%, 88.302612%)" offset="0.40625"/><stop stop-opacity="1" stop-color="rgb(18.269348%, 54.708862%, 88.394165%)" offset="0.414062"/><stop stop-opacity="1" stop-color="rgb(18.609619%, 54.850769%, 88.485718%)" offset="0.421875"/><stop stop-opacity="1" stop-color="rgb(18.948364%, 54.992676%, 88.575745%)" offset="0.429688"/><stop stop-opacity="1" stop-color="rgb(19.288635%, 55.136108%, 88.667297%)" offset="0.4375"/><stop stop-opacity="1" stop-color="rgb(19.62738%, 55.278015%, 88.75885%)" offset="0.445312"/><stop stop-opacity="1" stop-color="rgb(19.967651%, 55.419922%, 88.850403%)" offset="0.453125"/><stop stop-opacity="1" stop-color="rgb(20.306396%, 55.561829%, 88.941956%)" offset="0.460938"/><stop stop-opacity="1" stop-color="rgb(20.646667%, 55.703735%, 89.031982%)" offset="0.46875"/><stop stop-opacity="1" stop-color="rgb(20.985413%, 55.845642%, 89.123535%)" offset="0.476562"/><stop stop-opacity="1" stop-color="rgb(21.325684%, 55.989075%, 89.215088%)" offset="0.484375"/><stop stop-opacity="1" stop-color="rgb(21.664429%, 56.130981%, 89.306641%)" offset="0.492188"/><stop stop-opacity="1" stop-color="rgb(22.0047%, 56.272888%, 89.398193%)" offset="0.5"/><stop stop-opacity="1" stop-color="rgb(22.343445%, 56.414795%, 89.48822%)" offset="0.507812"/><stop stop-opacity="1" stop-color="rgb(22.683716%, 56.556702%, 89.579773%)" offset="0.515625"/><stop stop-opacity="1" stop-color="rgb(23.023987%, 56.700134%, 89.671326%)" offset="0.523438"/><stop stop-opacity="1" stop-color="rgb(23.35968%, 56.840515%, 89.761353%)" offset="0.53125"/><stop stop-opacity="1" stop-color="rgb(23.658752%, 56.968689%, 89.842224%)" offset="0.539063"/><stop stop-opacity="1" stop-color="rgb(23.924255%, 57.084656%, 89.915466%)" offset="0.546875"/><stop stop-opacity="1" stop-color="rgb(24.188232%, 57.202148%, 89.988708%)" offset="0.554688"/><stop stop-opacity="1" stop-color="rgb(24.453735%, 57.318115%, 90.061951%)" offset="0.5625"/><stop stop-opacity="1" stop-color="rgb(24.719238%, 57.434082%, 90.135193%)" offset="0.570313"/><stop stop-opacity="1" stop-color="rgb(24.984741%, 57.551575%, 90.208435%)" offset="0.578125"/><stop stop-opacity="1" stop-color="rgb(25.250244%, 57.667542%, 90.281677%)" offset="0.585938"/><stop stop-opacity="1" stop-color="rgb(25.515747%, 57.783508%, 90.354919%)" offset="0.59375"/><stop stop-opacity="1" stop-color="rgb(25.78125%, 57.899475%, 90.428162%)" offset="0.601563"/><stop stop-opacity="1" stop-color="rgb(26.046753%, 58.016968%, 90.501404%)" offset="0.609375"/><stop stop-opacity="1" stop-color="rgb(26.312256%, 58.132935%, 90.574646%)" offset="0.617188"/><stop stop-opacity="1" stop-color="rgb(26.576233%, 58.248901%, 90.646362%)" offset="0.625"/><stop stop-opacity="1" stop-color="rgb(26.841736%, 58.366394%, 90.719604%)" offset="0.632813"/><stop stop-opacity="1" stop-color="rgb(27.107239%, 58.482361%, 90.792847%)" offset="0.640625"/><stop stop-opacity="1" stop-color="rgb(27.372742%, 58.598328%, 90.866089%)" offset="0.648438"/><stop stop-opacity="1" stop-color="rgb(27.638245%, 58.71582%, 90.939331%)" offset="0.65625"/><stop stop-opacity="1" stop-color="rgb(27.903748%, 58.831787%, 91.012573%)" offset="0.664063"/><stop stop-opacity="1" stop-color="rgb(28.16925%, 58.947754%, 91.085815%)" offset="0.671875"/><stop stop-opacity="1" stop-color="rgb(28.434753%, 59.063721%, 91.159058%)" offset="0.679688"/><stop stop-opacity="1" stop-color="rgb(28.700256%, 59.181213%, 91.2323%)" offset="0.6875"/><stop stop-opacity="1" stop-color="rgb(28.964233%, 59.29718%, 91.305542%)" offset="0.695313"/><stop stop-opacity="1" stop-color="rgb(29.229736%, 59.413147%, 91.378784%)" offset="0.703125"/><stop stop-opacity="1" stop-color="rgb(29.495239%, 59.53064%, 91.4505%)" offset="0.710938"/><stop stop-opacity="1" stop-color="rgb(29.760742%, 59.646606%, 91.523743%)" offset="0.71875"/><stop stop-opacity="1" stop-color="rgb(30.026245%, 59.762573%, 91.596985%)" offset="0.726563"/><stop stop-opacity="1" stop-color="rgb(30.291748%, 59.880066%, 91.670227%)" offset="0.734375"/><stop stop-opacity="1" stop-color="rgb(30.557251%, 59.996033%, 91.743469%)" offset="0.742188"/><stop stop-opacity="1" stop-color="rgb(30.822754%, 60.112%, 91.816711%)" offset="0.75"/><stop stop-opacity="1" stop-color="rgb(31.088257%, 60.227966%, 91.889954%)" offset="0.757813"/><stop stop-opacity="1" stop-color="rgb(31.352234%, 60.345459%, 91.963196%)" offset="0.765625"/><stop stop-opacity="1" stop-color="rgb(31.617737%, 60.461426%, 92.036438%)" offset="0.773438"/><stop stop-opacity="1" stop-color="rgb(31.88324%, 60.577393%, 92.10968%)" offset="0.78125"/><stop stop-opacity="1" stop-color="rgb(32.148743%, 60.694885%, 92.182922%)" offset="0.789063"/><stop stop-opacity="1" stop-color="rgb(32.414246%, 60.810852%, 92.254639%)" offset="0.796875"/><stop stop-opacity="1" stop-color="rgb(32.679749%, 60.926819%, 92.327881%)" offset="0.804688"/><stop stop-opacity="1" stop-color="rgb(32.945251%, 61.042786%, 92.401123%)" offset="0.8125"/><stop stop-opacity="1" stop-color="rgb(33.201599%, 61.155701%, 92.472839%)" offset="0.820313"/><stop stop-opacity="1" stop-color="rgb(33.403015%, 61.242676%, 92.533875%)" offset="0.828125"/><stop stop-opacity="1" stop-color="rgb(33.639526%, 61.340332%, 92.611694%)" offset="0.84375"/><stop stop-opacity="1" stop-color="rgb(33.953857%, 61.471558%, 92.71698%)" offset="0.859375"/><stop stop-opacity="1" stop-color="rgb(34.266663%, 61.602783%, 92.82074%)" offset="0.875"/><stop stop-opacity="1" stop-color="rgb(34.580994%, 61.734009%, 92.926025%)" offset="0.890625"/><stop stop-opacity="1" stop-color="rgb(34.895325%, 61.863708%, 93.031311%)" offset="0.90625"/><stop stop-opacity="1" stop-color="rgb(35.209656%, 61.994934%, 93.135071%)" offset="0.921875"/><stop stop-opacity="1" stop-color="rgb(35.523987%, 62.12616%, 93.240356%)" offset="0.9375"/><stop stop-opacity="1" stop-color="rgb(35.836792%, 62.257385%, 93.345642%)" offset="0.953125"/><stop stop-opacity="1" stop-color="rgb(36.151123%, 62.387085%, 93.449402%)" offset="0.96875"/><stop stop-opacity="1" stop-color="rgb(36.465454%, 62.518311%, 93.554688%)" offset="0.984375"/><stop stop-opacity="1" stop-color="rgb(36.759949%, 62.641907%, 93.652344%)" offset="1"/></linearGradient><clipPath id="9adc3a3bd9"><path d="M 445.636719 10.878906 L 511.460938 10.878906 L 511.460938 76 L 445.636719 76 Z M 445.636719 10.878906 " clip-rule="nonzero"/></clipPath><clipPath id="eab4f948d5"><path d="M 519.917969 77.273438 L 587.984375 77.273438 L 587.984375 143.097656 L 519.917969 143.097656 Z M 519.917969 77.273438 " clip-rule="nonzero"/></clipPath><clipPath id="c38a304fc1"><path d="M 553 103 L 587.984375 103 L 587.984375 134 L 553 134 Z M 553 103 " clip-rule="nonzero"/></clipPath><clipPath id="2d63139e1a"><path d="M 540 124 L 567 124 L 567 143.097656 L 540 143.097656 Z M 540 124 " clip-rule="nonzero"/></clipPath><clipPath id="2fd1c87c3d"><path d="M 519.917969 103 L 554 103 L 554 134 L 519.917969 134 Z M 519.917969 103 " clip-rule="nonzero"/></clipPath><clipPath id="42f6b8dda8"><path d="M 445.636719 80 L 511.460938 80 L 511.460938 140 L 445.636719 140 Z M 445.636719 80 " clip-rule="nonzero"/></clipPath><clipPath id="70a9aada98"><path d="M 455 100 L 509 100 L 509 140 L 455 140 Z M 455 100 " clip-rule="nonzero"/></clipPath><clipPath id="b71d75f553"><path d="M 508.558594 100.460938 L 488.765625 100.460938 L 485.445312 119.855469 L 471.734375 119.855469 L 455.546875 139.066406 C 456.078125 139.527344 456.695312 139.757812 457.394531 139.765625 L 500.355469 139.765625 C 500.609375 139.765625 500.855469 139.726562 501.09375 139.640625 C 501.332031 139.554688 501.546875 139.433594 501.738281 139.269531 C 501.933594 139.105469 502.09375 138.917969 502.21875 138.695312 C 502.34375 138.476562 502.425781 138.242188 502.464844 137.992188 Z M 508.558594 100.460938 " clip-rule="nonzero"/></clipPath><linearGradient x1="63.810753" gradientTransform="matrix(1.054541, 0, 0, 1.054541, 445.636043, 73.971077)" y1="30.425507" x2="14.491819" gradientUnits="userSpaceOnUse" y2="68.91717" id="9aea958b1d"><stop stop-opacity="1" stop-color="rgb(0%, 32.199097%, 79.998779%)" offset="0"/><stop stop-opacity="1" stop-color="rgb(0%, 32.199097%, 79.998779%)" offset="0.0625"/><stop stop-opacity="1" stop-color="rgb(0%, 32.199097%, 79.998779%)" offset="0.09375"/><stop stop-opacity="1" stop-color="rgb(0.00152588%, 32.202148%, 80.001831%)" offset="0.109375"/><stop stop-opacity="1" stop-color="rgb(0.117493%, 32.354736%, 80.157471%)" offset="0.117187"/><stop stop-opacity="1" stop-color="rgb(0.343323%, 32.652283%, 80.461121%)" offset="0.125"/><stop stop-opacity="1" stop-color="rgb(0.569153%, 32.948303%, 80.763245%)" offset="0.132812"/><stop stop-opacity="1" stop-color="rgb(0.794983%, 33.24585%, 81.066895%)" offset="0.140625"/><stop stop-opacity="1" stop-color="rgb(1.020813%, 33.54187%, 81.370544%)" offset="0.148437"/><stop stop-opacity="1" stop-color="rgb(1.246643%, 33.839417%, 81.672668%)" offset="0.15625"/><stop stop-opacity="1" stop-color="rgb(1.472473%, 34.136963%, 81.976318%)" offset="0.164062"/><stop stop-opacity="1" stop-color="rgb(1.698303%, 34.432983%, 82.278442%)" offset="0.171875"/><stop stop-opacity="1" stop-color="rgb(1.924133%, 34.73053%, 82.582092%)" offset="0.179687"/><stop stop-opacity="1" stop-color="rgb(2.148438%, 35.02655%, 82.884216%)" offset="0.1875"/><stop stop-opacity="1" stop-color="rgb(2.374268%, 35.324097%, 83.187866%)" offset="0.195312"/><stop stop-opacity="1" stop-color="rgb(2.600098%, 35.620117%, 83.48999%)" offset="0.203125"/><stop stop-opacity="1" stop-color="rgb(2.825928%, 35.917664%, 83.79364%)" offset="0.210938"/><stop stop-opacity="1" stop-color="rgb(3.051758%, 36.21521%, 84.095764%)" offset="0.21875"/><stop stop-opacity="1" stop-color="rgb(3.277588%, 36.51123%, 84.399414%)" offset="0.226562"/><stop stop-opacity="1" stop-color="rgb(3.503418%, 36.808777%, 84.703064%)" offset="0.234375"/><stop stop-opacity="1" stop-color="rgb(3.729248%, 37.104797%, 85.005188%)" offset="0.242187"/><stop stop-opacity="1" stop-color="rgb(3.955078%, 37.402344%, 85.308838%)" offset="0.25"/><stop stop-opacity="1" stop-color="rgb(4.180908%, 37.698364%, 85.610962%)" offset="0.257812"/><stop stop-opacity="1" stop-color="rgb(4.406738%, 37.995911%, 85.914612%)" offset="0.265625"/><stop stop-opacity="1" stop-color="rgb(4.632568%, 38.293457%, 86.216736%)" offset="0.273437"/><stop stop-opacity="1" stop-color="rgb(4.856873%, 38.589478%, 86.520386%)" offset="0.28125"/><stop stop-opacity="1" stop-color="rgb(5.082703%, 38.887024%, 86.82251%)" offset="0.289062"/><stop stop-opacity="1" stop-color="rgb(5.308533%, 39.183044%, 87.12616%)" offset="0.296875"/><stop stop-opacity="1" stop-color="rgb(5.534363%, 39.480591%, 87.428284%)" offset="0.304688"/><stop stop-opacity="1" stop-color="rgb(5.760193%, 39.776611%, 87.731934%)" offset="0.3125"/><stop stop-opacity="1" stop-color="rgb(5.986023%, 40.074158%, 88.035583%)" offset="0.320312"/><stop stop-opacity="1" stop-color="rgb(6.211853%, 40.371704%, 88.337708%)" offset="0.328125"/><stop stop-opacity="1" stop-color="rgb(6.437683%, 40.667725%, 88.641357%)" offset="0.335937"/><stop stop-opacity="1" stop-color="rgb(6.663513%, 40.965271%, 88.943481%)" offset="0.34375"/><stop stop-opacity="1" stop-color="rgb(6.889343%, 41.261292%, 89.247131%)" offset="0.351562"/><stop stop-opacity="1" stop-color="rgb(7.115173%, 41.558838%, 89.549255%)" offset="0.359375"/><stop stop-opacity="1" stop-color="rgb(7.341003%, 41.854858%, 89.852905%)" offset="0.36656"/><stop stop-opacity="1" stop-color="rgb(7.453918%, 42.004395%, 90.003967%)" offset="0.367187"/><stop stop-opacity="1" stop-color="rgb(7.565308%, 42.152405%, 90.155029%)" offset="0.375"/><stop stop-opacity="1" stop-color="rgb(7.791138%, 42.449951%, 90.458679%)" offset="0.382812"/><stop stop-opacity="1" stop-color="rgb(8.016968%, 42.745972%, 90.760803%)" offset="0.390625"/><stop stop-opacity="1" stop-color="rgb(8.242798%, 43.043518%, 91.064453%)" offset="0.398437"/><stop stop-opacity="1" stop-color="rgb(8.468628%, 43.339539%, 91.368103%)" offset="0.40625"/><stop stop-opacity="1" stop-color="rgb(8.694458%, 43.637085%, 91.670227%)" offset="0.414062"/><stop stop-opacity="1" stop-color="rgb(8.920288%, 43.933105%, 91.973877%)" offset="0.421875"/><stop stop-opacity="1" stop-color="rgb(9.146118%, 44.230652%, 92.276001%)" offset="0.429687"/><stop stop-opacity="1" stop-color="rgb(9.371948%, 44.528198%, 92.579651%)" offset="0.4375"/><stop stop-opacity="1" stop-color="rgb(9.597778%, 44.824219%, 92.881775%)" offset="0.445312"/><stop stop-opacity="1" stop-color="rgb(9.823608%, 45.121765%, 93.185425%)" offset="0.453125"/><stop stop-opacity="1" stop-color="rgb(10.049438%, 45.417786%, 93.487549%)" offset="0.460937"/><stop stop-opacity="1" stop-color="rgb(10.273743%, 45.715332%, 93.791199%)" offset="0.46875"/><stop stop-opacity="1" stop-color="rgb(10.499573%, 46.011353%, 94.093323%)" offset="0.476562"/><stop stop-opacity="1" stop-color="rgb(10.725403%, 46.308899%, 94.396973%)" offset="0.484375"/><stop stop-opacity="1" stop-color="rgb(10.951233%, 46.606445%, 94.700623%)" offset="0.492187"/><stop stop-opacity="1" stop-color="rgb(11.177063%, 46.902466%, 95.002747%)" offset="0.5"/><stop stop-opacity="1" stop-color="rgb(11.402893%, 47.200012%, 95.306396%)" offset="0.507812"/><stop stop-opacity="1" stop-color="rgb(11.628723%, 47.496033%, 95.608521%)" offset="0.515625"/><stop stop-opacity="1" stop-color="rgb(11.854553%, 47.793579%, 95.91217%)" offset="0.523437"/><stop stop-opacity="1" stop-color="rgb(12.080383%, 48.0896%, 96.214294%)" offset="0.53125"/><stop stop-opacity="1" stop-color="rgb(12.306213%, 48.387146%, 96.517944%)" offset="0.539062"/><stop stop-opacity="1" stop-color="rgb(12.532043%, 48.684692%, 96.820068%)" offset="0.546875"/><stop stop-opacity="1" stop-color="rgb(12.756348%, 48.980713%, 97.123718%)" offset="0.554688"/><stop stop-opacity="1" stop-color="rgb(12.982178%, 49.278259%, 97.425842%)" offset="0.5625"/><stop stop-opacity="1" stop-color="rgb(13.208008%, 49.57428%, 97.729492%)" offset="0.570312"/><stop stop-opacity="1" stop-color="rgb(13.433838%, 49.871826%, 98.033142%)" offset="0.578125"/><stop stop-opacity="1" stop-color="rgb(13.659668%, 50.169373%, 98.335266%)" offset="0.585937"/><stop stop-opacity="1" stop-color="rgb(13.885498%, 50.465393%, 98.638916%)" offset="0.59375"/><stop stop-opacity="1" stop-color="rgb(14.111328%, 50.762939%, 98.94104%)" offset="0.601562"/><stop stop-opacity="1" stop-color="rgb(14.337158%, 51.05896%, 99.24469%)" offset="0.609375"/><stop stop-opacity="1" stop-color="rgb(14.562988%, 51.356506%, 99.546814%)" offset="0.617188"/><stop stop-opacity="1" stop-color="rgb(14.787292%, 51.651001%, 99.848938%)" offset="0.625"/><stop stop-opacity="1" stop-color="rgb(14.898682%, 51.799011%, 100%)" offset="0.63344"/><stop stop-opacity="1" stop-color="rgb(14.898682%, 51.799011%, 100%)" offset="0.75"/><stop stop-opacity="1" stop-color="rgb(14.898682%, 51.799011%, 100%)" offset="1"/></linearGradient></defs><path fill="#f05133" d="M 172.378906 86.523438 L 98.128906 12.277344 C 93.855469 8 86.921875 8 82.640625 12.277344 L 67.222656 27.699219 L 86.78125 47.253906 C 91.328125 45.71875 96.539062 46.75 100.160156 50.371094 C 103.804688 54.019531 104.824219 59.273438 103.25 63.835938 L 122.101562 82.6875 C 126.664062 81.113281 131.925781 82.132812 135.566406 85.78125 C 140.65625 90.867188 140.65625 99.117188 135.566406 104.210938 C 130.472656 109.300781 122.226562 109.300781 117.132812 104.210938 C 113.304688 100.378906 112.355469 94.75 114.296875 90.035156 L 96.714844 72.457031 L 96.714844 118.71875 C 97.957031 119.332031 99.128906 120.152344 100.160156 121.183594 C 105.25 126.273438 105.25 134.519531 100.160156 139.617188 C 95.070312 144.703125 86.816406 144.703125 81.730469 139.617188 C 76.644531 134.519531 76.644531 126.273438 81.730469 121.183594 C 82.992188 119.925781 84.449219 118.976562 86.003906 118.339844 L 86.003906 71.644531 C 84.449219 71.007812 82.996094 70.066406 81.730469 68.800781 C 77.878906 64.949219 76.949219 59.289062 78.925781 54.554688 L 59.648438 35.269531 L 8.734375 86.179688 C 4.457031 90.460938 4.457031 97.394531 8.734375 101.671875 L 82.988281 175.917969 C 87.261719 180.195312 94.195312 180.195312 98.476562 175.917969 L 172.378906 102.015625 C 176.65625 97.738281 176.65625 90.800781 172.378906 86.523438 Z M 172.378906 86.523438 " fill-opacity="1" fill-rule="nonzero"/><g fill="#f05133" fill-opacity="1"><g transform="translate(186.562447, 138.534854)"><g><path d="M 50 -100.40625 L 90.125 -100.40625 C 94.226562 -100.40625 97.773438 -97.976562 100.765625 -93.125 C 101.273438 -91.3125 101.53125 -90.050781 101.53125 -89.34375 L 101.53125 -86.546875 C 101.53125 -82.535156 99.007812 -79.175781 93.96875 -76.46875 C 92.332031 -75.8125 90.789062 -75.484375 89.34375 -75.484375 L 55.59375 -75.484375 C 42.988281 -75.484375 33.65625 -70.421875 27.59375 -60.296875 C 26 -56.929688 25.203125 -53.5 25.203125 -50 C 25.203125 -40.101562 30.992188 -32.46875 42.578125 -27.09375 C 46.679688 -25.644531 50.484375 -24.921875 53.984375 -24.921875 L 76.328125 -24.921875 L 76.328125 -37.53125 C 76.328125 -44.15625 78.941406 -48.566406 84.171875 -50.765625 C 85.523438 -51.460938 86.972656 -51.8125 88.515625 -51.8125 L 89.5625 -51.8125 C 95.019531 -51.8125 98.941406 -48.707031 101.328125 -42.5 C 101.460938 -41.800781 101.53125 -41.21875 101.53125 -40.75 L 101.53125 -10.859375 C 101.53125 -6.984375 99.128906 -3.691406 94.328125 -0.984375 C 92.972656 -0.328125 91.710938 0 90.546875 0 L 48.734375 0 C 37.765625 0 26.984375 -4.410156 16.390625 -13.234375 C 10.367188 -19.347656 6.703125 -24.15625 5.390625 -27.65625 C 1.796875 -34.800781 0 -41.664062 0 -48.25 L 0 -51.953125 C 0 -63.898438 4.992188 -75.175781 14.984375 -85.78125 C 25.722656 -95.53125 37.394531 -100.40625 50 -100.40625 Z M 50 -100.40625 "/></g></g></g><g fill="#f05133" fill-opacity="1"><g transform="translate(295.091626, 138.534854)"><g><path d="M 12.109375 -100.40625 L 14 -100.40625 C 18.300781 -100.40625 21.875 -98.023438 24.71875 -93.265625 C 25.507812 -91.722656 25.90625 -89.878906 25.90625 -87.734375 L 25.90625 -12.046875 C 25.90625 -6.578125 22.6875 -2.628906 16.25 -0.203125 C 15.5 -0.0664062 14.890625 0 14.421875 0 L 11.546875 0 C 7.160156 0 3.59375 -2.566406 0.84375 -7.703125 C 0.28125 -9.054688 0 -10.25 0 -11.28125 L 0 -88.71875 C 0 -93.800781 3.082031 -97.5625 9.25 -100 C 10.269531 -100.269531 11.222656 -100.40625 12.109375 -100.40625 Z M 12.109375 -100.40625 "/></g></g></g><g fill="#f05133" fill-opacity="1"><g transform="translate(328.000474, 138.534854)"><g><path d="M 11.765625 -100.40625 L 90.125 -100.40625 C 94.414062 -100.40625 97.960938 -97.910156 100.765625 -92.921875 C 101.273438 -91.378906 101.53125 -90.1875 101.53125 -89.34375 L 101.53125 -86.546875 C 101.53125 -82.535156 99.007812 -79.175781 93.96875 -76.46875 C 92.332031 -75.8125 90.789062 -75.484375 89.34375 -75.484375 L 63.375 -75.484375 L 63.375 -11.6875 C 63.375 -6.507812 60.316406 -2.679688 54.203125 -0.203125 L 52.171875 0 L 49.359375 0 C 45.304688 0 41.898438 -2.5 39.140625 -7.5 C 38.484375 -9.125 38.15625 -10.640625 38.15625 -12.046875 L 38.15625 -75.484375 L 12.8125 -75.484375 C 6.882812 -75.484375 2.753906 -78.445312 0.421875 -84.375 C 0.140625 -85.59375 0 -86.457031 0 -86.96875 L 0 -88.71875 C 0 -93.800781 2.988281 -97.5625 8.96875 -100 C 9.988281 -100.269531 10.921875 -100.40625 11.765625 -100.40625 Z M 11.765625 -100.40625 "/></g></g></g><g clip-path="url(#c83051c796)"><g clip-path="url(#b5b8de71da)"><path fill="url(#ed4e430ea0)" d="M 520.085938 7.625 L 520.085938 73.53125 L 585.910156 73.53125 L 585.910156 7.625 Z M 520.085938 7.625 " fill-rule="nonzero"/></g></g><g clip-path="url(#9adc3a3bd9)"><path fill="#a6a6a6" d="M 478.546875 10.878906 C 460.363281 10.878906 445.636719 25.605469 445.636719 43.789062 C 445.636719 58.355469 455.058594 70.65625 468.140625 75.015625 C 469.785156 75.304688 470.402344 74.316406 470.402344 73.453125 C 470.402344 72.671875 470.363281 70.078125 470.363281 67.324219 C 462.09375 68.84375 459.953125 65.308594 459.292969 63.457031 C 458.925781 62.507812 457.320312 59.589844 455.921875 58.808594 C 454.769531 58.191406 453.125 56.667969 455.878906 56.625 C 458.472656 56.585938 460.324219 59.011719 460.941406 60 C 463.902344 64.976562 468.632812 63.578125 470.527344 62.714844 C 470.8125 60.574219 471.679688 59.136719 472.625 58.3125 C 465.300781 57.492188 457.648438 54.652344 457.648438 42.0625 C 457.648438 38.484375 458.925781 35.519531 461.023438 33.21875 C 460.695312 32.394531 459.542969 29.019531 461.351562 24.496094 C 461.351562 24.496094 464.109375 23.632812 470.402344 27.871094 C 473.035156 27.128906 475.832031 26.757812 478.628906 26.757812 C 481.429688 26.757812 484.226562 27.128906 486.859375 27.871094 C 493.152344 23.589844 495.910156 24.496094 495.910156 24.496094 C 497.71875 29.019531 496.566406 32.394531 496.238281 33.21875 C 498.335938 35.519531 499.613281 38.441406 499.613281 42.0625 C 499.613281 54.691406 491.917969 57.492188 484.597656 58.3125 C 485.789062 59.339844 486.816406 61.316406 486.816406 64.402344 C 486.816406 68.804688 486.777344 72.34375 486.777344 73.453125 C 486.777344 74.316406 487.394531 75.34375 489.039062 75.015625 C 502.039062 70.65625 511.460938 58.3125 511.460938 43.789062 C 511.460938 25.605469 496.730469 10.878906 478.546875 10.878906 Z M 478.546875 10.878906 " fill-opacity="1" fill-rule="evenodd"/></g><g clip-path="url(#eab4f948d5)"><path fill="#e24329" d="M 586.847656 103.324219 L 586.75 103.078125 L 577.488281 78.804688 C 577.296875 78.316406 576.976562 77.929688 576.535156 77.648438 C 576.09375 77.375 575.613281 77.25 575.09375 77.277344 C 574.574219 77.308594 574.109375 77.480469 573.699219 77.804688 C 573.292969 78.132812 573.019531 78.550781 572.878906 79.054688 L 566.625 98.269531 L 541.296875 98.269531 L 535.042969 79.054688 C 534.90625 78.546875 534.628906 78.128906 534.222656 77.800781 C 533.8125 77.476562 533.347656 77.304688 532.828125 77.277344 C 532.308594 77.246094 531.828125 77.371094 531.386719 77.644531 C 530.945312 77.929688 530.628906 78.3125 530.433594 78.800781 L 521.152344 103.0625 L 521.058594 103.308594 C 520.730469 104.179688 520.46875 105.066406 520.28125 105.980469 C 520.09375 106.890625 519.980469 107.8125 519.941406 108.738281 C 519.898438 109.667969 519.933594 110.597656 520.042969 111.519531 C 520.152344 112.445312 520.335938 113.351562 520.589844 114.246094 C 520.847656 115.140625 521.171875 116.011719 521.566406 116.851562 C 521.964844 117.691406 522.421875 118.496094 522.949219 119.265625 C 523.472656 120.03125 524.054688 120.75 524.695312 121.421875 C 525.335938 122.09375 526.027344 122.710938 526.765625 123.273438 L 526.796875 123.296875 L 526.882812 123.355469 L 540.992188 133.96875 L 547.972656 139.273438 L 552.226562 142.496094 C 552.476562 142.6875 552.746094 142.832031 553.042969 142.933594 C 553.339844 143.03125 553.644531 143.082031 553.957031 143.082031 C 554.269531 143.082031 554.570312 143.03125 554.867188 142.933594 C 555.164062 142.832031 555.4375 142.6875 555.683594 142.496094 L 559.9375 139.273438 L 566.917969 133.96875 L 581.113281 123.292969 L 581.148438 123.265625 C 581.886719 122.703125 582.574219 122.089844 583.214844 121.414062 C 583.851562 120.742188 584.433594 120.023438 584.957031 119.257812 C 585.480469 118.492188 585.941406 117.6875 586.335938 116.847656 C 586.730469 116.007812 587.054688 115.140625 587.308594 114.25 C 587.566406 113.355469 587.746094 112.449219 587.855469 111.523438 C 587.964844 110.601562 588 109.675781 587.960938 108.75 C 587.921875 107.820312 587.808594 106.902344 587.621094 105.992188 C 587.433594 105.082031 587.175781 104.191406 586.847656 103.324219 Z M 586.847656 103.324219 " fill-opacity="1" fill-rule="nonzero"/></g><g clip-path="url(#c38a304fc1)"><path fill="#fc6d26" d="M 586.847656 103.324219 L 586.75 103.078125 C 582.183594 104.019531 578.03125 105.894531 574.296875 108.699219 L 553.953125 124.148438 C 560.878906 129.410156 566.910156 133.980469 566.910156 133.980469 L 581.105469 123.308594 L 581.140625 123.277344 C 581.878906 122.71875 582.570312 122.101562 583.210938 121.429688 C 583.851562 120.757812 584.433594 120.039062 584.957031 119.273438 C 585.480469 118.503906 585.941406 117.699219 586.335938 116.859375 C 586.730469 116.019531 587.054688 115.152344 587.3125 114.257812 C 587.566406 113.363281 587.75 112.453125 587.859375 111.53125 C 587.96875 110.609375 588.003906 109.683594 587.964844 108.753906 C 587.925781 107.824219 587.8125 106.902344 587.625 105.992188 C 587.4375 105.082031 587.175781 104.191406 586.847656 103.324219 Z M 586.847656 103.324219 " fill-opacity="1" fill-rule="nonzero"/></g><g clip-path="url(#2d63139e1a)"><path fill="#fca326" d="M 540.992188 133.980469 L 547.972656 139.289062 L 552.226562 142.511719 C 552.476562 142.703125 552.746094 142.847656 553.042969 142.945312 C 553.339844 143.046875 553.644531 143.097656 553.957031 143.097656 C 554.269531 143.097656 554.570312 143.046875 554.867188 142.945312 C 555.164062 142.847656 555.4375 142.703125 555.683594 142.511719 L 559.9375 139.289062 L 566.917969 133.980469 C 566.917969 133.980469 560.878906 129.394531 553.953125 124.148438 C 547.023438 129.394531 540.992188 133.980469 540.992188 133.980469 Z M 540.992188 133.980469 " fill-opacity="1" fill-rule="nonzero"/></g><g clip-path="url(#2fd1c87c3d)"><path fill="#fc6d26" d="M 533.605469 108.699219 C 529.875 105.886719 525.722656 104.007812 521.152344 103.0625 L 521.058594 103.308594 C 520.730469 104.179688 520.46875 105.066406 520.28125 105.980469 C 520.09375 106.890625 519.980469 107.8125 519.941406 108.738281 C 519.898438 109.667969 519.933594 110.597656 520.042969 111.519531 C 520.152344 112.445312 520.335938 113.351562 520.589844 114.246094 C 520.847656 115.140625 521.171875 116.011719 521.566406 116.851562 C 521.964844 117.691406 522.421875 118.496094 522.949219 119.265625 C 523.472656 120.03125 524.054688 120.75 524.695312 121.421875 C 525.335938 122.09375 526.027344 122.710938 526.765625 123.273438 L 526.796875 123.296875 L 526.882812 123.355469 L 540.992188 133.96875 C 540.992188 133.96875 547.015625 129.394531 553.953125 124.132812 Z M 533.605469 108.699219 " fill-opacity="1" fill-rule="nonzero"/></g><g clip-path="url(#42f6b8dda8)"><path fill="#2684ff" d="M 447.746094 80.574219 C 447.433594 80.570312 447.136719 80.628906 446.851562 80.757812 C 446.566406 80.886719 446.324219 81.066406 446.121094 81.304688 C 445.917969 81.539062 445.773438 81.808594 445.6875 82.109375 C 445.605469 82.40625 445.585938 82.710938 445.636719 83.019531 L 454.589844 137.371094 C 454.644531 137.703125 454.753906 138.015625 454.921875 138.308594 C 455.089844 138.601562 455.300781 138.859375 455.554688 139.078125 C 455.8125 139.296875 456.097656 139.464844 456.414062 139.582031 C 456.730469 139.699219 457.058594 139.761719 457.394531 139.765625 L 500.34375 139.765625 C 500.597656 139.765625 500.84375 139.726562 501.082031 139.640625 C 501.320312 139.554688 501.535156 139.433594 501.730469 139.269531 C 501.921875 139.105469 502.082031 138.917969 502.207031 138.695312 C 502.332031 138.476562 502.414062 138.242188 502.453125 137.992188 L 511.40625 83.03125 C 511.457031 82.722656 511.441406 82.417969 511.355469 82.117188 C 511.269531 81.820312 511.125 81.550781 510.921875 81.316406 C 510.71875 81.078125 510.476562 80.898438 510.191406 80.769531 C 509.90625 80.640625 509.609375 80.578125 509.296875 80.582031 Z M 485.445312 119.855469 L 471.734375 119.855469 L 468.023438 100.460938 L 488.765625 100.460938 Z M 485.445312 119.855469 " fill-opacity="1" fill-rule="nonzero"/></g><g clip-path="url(#70a9aada98)"><g clip-path="url(#b71d75f553)"><path fill="url(#9aea958b1d)" d="M 455.546875 100.460938 L 455.546875 139.765625 L 508.558594 139.765625 L 508.558594 100.460938 Z M 455.546875 100.460938 " fill-rule="nonzero"/></g></g><g fill="#f05133" fill-opacity="1"><g transform="translate(186.562447, 26.550109)"><g><path d="M 12.25 -2.046875 L 12.25 0 L 2.09375 0 L 2.09375 -16.875 L 4.453125 -16.875 L 4.453125 -2.046875 Z M 12.25 -2.046875 "/></g></g></g><g fill="#f05133" fill-opacity="1"><g transform="translate(199.192143, 26.550109)"><g><path d="M 13.359375 0 C 13.085938 -0.726562 12.828125 -1.445312 12.578125 -2.15625 C 12.335938 -2.863281 12.085938 -3.582031 11.828125 -4.3125 L 4.1875 -4.3125 L 2.65625 0 L 0.1875 0 C 0.84375 -1.78125 1.453125 -3.429688 2.015625 -4.953125 C 2.585938 -6.472656 3.144531 -7.910156 3.6875 -9.265625 C 4.226562 -10.628906 4.765625 -11.929688 5.296875 -13.171875 C 5.835938 -14.421875 6.398438 -15.65625 6.984375 -16.875 L 9.15625 -16.875 C 9.738281 -15.65625 10.296875 -14.421875 10.828125 -13.171875 C 11.367188 -11.929688 11.910156 -10.628906 12.453125 -9.265625 C 12.992188 -7.910156 13.546875 -6.472656 14.109375 -4.953125 C 14.679688 -3.429688 15.289062 -1.78125 15.9375 0 Z M 11.15625 -6.25 C 10.632812 -7.664062 10.117188 -9.035156 9.609375 -10.359375 C 9.097656 -11.679688 8.566406 -12.953125 8.015625 -14.171875 C 7.441406 -12.953125 6.898438 -11.679688 6.390625 -10.359375 C 5.878906 -9.035156 5.375 -7.664062 4.875 -6.25 Z M 11.15625 -6.25 "/></g></g></g><g fill="#f05133" fill-opacity="1"><g transform="translate(215.326031, 26.550109)"><g><path d="M 6.640625 0.140625 C 6.304688 0.140625 5.9375 0.128906 5.53125 0.109375 C 5.132812 0.0976562 4.738281 0.078125 4.34375 0.046875 C 3.945312 0.015625 3.550781 -0.0195312 3.15625 -0.0625 C 2.769531 -0.113281 2.414062 -0.179688 2.09375 -0.265625 L 2.09375 -16.625 C 2.414062 -16.707031 2.769531 -16.769531 3.15625 -16.8125 C 3.550781 -16.863281 3.945312 -16.90625 4.34375 -16.9375 C 4.738281 -16.96875 5.128906 -16.992188 5.515625 -17.015625 C 5.910156 -17.035156 6.28125 -17.046875 6.625 -17.046875 C 7.59375 -17.046875 8.503906 -16.972656 9.359375 -16.828125 C 10.210938 -16.679688 10.953125 -16.429688 11.578125 -16.078125 C 12.203125 -15.734375 12.691406 -15.273438 13.046875 -14.703125 C 13.398438 -14.140625 13.578125 -13.441406 13.578125 -12.609375 C 13.578125 -11.679688 13.359375 -10.921875 12.921875 -10.328125 C 12.484375 -9.742188 11.898438 -9.300781 11.171875 -9 C 12.160156 -8.707031 12.945312 -8.242188 13.53125 -7.609375 C 14.113281 -6.984375 14.40625 -6.09375 14.40625 -4.9375 C 14.40625 -3.25 13.785156 -1.976562 12.546875 -1.125 C 11.304688 -0.28125 9.335938 0.140625 6.640625 0.140625 Z M 4.4375 -7.859375 L 4.4375 -1.921875 C 4.613281 -1.910156 4.820312 -1.894531 5.0625 -1.875 C 5.269531 -1.851562 5.515625 -1.835938 5.796875 -1.828125 C 6.085938 -1.828125 6.421875 -1.828125 6.796875 -1.828125 C 7.492188 -1.828125 8.15625 -1.867188 8.78125 -1.953125 C 9.40625 -2.046875 9.953125 -2.207031 10.421875 -2.4375 C 10.890625 -2.664062 11.265625 -2.984375 11.546875 -3.390625 C 11.835938 -3.796875 11.984375 -4.304688 11.984375 -4.921875 C 11.984375 -5.472656 11.875 -5.9375 11.65625 -6.3125 C 11.445312 -6.695312 11.144531 -7.003906 10.75 -7.234375 C 10.351562 -7.460938 9.878906 -7.625 9.328125 -7.71875 C 8.773438 -7.8125 8.15625 -7.859375 7.46875 -7.859375 Z M 4.4375 -9.765625 L 6.90625 -9.765625 C 7.5 -9.765625 8.050781 -9.800781 8.5625 -9.875 C 9.082031 -9.957031 9.53125 -10.101562 9.90625 -10.3125 C 10.289062 -10.53125 10.59375 -10.804688 10.8125 -11.140625 C 11.039062 -11.484375 11.15625 -11.914062 11.15625 -12.4375 C 11.15625 -12.925781 11.039062 -13.335938 10.8125 -13.671875 C 10.582031 -14.003906 10.269531 -14.269531 9.875 -14.46875 C 9.476562 -14.675781 9.007812 -14.828125 8.46875 -14.921875 C 7.9375 -15.015625 7.367188 -15.0625 6.765625 -15.0625 C 6.160156 -15.0625 5.6875 -15.050781 5.34375 -15.03125 C 5.007812 -15.019531 4.707031 -15 4.4375 -14.96875 Z M 4.4375 -9.765625 "/></g></g></g><g fill="#f05133" fill-opacity="1"><g transform="translate(230.973222, 26.550109)"><g><path d="M 1.21875 -8.453125 C 1.21875 -11.273438 1.71875 -13.445312 2.71875 -14.96875 C 3.71875 -16.5 5.097656 -17.265625 6.859375 -17.265625 C 8.628906 -17.265625 10.015625 -16.5 11.015625 -14.96875 C 12.015625 -13.445312 12.515625 -11.273438 12.515625 -8.453125 C 12.515625 -5.628906 12.015625 -3.453125 11.015625 -1.921875 C 10.015625 -0.398438 8.628906 0.359375 6.859375 0.359375 C 5.097656 0.359375 3.71875 -0.398438 2.71875 -1.921875 C 1.71875 -3.453125 1.21875 -5.628906 1.21875 -8.453125 Z M 10.125 -8.453125 C 10.125 -9.367188 10.070312 -10.238281 9.96875 -11.0625 C 9.863281 -11.894531 9.6875 -12.617188 9.4375 -13.234375 C 9.1875 -13.859375 8.847656 -14.351562 8.421875 -14.71875 C 8.003906 -15.082031 7.484375 -15.265625 6.859375 -15.265625 C 6.242188 -15.265625 5.722656 -15.082031 5.296875 -14.71875 C 4.878906 -14.351562 4.546875 -13.859375 4.296875 -13.234375 C 4.046875 -12.617188 3.867188 -11.894531 3.765625 -11.0625 C 3.660156 -10.238281 3.609375 -9.367188 3.609375 -8.453125 C 3.609375 -7.523438 3.660156 -6.644531 3.765625 -5.8125 C 3.867188 -4.988281 4.046875 -4.265625 4.296875 -3.640625 C 4.546875 -3.023438 4.878906 -2.535156 5.296875 -2.171875 C 5.722656 -1.804688 6.242188 -1.625 6.859375 -1.625 C 7.484375 -1.625 8.003906 -1.804688 8.421875 -2.171875 C 8.847656 -2.535156 9.1875 -3.023438 9.4375 -3.640625 C 9.6875 -4.265625 9.863281 -4.988281 9.96875 -5.8125 C 10.070312 -6.644531 10.125 -7.523438 10.125 -8.453125 Z M 10.125 -8.453125 "/></g></g></g><g fill="#f05133" fill-opacity="1"><g transform="translate(244.697975, 26.550109)"><g><path d="M 2.265625 -13.390625 C 3.191406 -13.742188 4.09375 -14.203125 4.96875 -14.765625 C 5.84375 -15.328125 6.644531 -16.03125 7.375 -16.875 L 8.984375 -16.875 L 8.984375 0 L 6.71875 0 L 6.71875 -13.734375 C 6.519531 -13.554688 6.28125 -13.367188 6 -13.171875 C 5.71875 -12.972656 5.410156 -12.785156 5.078125 -12.609375 C 4.742188 -12.429688 4.394531 -12.257812 4.03125 -12.09375 C 3.664062 -11.9375 3.3125 -11.800781 2.96875 -11.6875 Z M 2.265625 -13.390625 "/></g></g></g><g fill="#f05133" fill-opacity="1"><g transform="translate(186.562447, 172.900613)"><g><path d="M 0.8125 -18.515625 L 5.84375 -18.515625 C 7.1875 -18.515625 8.164062 -18.179688 8.78125 -17.515625 C 9.394531 -16.859375 9.703125 -15.78125 9.703125 -14.28125 L 9.703125 -13.46875 C 9.703125 -11.695312 9.066406 -10.640625 7.796875 -10.296875 C 8.578125 -10.097656 9.125 -9.628906 9.4375 -8.890625 C 9.75 -8.160156 9.90625 -7.191406 9.90625 -5.984375 C 9.90625 -4.015625 9.609375 -2.523438 9.015625 -1.515625 C 8.429688 -0.503906 7.375 0 5.84375 0 L 0.8125 0 Z M 5.1875 -11.546875 C 5.507812 -11.546875 5.726562 -11.664062 5.84375 -11.90625 C 5.957031 -12.144531 6.015625 -12.476562 6.015625 -12.90625 L 6.015625 -14.765625 C 6.015625 -15.367188 5.75 -15.671875 5.21875 -15.671875 L 4.4375 -15.671875 L 4.4375 -11.546875 Z M 4.8125 -3.25 C 5.769531 -3.25 6.25 -3.707031 6.25 -4.625 L 6.25 -6.9375 C 6.25 -7.5 6.164062 -7.921875 6 -8.203125 C 5.832031 -8.492188 5.539062 -8.640625 5.125 -8.640625 L 4.4375 -8.640625 L 4.4375 -3.28125 Z M 4.8125 -3.25 "/></g></g></g><g fill="#f05133" fill-opacity="1"><g transform="translate(196.880219, 172.900613)"><g><path d="M 0.8125 -18.515625 L 6.5 -18.515625 C 7.40625 -18.515625 8.101562 -18.304688 8.59375 -17.890625 C 9.09375 -17.484375 9.429688 -16.910156 9.609375 -16.171875 C 9.785156 -15.429688 9.875 -14.488281 9.875 -13.34375 C 9.875 -12.289062 9.734375 -11.46875 9.453125 -10.875 C 9.179688 -10.289062 8.707031 -9.882812 8.03125 -9.65625 C 8.59375 -9.539062 9 -9.257812 9.25 -8.8125 C 9.5 -8.363281 9.625 -7.757812 9.625 -7 L 9.59375 0 L 5.96875 0 L 5.96875 -7.234375 C 5.96875 -7.753906 5.863281 -8.085938 5.65625 -8.234375 C 5.457031 -8.378906 5.09375 -8.453125 4.5625 -8.453125 L 4.5625 0 L 0.8125 0 Z M 5.46875 -11.65625 C 5.988281 -11.65625 6.25 -12.21875 6.25 -13.34375 C 6.25 -13.820312 6.226562 -14.179688 6.1875 -14.421875 C 6.144531 -14.671875 6.066406 -14.84375 5.953125 -14.9375 C 5.835938 -15.03125 5.671875 -15.078125 5.453125 -15.078125 L 4.59375 -15.078125 L 4.59375 -11.65625 Z M 5.46875 -11.65625 "/></g></g></g><g fill="#f05133" fill-opacity="1"><g transform="translate(207.154917, 172.900613)"><g><path d="M 0.328125 0 L 2.109375 -18.515625 L 8.375 -18.515625 L 10.15625 0 L 6.640625 0 L 6.375 -3 L 4.140625 -3 L 3.921875 0 Z M 4.421875 -5.953125 L 6.09375 -5.953125 L 5.28125 -15.359375 L 5.109375 -15.359375 Z M 4.421875 -5.953125 "/></g></g></g><g fill="#f05133" fill-opacity="1"><g transform="translate(217.601938, 172.900613)"><g><path d="M 0.8125 0 L 0.8125 -18.515625 L 4.625 -18.515625 L 6.328125 -9.65625 L 6.328125 -18.515625 L 9.90625 -18.515625 L 9.90625 0 L 6.296875 0 L 4.4375 -9.265625 L 4.4375 0 Z M 0.8125 0 "/></g></g></g><g fill="#f05133" fill-opacity="1"><g transform="translate(228.328981, 172.900613)"><g><path d="M 5.125 0.171875 C 3.78125 0.171875 2.703125 -0.25 1.890625 -1.09375 C 1.078125 -1.945312 0.671875 -3.113281 0.671875 -4.59375 L 0.671875 -13.125 C 0.671875 -14.957031 1.035156 -16.34375 1.765625 -17.28125 C 2.492188 -18.21875 3.644531 -18.6875 5.21875 -18.6875 C 6.582031 -18.6875 7.679688 -18.3125 8.515625 -17.5625 C 9.347656 -16.8125 9.765625 -15.734375 9.765625 -14.328125 L 9.765625 -11.140625 L 6.078125 -11.140625 L 6.078125 -13.875 C 6.078125 -14.40625 6.007812 -14.769531 5.875 -14.96875 C 5.75 -15.175781 5.53125 -15.28125 5.21875 -15.28125 C 4.882812 -15.28125 4.65625 -15.164062 4.53125 -14.9375 C 4.414062 -14.707031 4.359375 -14.367188 4.359375 -13.921875 L 4.359375 -4.625 C 4.359375 -4.144531 4.425781 -3.789062 4.5625 -3.5625 C 4.707031 -3.34375 4.925781 -3.234375 5.21875 -3.234375 C 5.789062 -3.234375 6.078125 -3.695312 6.078125 -4.625 L 6.078125 -7.96875 L 9.796875 -7.96875 L 9.796875 -4.484375 C 9.796875 -1.378906 8.238281 0.171875 5.125 0.171875 Z M 5.125 0.171875 "/></g></g></g><g fill="#f05133" fill-opacity="1"><g transform="translate(238.539054, 172.900613)"><g><path d="M 0.8125 0 L 0.8125 -18.515625 L 4.5 -18.515625 L 4.5 -11.890625 L 6.25 -11.890625 L 6.25 -18.515625 L 9.9375 -18.515625 L 9.9375 0 L 6.25 0 L 6.25 -8.40625 L 4.5 -8.40625 L 4.5 0 Z M 0.8125 0 "/></g></g></g><g fill="#f05133" fill-opacity="1"><g transform="translate(249.287635, 172.900613)"><g/></g></g><g fill="#f05133" fill-opacity="1"><g transform="translate(254.328053, 172.900613)"><g><path d="M 3.796875 -4.25 C 2.753906 -4.25 1.941406 -4.570312 1.359375 -5.21875 C 0.785156 -5.863281 0.5 -6.722656 0.5 -7.796875 C 0.5 -8.878906 0.785156 -9.742188 1.359375 -10.390625 C 1.941406 -11.035156 2.753906 -11.359375 3.796875 -11.359375 C 4.828125 -11.359375 5.632812 -11.035156 6.21875 -10.390625 C 6.800781 -9.742188 7.09375 -8.878906 7.09375 -7.796875 C 7.09375 -6.722656 6.800781 -5.863281 6.21875 -5.21875 C 5.632812 -4.570312 4.828125 -4.25 3.796875 -4.25 Z M 3.796875 -4.25 "/></g></g></g><g fill="#f05133" fill-opacity="1"><g transform="translate(261.910224, 172.900613)"><g/></g></g><g fill="#f05133" fill-opacity="1"><g transform="translate(266.950642, 172.900613)"><g><path d="M 0.8125 -18.515625 L 5.703125 -18.515625 C 7.179688 -18.515625 8.238281 -18.035156 8.875 -17.078125 C 9.507812 -16.117188 9.828125 -14.722656 9.828125 -12.890625 C 9.828125 -11.046875 9.546875 -9.65625 8.984375 -8.71875 C 8.421875 -7.789062 7.414062 -7.328125 5.96875 -7.328125 L 4.453125 -7.328125 L 4.453125 0 L 0.8125 0 Z M 4.671875 -10.671875 C 5.117188 -10.671875 5.445312 -10.75 5.65625 -10.90625 C 5.863281 -11.070312 6 -11.3125 6.0625 -11.625 C 6.125 -11.9375 6.15625 -12.378906 6.15625 -12.953125 C 6.15625 -13.722656 6.066406 -14.28125 5.890625 -14.625 C 5.722656 -14.96875 5.382812 -15.140625 4.875 -15.140625 L 4.453125 -15.140625 L 4.453125 -10.671875 Z M 4.671875 -10.671875 "/></g></g></g><g fill="#f05133" fill-opacity="1"><g transform="translate(277.11764, 172.900613)"><g><path d="M 5.109375 0.171875 C 3.585938 0.171875 2.457031 -0.253906 1.71875 -1.109375 C 0.976562 -1.972656 0.609375 -3.253906 0.609375 -4.953125 L 0.609375 -18.515625 L 4.203125 -18.515625 L 4.203125 -5.109375 C 4.203125 -4.515625 4.257812 -4.050781 4.375 -3.71875 C 4.488281 -3.394531 4.734375 -3.234375 5.109375 -3.234375 C 5.484375 -3.234375 5.726562 -3.394531 5.84375 -3.71875 C 5.957031 -4.039062 6.015625 -4.503906 6.015625 -5.109375 L 6.015625 -18.515625 L 9.609375 -18.515625 L 9.609375 -4.953125 C 9.609375 -3.253906 9.238281 -1.972656 8.5 -1.109375 C 7.757812 -0.253906 6.628906 0.171875 5.109375 0.171875 Z M 5.109375 0.171875 "/></g></g></g><g fill="#f05133" fill-opacity="1"><g transform="translate(287.327714, 172.900613)"><g><path d="M 0.8125 0 L 0.8125 -18.515625 L 4.53125 -18.515625 L 4.53125 -3.140625 L 8.34375 -3.140625 L 8.34375 0 Z M 0.8125 0 "/></g></g></g><g fill="#f05133" fill-opacity="1"><g transform="translate(295.879189, 172.900613)"><g><path d="M 0.8125 0 L 0.8125 -18.515625 L 4.53125 -18.515625 L 4.53125 -3.140625 L 8.34375 -3.140625 L 8.34375 0 Z M 0.8125 0 "/></g></g></g><g fill="#f05133" fill-opacity="1"><g transform="translate(304.430664, 172.900613)"><g/></g></g><g fill="#f05133" fill-opacity="1"><g transform="translate(309.471082, 172.900613)"><g><path d="M 3.796875 -4.25 C 2.753906 -4.25 1.941406 -4.570312 1.359375 -5.21875 C 0.785156 -5.863281 0.5 -6.722656 0.5 -7.796875 C 0.5 -8.878906 0.785156 -9.742188 1.359375 -10.390625 C 1.941406 -11.035156 2.753906 -11.359375 3.796875 -11.359375 C 4.828125 -11.359375 5.632812 -11.035156 6.21875 -10.390625 C 6.800781 -9.742188 7.09375 -8.878906 7.09375 -7.796875 C 7.09375 -6.722656 6.800781 -5.863281 6.21875 -5.21875 C 5.632812 -4.570312 4.828125 -4.25 3.796875 -4.25 Z M 3.796875 -4.25 "/></g></g></g><g fill="#f05133" fill-opacity="1"><g transform="translate(317.053253, 172.900613)"><g/></g></g><g fill="#f05133" fill-opacity="1"><g transform="translate(322.093671, 172.900613)"><g><path d="M 0.328125 0 L 2.109375 -18.515625 L 8.375 -18.515625 L 10.15625 0 L 6.640625 0 L 6.375 -3 L 4.140625 -3 L 3.921875 0 Z M 4.421875 -5.953125 L 6.09375 -5.953125 L 5.28125 -15.359375 L 5.109375 -15.359375 Z M 4.421875 -5.953125 "/></g></g></g><g fill="#f05133" fill-opacity="1"><g transform="translate(332.540692, 172.900613)"><g><path d="M 0.8125 -18.515625 L 5.921875 -18.515625 C 7.242188 -18.515625 8.234375 -18.144531 8.890625 -17.40625 C 9.554688 -16.675781 9.894531 -15.59375 9.90625 -14.15625 L 9.953125 -5.5 C 9.960938 -3.675781 9.644531 -2.300781 9 -1.375 C 8.351562 -0.457031 7.285156 0 5.796875 0 L 0.8125 0 Z M 5.1875 -3.28125 C 5.863281 -3.28125 6.203125 -3.609375 6.203125 -4.265625 L 6.203125 -13.8125 C 6.203125 -14.226562 6.171875 -14.539062 6.109375 -14.75 C 6.046875 -14.957031 5.925781 -15.097656 5.75 -15.171875 C 5.582031 -15.242188 5.316406 -15.28125 4.953125 -15.28125 L 4.546875 -15.28125 L 4.546875 -3.28125 Z M 5.1875 -3.28125 "/></g></g></g><g fill="#f05133" fill-opacity="1"><g transform="translate(343.160036, 172.900613)"><g><path d="M 0.8125 -18.515625 L 5.921875 -18.515625 C 7.242188 -18.515625 8.234375 -18.144531 8.890625 -17.40625 C 9.554688 -16.675781 9.894531 -15.59375 9.90625 -14.15625 L 9.953125 -5.5 C 9.960938 -3.675781 9.644531 -2.300781 9 -1.375 C 8.351562 -0.457031 7.285156 0 5.796875 0 L 0.8125 0 Z M 5.1875 -3.28125 C 5.863281 -3.28125 6.203125 -3.609375 6.203125 -4.265625 L 6.203125 -13.8125 C 6.203125 -14.226562 6.171875 -14.539062 6.109375 -14.75 C 6.046875 -14.957031 5.925781 -15.097656 5.75 -15.171875 C 5.582031 -15.242188 5.316406 -15.28125 4.953125 -15.28125 L 4.546875 -15.28125 L 4.546875 -3.28125 Z M 5.1875 -3.28125 "/></g></g></g><g fill="#f05133" fill-opacity="1"><g transform="translate(353.77938, 172.900613)"><g/></g></g><g fill="#f05133" fill-opacity="1"><g transform="translate(358.819799, 172.900613)"><g><path d="M 3.796875 -4.25 C 2.753906 -4.25 1.941406 -4.570312 1.359375 -5.21875 C 0.785156 -5.863281 0.5 -6.722656 0.5 -7.796875 C 0.5 -8.878906 0.785156 -9.742188 1.359375 -10.390625 C 1.941406 -11.035156 2.753906 -11.359375 3.796875 -11.359375 C 4.828125 -11.359375 5.632812 -11.035156 6.21875 -10.390625 C 6.800781 -9.742188 7.09375 -8.878906 7.09375 -7.796875 C 7.09375 -6.722656 6.800781 -5.863281 6.21875 -5.21875 C 5.632812 -4.570312 4.828125 -4.25 3.796875 -4.25 Z M 3.796875 -4.25 "/></g></g></g><g fill="#f05133" fill-opacity="1"><g transform="translate(366.401969, 172.900613)"><g/></g></g><g fill="#f05133" fill-opacity="1"><g transform="translate(371.442387, 172.900613)"><g><path d="M 5.125 0.171875 C 3.78125 0.171875 2.703125 -0.25 1.890625 -1.09375 C 1.078125 -1.945312 0.671875 -3.113281 0.671875 -4.59375 L 0.671875 -13.125 C 0.671875 -14.957031 1.035156 -16.34375 1.765625 -17.28125 C 2.492188 -18.21875 3.644531 -18.6875 5.21875 -18.6875 C 6.582031 -18.6875 7.679688 -18.3125 8.515625 -17.5625 C 9.347656 -16.8125 9.765625 -15.734375 9.765625 -14.328125 L 9.765625 -11.140625 L 6.078125 -11.140625 L 6.078125 -13.875 C 6.078125 -14.40625 6.007812 -14.769531 5.875 -14.96875 C 5.75 -15.175781 5.53125 -15.28125 5.21875 -15.28125 C 4.882812 -15.28125 4.65625 -15.164062 4.53125 -14.9375 C 4.414062 -14.707031 4.359375 -14.367188 4.359375 -13.921875 L 4.359375 -4.625 C 4.359375 -4.144531 4.425781 -3.789062 4.5625 -3.5625 C 4.707031 -3.34375 4.925781 -3.234375 5.21875 -3.234375 C 5.789062 -3.234375 6.078125 -3.695312 6.078125 -4.625 L 6.078125 -7.96875 L 9.796875 -7.96875 L 9.796875 -4.484375 C 9.796875 -1.378906 8.238281 0.171875 5.125 0.171875 Z M 5.125 0.171875 "/></g></g></g><g fill="#f05133" fill-opacity="1"><g transform="translate(381.652461, 172.900613)"><g><path d="M 5.234375 0.171875 C 3.742188 0.171875 2.609375 -0.28125 1.828125 -1.1875 C 1.054688 -2.101562 0.671875 -3.390625 0.671875 -5.046875 L 0.671875 -13.859375 C 0.671875 -15.453125 1.054688 -16.65625 1.828125 -17.46875 C 2.609375 -18.28125 3.742188 -18.6875 5.234375 -18.6875 C 6.734375 -18.6875 7.867188 -18.28125 8.640625 -17.46875 C 9.410156 -16.65625 9.796875 -15.453125 9.796875 -13.859375 L 9.796875 -5.046875 C 9.796875 -3.378906 9.410156 -2.09375 8.640625 -1.1875 C 7.867188 -0.28125 6.734375 0.171875 5.234375 0.171875 Z M 5.234375 -3.234375 C 5.566406 -3.234375 5.789062 -3.375 5.90625 -3.65625 C 6.019531 -3.945312 6.078125 -4.351562 6.078125 -4.875 L 6.078125 -13.921875 C 6.078125 -14.316406 6.019531 -14.640625 5.90625 -14.890625 C 5.800781 -15.148438 5.582031 -15.28125 5.25 -15.28125 C 4.632812 -15.28125 4.328125 -14.8125 4.328125 -13.875 L 4.328125 -4.84375 C 4.328125 -4.3125 4.390625 -3.910156 4.515625 -3.640625 C 4.648438 -3.367188 4.890625 -3.234375 5.234375 -3.234375 Z M 5.234375 -3.234375 "/></g></g></g><g fill="#f05133" fill-opacity="1"><g transform="translate(392.121019, 172.900613)"><g><path d="M 0.8125 0 L 0.8125 -18.515625 L 6.46875 -18.515625 L 8.015625 -7.21875 L 9.5625 -18.515625 L 15.25 -18.515625 L 15.25 0 L 11.875 0 L 11.875 -13.34375 L 9.734375 0 L 6.421875 0 L 4.15625 -13.34375 L 4.15625 0 Z M 0.8125 0 "/></g></g></g><g fill="#f05133" fill-opacity="1"><g transform="translate(408.190052, 172.900613)"><g><path d="M 0.8125 0 L 0.8125 -18.515625 L 6.46875 -18.515625 L 8.015625 -7.21875 L 9.5625 -18.515625 L 15.25 -18.515625 L 15.25 0 L 11.875 0 L 11.875 -13.34375 L 9.734375 0 L 6.421875 0 L 4.15625 -13.34375 L 4.15625 0 Z M 0.8125 0 "/></g></g></g><g fill="#f05133" fill-opacity="1"><g transform="translate(424.259062, 172.900613)"><g><path d="M 0.640625 0 L 0.640625 -18.515625 L 4.21875 -18.515625 L 4.21875 0 Z M 0.640625 0 "/></g></g></g><g fill="#f05133" fill-opacity="1"><g transform="translate(429.148695, 172.900613)"><g><path d="M 2.40625 0 L 2.40625 -14.953125 L 0.21875 -14.953125 L 0.21875 -18.515625 L 8.3125 -18.515625 L 8.3125 -14.953125 L 6.125 -14.953125 L 6.125 0 Z M 2.40625 0 "/></g></g></g><g fill="#f05133" fill-opacity="1"><g transform="translate(437.678644, 172.900613)"><g/></g></g><g fill="#f05133" fill-opacity="1"><g transform="translate(442.719051, 172.900613)"><g><path d="M 3.796875 -4.25 C 2.753906 -4.25 1.941406 -4.570312 1.359375 -5.21875 C 0.785156 -5.863281 0.5 -6.722656 0.5 -7.796875 C 0.5 -8.878906 0.785156 -9.742188 1.359375 -10.390625 C 1.941406 -11.035156 2.753906 -11.359375 3.796875 -11.359375 C 4.828125 -11.359375 5.632812 -11.035156 6.21875 -10.390625 C 6.800781 -9.742188 7.09375 -8.878906 7.09375 -7.796875 C 7.09375 -6.722656 6.800781 -5.863281 6.21875 -5.21875 C 5.632812 -4.570312 4.828125 -4.25 3.796875 -4.25 Z M 3.796875 -4.25 "/></g></g></g><g fill="#f05133" fill-opacity="1"><g transform="translate(450.301233, 172.900613)"><g/></g></g><g fill="#f05133" fill-opacity="1"><g transform="translate(455.34164, 172.900613)"><g><path d="M 0.8125 -18.515625 L 5.703125 -18.515625 C 7.179688 -18.515625 8.238281 -18.035156 8.875 -17.078125 C 9.507812 -16.117188 9.828125 -14.722656 9.828125 -12.890625 C 9.828125 -11.046875 9.546875 -9.65625 8.984375 -8.71875 C 8.421875 -7.789062 7.414062 -7.328125 5.96875 -7.328125 L 4.453125 -7.328125 L 4.453125 0 L 0.8125 0 Z M 4.671875 -10.671875 C 5.117188 -10.671875 5.445312 -10.75 5.65625 -10.90625 C 5.863281 -11.070312 6 -11.3125 6.0625 -11.625 C 6.125 -11.9375 6.15625 -12.378906 6.15625 -12.953125 C 6.15625 -13.722656 6.066406 -14.28125 5.890625 -14.625 C 5.722656 -14.96875 5.382812 -15.140625 4.875 -15.140625 L 4.453125 -15.140625 L 4.453125 -10.671875 Z M 4.671875 -10.671875 "/></g></g></g><g fill="#f05133" fill-opacity="1"><g transform="translate(465.508649, 172.900613)"><g><path d="M 5.109375 0.171875 C 3.585938 0.171875 2.457031 -0.253906 1.71875 -1.109375 C 0.976562 -1.972656 0.609375 -3.253906 0.609375 -4.953125 L 0.609375 -18.515625 L 4.203125 -18.515625 L 4.203125 -5.109375 C 4.203125 -4.515625 4.257812 -4.050781 4.375 -3.71875 C 4.488281 -3.394531 4.734375 -3.234375 5.109375 -3.234375 C 5.484375 -3.234375 5.726562 -3.394531 5.84375 -3.71875 C 5.957031 -4.039062 6.015625 -4.503906 6.015625 -5.109375 L 6.015625 -18.515625 L 9.609375 -18.515625 L 9.609375 -4.953125 C 9.609375 -3.253906 9.238281 -1.972656 8.5 -1.109375 C 7.757812 -0.253906 6.628906 0.171875 5.109375 0.171875 Z M 5.109375 0.171875 "/></g></g></g><g fill="#f05133" fill-opacity="1"><g transform="translate(475.718711, 172.900613)"><g><path d="M 5.21875 0.171875 C 3.53125 0.171875 2.3125 -0.242188 1.5625 -1.078125 C 0.820312 -1.910156 0.453125 -3.253906 0.453125 -5.109375 L 0.453125 -6.921875 L 4.09375 -6.921875 L 4.09375 -4.609375 C 4.09375 -3.691406 4.390625 -3.234375 4.984375 -3.234375 C 5.304688 -3.234375 5.53125 -3.328125 5.65625 -3.515625 C 5.789062 -3.710938 5.859375 -4.039062 5.859375 -4.5 C 5.859375 -5.101562 5.785156 -5.601562 5.640625 -6 C 5.503906 -6.394531 5.320312 -6.722656 5.09375 -6.984375 C 4.875 -7.253906 4.476562 -7.671875 3.90625 -8.234375 L 2.3125 -9.828125 C 1.070312 -11.035156 0.453125 -12.367188 0.453125 -13.828125 C 0.453125 -15.410156 0.8125 -16.613281 1.53125 -17.4375 C 2.257812 -18.269531 3.320312 -18.6875 4.71875 -18.6875 C 6.382812 -18.6875 7.582031 -18.242188 8.3125 -17.359375 C 9.050781 -16.472656 9.421875 -15.085938 9.421875 -13.203125 L 5.640625 -13.203125 L 5.625 -14.484375 C 5.625 -14.722656 5.554688 -14.914062 5.421875 -15.0625 C 5.285156 -15.207031 5.09375 -15.28125 4.84375 -15.28125 C 4.5625 -15.28125 4.347656 -15.195312 4.203125 -15.03125 C 4.054688 -14.875 3.984375 -14.660156 3.984375 -14.390625 C 3.984375 -13.785156 4.328125 -13.160156 5.015625 -12.515625 L 7.171875 -10.453125 C 7.671875 -9.960938 8.085938 -9.5 8.421875 -9.0625 C 8.753906 -8.625 9.019531 -8.101562 9.21875 -7.5 C 9.425781 -6.90625 9.53125 -6.203125 9.53125 -5.390625 C 9.53125 -3.566406 9.191406 -2.179688 8.515625 -1.234375 C 7.847656 -0.296875 6.75 0.171875 5.21875 0.171875 Z M 5.21875 0.171875 "/></g></g></g><g fill="#f05133" fill-opacity="1"><g transform="translate(485.648773, 172.900613)"><g><path d="M 0.8125 0 L 0.8125 -18.515625 L 4.5 -18.515625 L 4.5 -11.890625 L 6.25 -11.890625 L 6.25 -18.515625 L 9.9375 -18.515625 L 9.9375 0 L 6.25 0 L 6.25 -8.40625 L 4.5 -8.40625 L 4.5 0 Z M 0.8125 0 "/></g></g></g><g fill="#f05133" fill-opacity="1"><g transform="translate(496.397354, 172.900613)"><g/></g></g><g fill="#f05133" fill-opacity="1"><g transform="translate(501.437784, 172.900613)"><g><path d="M 3.796875 -4.25 C 2.753906 -4.25 1.941406 -4.570312 1.359375 -5.21875 C 0.785156 -5.863281 0.5 -6.722656 0.5 -7.796875 C 0.5 -8.878906 0.785156 -9.742188 1.359375 -10.390625 C 1.941406 -11.035156 2.753906 -11.359375 3.796875 -11.359375 C 4.828125 -11.359375 5.632812 -11.035156 6.21875 -10.390625 C 6.800781 -9.742188 7.09375 -8.878906 7.09375 -7.796875 C 7.09375 -6.722656 6.800781 -5.863281 6.21875 -5.21875 C 5.632812 -4.570312 4.828125 -4.25 3.796875 -4.25 Z M 3.796875 -4.25 "/></g></g></g><g fill="#f05133" fill-opacity="1"><g transform="translate(509.019966, 172.900613)"><g/></g></g><g fill="#f05133" fill-opacity="1"><g transform="translate(514.060373, 172.900613)"><g><path d="M 0.8125 0 L 0.8125 -18.515625 L 6.46875 -18.515625 L 8.015625 -7.21875 L 9.5625 -18.515625 L 15.25 -18.515625 L 15.25 0 L 11.875 0 L 11.875 -13.34375 L 9.734375 0 L 6.421875 0 L 4.15625 -13.34375 L 4.15625 0 Z M 0.8125 0 "/></g></g></g><g fill="#f05133" fill-opacity="1"><g transform="translate(530.129383, 172.900613)"><g><path d="M 0.8125 0 L 0.8125 -18.515625 L 8.234375 -18.515625 L 8.234375 -14.9375 L 4.59375 -14.9375 L 4.59375 -11.328125 L 8.078125 -11.328125 L 8.078125 -7.84375 L 4.59375 -7.84375 L 4.59375 -3.59375 L 8.46875 -3.59375 L 8.46875 0 Z M 0.8125 0 "/></g></g></g><g fill="#f05133" fill-opacity="1"><g transform="translate(539.003956, 172.900613)"><g><path d="M 0.8125 -18.515625 L 6.5 -18.515625 C 7.40625 -18.515625 8.101562 -18.304688 8.59375 -17.890625 C 9.09375 -17.484375 9.429688 -16.910156 9.609375 -16.171875 C 9.785156 -15.429688 9.875 -14.488281 9.875 -13.34375 C 9.875 -12.289062 9.734375 -11.46875 9.453125 -10.875 C 9.179688 -10.289062 8.707031 -9.882812 8.03125 -9.65625 C 8.59375 -9.539062 9 -9.257812 9.25 -8.8125 C 9.5 -8.363281 9.625 -7.757812 9.625 -7 L 9.59375 0 L 5.96875 0 L 5.96875 -7.234375 C 5.96875 -7.753906 5.863281 -8.085938 5.65625 -8.234375 C 5.457031 -8.378906 5.09375 -8.453125 4.5625 -8.453125 L 4.5625 0 L 0.8125 0 Z M 5.46875 -11.65625 C 5.988281 -11.65625 6.25 -12.21875 6.25 -13.34375 C 6.25 -13.820312 6.226562 -14.179688 6.1875 -14.421875 C 6.144531 -14.671875 6.066406 -14.84375 5.953125 -14.9375 C 5.835938 -15.03125 5.671875 -15.078125 5.453125 -15.078125 L 4.59375 -15.078125 L 4.59375 -11.65625 Z M 5.46875 -11.65625 "/></g></g></g><g fill="#f05133" fill-opacity="1"><g transform="translate(549.278665, 172.900613)"><g><path d="M 4.625 0.171875 C 3.289062 0.171875 2.296875 -0.296875 1.640625 -1.234375 C 0.992188 -2.179688 0.671875 -3.609375 0.671875 -5.515625 L 0.671875 -13.484375 C 0.671875 -15.191406 1.050781 -16.484375 1.8125 -17.359375 C 2.570312 -18.242188 3.707031 -18.6875 5.21875 -18.6875 C 6.4375 -18.6875 7.382812 -18.441406 8.0625 -17.953125 C 8.738281 -17.460938 9.203125 -16.75 9.453125 -15.8125 C 9.710938 -14.882812 9.84375 -13.6875 9.84375 -12.21875 L 6.234375 -12.21875 L 6.234375 -13.875 C 6.234375 -14.320312 6.171875 -14.664062 6.046875 -14.90625 C 5.921875 -15.15625 5.703125 -15.28125 5.390625 -15.28125 C 4.679688 -15.28125 4.328125 -14.816406 4.328125 -13.890625 L 4.328125 -4.9375 C 4.328125 -4.375 4.398438 -3.945312 4.546875 -3.65625 C 4.691406 -3.375 4.941406 -3.234375 5.296875 -3.234375 C 5.660156 -3.234375 5.910156 -3.375 6.046875 -3.65625 C 6.191406 -3.945312 6.265625 -4.375 6.265625 -4.9375 L 6.265625 -7.578125 L 5.28125 -7.578125 L 5.28125 -10.765625 L 9.796875 -10.765625 L 9.796875 0 L 8.3125 0 L 7.6875 -1.546875 C 7.03125 -0.398438 6.007812 0.171875 4.625 0.171875 Z M 4.625 0.171875 "/></g></g></g><g fill="#f05133" fill-opacity="1"><g transform="translate(559.725674, 172.900613)"><g><path d="M 0.8125 0 L 0.8125 -18.515625 L 8.234375 -18.515625 L 8.234375 -14.9375 L 4.59375 -14.9375 L 4.59375 -11.328125 L 8.078125 -11.328125 L 8.078125 -7.84375 L 4.59375 -7.84375 L 4.59375 -3.59375 L 8.46875 -3.59375 L 8.46875 0 Z M 0.8125 0 "/></g></g></g></svg>