<svg xmlns="http://www.w3.org/2000/svg" xmlns:xlink="http://www.w3.org/1999/xlink" width="600" zoomAndPan="magnify" viewBox="0 0 450 119.999999" height="160" preserveAspectRatio="xMidYMid meet" version="1.0"><defs><g/><clipPath id="a3c8bfa192"><path d="M 6 12 L 112 12 L 112 113.871094 L 6 113.871094 Z M 6 12 " clip-rule="nonzero"/></clipPath><clipPath id="983448f11f"><path d="M 5 12 L 113 12 L 113 113.871094 L 5 113.871094 Z M 5 12 " clip-rule="nonzero"/></clipPath><clipPath id="1a88e24229"><path d="M 45 5.871094 L 74 5.871094 L 74 38 L 45 38 Z M 45 5.871094 " clip-rule="nonzero"/></clipPath><clipPath id="982ea6ba63"><path d="M 34 89 L 84 89 L 84 113.871094 L 34 113.871094 Z M 34 89 " clip-rule="nonzero"/></clipPath><clipPath id="2ec197ab22"><path d="M 33 89 L 85 89 L 85 113.871094 L 33 113.871094 Z M 33 89 " clip-rule="nonzero"/></clipPath></defs><path fill="#ffea92" d="M 109.269531 60.707031 C 109.269531 62.339844 109.1875 63.964844 109.027344 65.589844 C 108.867188 67.214844 108.628906 68.824219 108.308594 70.425781 C 107.988281 72.027344 107.59375 73.605469 107.117188 75.167969 C 106.640625 76.730469 106.09375 78.265625 105.464844 79.773438 C 104.839844 81.28125 104.140625 82.753906 103.371094 84.191406 C 102.601562 85.632812 101.761719 87.027344 100.851562 88.386719 C 99.941406 89.742188 98.96875 91.050781 97.933594 92.3125 C 96.894531 93.574219 95.796875 94.78125 94.640625 95.933594 C 93.484375 97.089844 92.273438 98.183594 91.011719 99.21875 C 89.746094 100.253906 88.433594 101.222656 87.074219 102.132812 C 85.714844 103.039062 84.3125 103.875 82.871094 104.644531 C 81.429688 105.414062 79.953125 106.109375 78.441406 106.734375 C 76.929688 107.359375 75.390625 107.910156 73.828125 108.382812 C 72.261719 108.855469 70.675781 109.25 69.074219 109.570312 C 67.46875 109.886719 65.851562 110.128906 64.226562 110.289062 C 62.597656 110.449219 60.964844 110.527344 59.332031 110.527344 C 57.695312 110.527344 56.0625 110.449219 54.4375 110.289062 C 52.808594 110.128906 51.191406 109.886719 49.589844 109.570312 C 47.984375 109.25 46.398438 108.855469 44.835938 108.382812 C 43.269531 107.910156 41.730469 107.359375 40.21875 106.734375 C 38.710938 106.109375 37.234375 105.414062 35.789062 104.644531 C 34.347656 103.875 32.945312 103.039062 31.585938 102.132812 C 30.226562 101.222656 28.914062 100.253906 27.652344 99.21875 C 26.386719 98.183594 25.175781 97.089844 24.019531 95.933594 C 22.863281 94.78125 21.765625 93.574219 20.726562 92.3125 C 19.691406 91.050781 18.71875 89.742188 17.808594 88.386719 C 16.898438 87.027344 16.0625 85.632812 15.289062 84.191406 C 14.519531 82.753906 13.820312 81.28125 13.195312 79.773438 C 12.570312 78.265625 12.019531 76.730469 11.542969 75.167969 C 11.070312 73.605469 10.671875 72.027344 10.351562 70.425781 C 10.035156 68.824219 9.792969 67.214844 9.632812 65.589844 C 9.472656 63.964844 9.394531 62.339844 9.394531 60.707031 C 9.394531 59.074219 9.472656 57.445312 9.632812 55.824219 C 9.792969 54.199219 10.035156 52.585938 10.351562 50.988281 C 10.671875 49.386719 11.070312 47.804688 11.542969 46.246094 C 12.019531 44.683594 12.570312 43.148438 13.195312 41.640625 C 13.820312 40.132812 14.519531 38.660156 15.289062 37.222656 C 16.0625 35.78125 16.898438 34.382812 17.808594 33.027344 C 18.71875 31.671875 19.691406 30.363281 20.726562 29.101562 C 21.765625 27.839844 22.863281 26.632812 24.019531 25.476562 C 25.175781 24.324219 26.386719 23.230469 27.652344 22.195312 C 28.914062 21.160156 30.226562 20.1875 31.585938 19.28125 C 32.945312 18.375 34.347656 17.539062 35.789062 16.769531 C 37.234375 16 38.710938 15.300781 40.21875 14.679688 C 41.730469 14.054688 43.269531 13.503906 44.835938 13.03125 C 46.398438 12.558594 47.984375 12.160156 49.589844 11.84375 C 51.191406 11.523438 52.808594 11.285156 54.4375 11.125 C 56.0625 10.964844 57.695312 10.886719 59.332031 10.886719 C 60.964844 10.886719 62.597656 10.964844 64.226562 11.125 C 65.851562 11.285156 67.46875 11.523438 69.074219 11.84375 C 70.675781 12.160156 72.261719 12.558594 73.828125 13.03125 C 75.390625 13.503906 76.929688 14.054688 78.441406 14.679688 C 79.953125 15.300781 81.429688 16 82.871094 16.769531 C 84.3125 17.539062 85.714844 18.375 87.074219 19.28125 C 88.433594 20.1875 89.746094 21.160156 91.011719 22.195312 C 92.273438 23.230469 93.484375 24.324219 94.640625 25.476562 C 95.796875 26.632812 96.894531 27.839844 97.933594 29.101562 C 98.96875 30.363281 99.941406 31.671875 100.851562 33.027344 C 101.761719 34.382812 102.601562 35.78125 103.371094 37.222656 C 104.140625 38.660156 104.839844 40.132812 105.464844 41.640625 C 106.09375 43.148438 106.640625 44.683594 107.117188 46.246094 C 107.59375 47.804688 107.988281 49.386719 108.308594 50.988281 C 108.628906 52.585938 108.867188 54.199219 109.027344 55.824219 C 109.1875 57.445312 109.269531 59.074219 109.269531 60.707031 Z M 109.269531 60.707031 " fill-opacity="1" fill-rule="nonzero"/><g clip-path="url(#a3c8bfa192)"><path fill="#6bdddd" d="M 78.539062 14.125 C 78.53125 14.136719 78.523438 14.148438 78.515625 14.15625 C 77.589844 15.4375 78.050781 17.238281 79.484375 17.914062 C 97.601562 26.421875 109.109375 45.945312 106.300781 66.976562 C 102.90625 92.394531 79.453125 110.601562 53.921875 107.675781 C 28.167969 104.726562 9.484375 81.539062 12.203125 55.765625 C 13.632812 42.160156 20.980469 29.820312 32.113281 22.003906 L 33.460938 24.257812 C 34.148438 25.410156 35.847656 25.550781 36.601562 24.441406 C 36.648438 24.371094 36.691406 24.296875 36.730469 24.222656 C 41.121094 15.609375 41.597656 15.394531 40.820312 14.09375 C 40.046875 12.800781 39.597656 13.109375 29.945312 12.871094 C 29.859375 12.867188 29.773438 12.871094 29.6875 12.878906 C 28.351562 13.011719 27.667969 14.570312 28.355469 15.71875 L 29.5 17.632812 C 16.996094 26.273438 8.734375 40.042969 7.132812 55.234375 C 4.078125 84.234375 25.480469 110.277344 54.707031 112.867188 C 82.765625 115.351562 107.992188 95 111.421875 67.101562 C 114.261719 44.023438 101.5625 22.671875 81.660156 13.316406 C 80.5625 12.800781 79.25 13.148438 78.539062 14.125 Z M 78.539062 14.125 " fill-opacity="1" fill-rule="nonzero"/></g><g clip-path="url(#983448f11f)"><path fill="#3762cc" d="M 59.363281 113.917969 C 57.792969 113.917969 56.214844 113.851562 54.632812 113.710938 C 40.289062 112.441406 27.34375 105.621094 18.175781 94.515625 C 9.007812 83.402344 4.785156 69.417969 6.289062 55.144531 C 7.886719 39.984375 15.917969 26.269531 28.363281 17.390625 L 27.625 16.152344 C 27.136719 15.332031 27.101562 14.332031 27.535156 13.472656 C 27.945312 12.660156 28.71875 12.125 29.601562 12.039062 C 29.722656 12.027344 29.84375 12.019531 29.964844 12.023438 C 31.867188 12.070312 33.414062 12.097656 34.671875 12.117188 C 40 12.207031 40.6875 12.21875 41.546875 13.660156 C 42.414062 15.105469 42.101562 15.703125 39.679688 20.359375 C 39.089844 21.488281 38.367188 22.875 37.484375 24.605469 C 37.433594 24.710938 37.371094 24.816406 37.304688 24.914062 C 36.808594 25.648438 35.976562 26.074219 35.058594 26.050781 C 34.09375 26.023438 33.222656 25.515625 32.730469 24.695312 L 31.855469 23.230469 C 21.257812 30.988281 14.417969 42.824219 13.046875 55.851562 C 10.386719 81.074219 28.769531 103.945312 54.015625 106.835938 C 55.785156 107.039062 57.542969 107.136719 59.28125 107.136719 C 82.214844 107.136719 102.367188 90.011719 105.460938 66.863281 C 108.152344 46.707031 97.566406 27.34375 79.121094 18.679688 C 78.210938 18.25 77.546875 17.449219 77.292969 16.480469 C 77.042969 15.507812 77.238281 14.476562 77.828125 13.660156 C 77.828125 13.660156 77.851562 13.628906 77.851562 13.628906 C 78.804688 12.316406 80.558594 11.863281 82.019531 12.550781 C 102.925781 22.375 115.078125 44.339844 112.265625 67.207031 C 110.578125 80.917969 103.675781 93.285156 92.835938 102.035156 C 83.234375 109.78125 71.5 113.917969 59.363281 113.917969 Z M 29.894531 13.71875 C 29.851562 13.71875 29.8125 13.71875 29.769531 13.722656 C 29.351562 13.765625 29.140625 14.0625 29.054688 14.234375 C 28.882812 14.574219 28.894531 14.964844 29.085938 15.285156 L 30.226562 17.199219 C 30.457031 17.582031 30.347656 18.074219 29.980469 18.328125 C 17.570312 26.90625 9.550781 40.390625 7.976562 55.320312 C 6.519531 69.140625 10.609375 82.675781 19.488281 93.4375 C 28.363281 104.191406 40.898438 110.792969 54.78125 112.023438 C 82.183594 114.449219 107.226562 94.253906 110.578125 67 C 113.300781 44.863281 101.535156 23.597656 81.296875 14.085938 C 80.570312 13.746094 79.699219 13.96875 79.226562 14.625 C 79.21875 14.632812 79.214844 14.640625 79.210938 14.640625 C 78.910156 15.058594 78.8125 15.570312 78.9375 16.054688 C 79.0625 16.539062 79.394531 16.933594 79.84375 17.144531 C 88.894531 21.398438 96.582031 28.570312 101.480469 37.335938 C 106.566406 46.441406 108.527344 56.726562 107.144531 67.089844 C 103.695312 92.902344 79.769531 111.488281 53.824219 108.515625 C 27.652344 105.523438 8.601562 81.816406 11.355469 55.675781 C 12.8125 41.859375 20.199219 29.332031 31.625 21.3125 C 31.816406 21.175781 32.058594 21.128906 32.289062 21.175781 C 32.519531 21.226562 32.71875 21.371094 32.839844 21.570312 L 34.1875 23.824219 C 34.378906 24.140625 34.730469 24.34375 35.105469 24.355469 C 35.304688 24.363281 35.65625 24.316406 35.894531 23.96875 C 35.921875 23.929688 35.949219 23.886719 35.96875 23.839844 C 36.855469 22.101562 37.582031 20.710938 38.171875 19.578125 C 40.46875 15.164062 40.441406 15.113281 40.089844 14.527344 C 39.738281 13.945312 39.710938 13.894531 34.644531 13.8125 C 33.378906 13.792969 31.832031 13.765625 29.921875 13.71875 C 29.914062 13.71875 29.902344 13.71875 29.894531 13.71875 Z M 29.894531 13.71875 " fill-opacity="1" fill-rule="nonzero"/></g><path fill="#a4c9ff" d="M 75.742188 83.179688 C 73.222656 83.179688 71.183594 85.214844 71.183594 87.726562 L 71.183594 101.304688 L 101.945312 101.304688 L 101.945312 87.726562 C 101.945312 85.214844 99.90625 83.179688 97.386719 83.179688 Z M 75.742188 83.179688 " fill-opacity="1" fill-rule="nonzero"/><path fill="#f9cfcf" d="M 86.5625 88.585938 C 83.902344 88.585938 81.746094 86.433594 81.746094 83.777344 L 81.746094 77.898438 L 91.382812 77.898438 L 91.382812 83.777344 C 91.382812 86.433594 89.226562 88.585938 86.5625 88.585938 Z M 86.5625 88.585938 " fill-opacity="1" fill-rule="nonzero"/><path fill="#3762cc" d="M 101.945312 102.152344 L 71.183594 102.152344 C 70.714844 102.152344 70.335938 101.773438 70.335938 101.304688 L 70.335938 87.726562 C 70.335938 84.753906 72.761719 82.332031 75.742188 82.332031 L 80.898438 82.332031 L 80.898438 77.898438 C 80.898438 77.429688 81.277344 77.050781 81.746094 77.050781 L 91.382812 77.050781 C 91.851562 77.050781 92.230469 77.429688 92.230469 77.898438 L 92.230469 82.332031 L 97.386719 82.332031 C 100.371094 82.332031 102.792969 84.753906 102.792969 87.726562 L 102.792969 101.304688 C 102.792969 101.773438 102.414062 102.152344 101.945312 102.152344 Z M 72.03125 100.457031 L 101.097656 100.457031 L 101.097656 87.726562 C 101.097656 85.6875 99.433594 84.027344 97.386719 84.027344 L 91.382812 84.027344 C 90.914062 84.027344 90.53125 83.648438 90.53125 83.179688 L 90.53125 78.742188 L 82.597656 78.742188 L 82.597656 83.179688 C 82.597656 83.648438 82.214844 84.027344 81.746094 84.027344 L 75.742188 84.027344 C 73.695312 84.027344 72.03125 85.6875 72.03125 87.726562 Z M 72.03125 100.457031 " fill-opacity="1" fill-rule="nonzero"/><path fill="#4671c6" d="M 71.902344 57.769531 C 71.890625 57.949219 71.886719 58.128906 71.886719 58.3125 L 71.886719 69.03125 L 101.101562 69.03125 L 101.101562 57.769531 Z M 71.902344 57.769531 " fill-opacity="1" fill-rule="nonzero"/><path fill="#3762cc" d="M 101.101562 69.878906 L 71.886719 69.878906 C 71.417969 69.878906 71.039062 69.496094 71.039062 69.03125 L 71.039062 58.3125 C 71.039062 58.113281 71.042969 57.921875 71.054688 57.726562 C 71.074219 57.277344 71.449219 56.921875 71.902344 56.921875 L 101.101562 56.921875 C 101.570312 56.921875 101.949219 57.300781 101.949219 57.769531 L 101.949219 69.03125 C 101.949219 69.5 101.570312 69.878906 101.101562 69.878906 Z M 72.738281 68.183594 L 100.25 68.183594 L 100.25 58.617188 L 72.738281 58.617188 Z M 72.738281 68.183594 " fill-opacity="1" fill-rule="nonzero"/><path fill="#f9cfcf" d="M 98.824219 64.34375 L 98.824219 63.199219 C 98.824219 56.503906 93.335938 51.078125 86.5625 51.078125 C 79.792969 51.078125 74.304688 56.503906 74.304688 63.199219 L 74.304688 64.34375 C 72.175781 64.300781 70.488281 65.992188 70.488281 68.035156 C 70.488281 70.21875 72.398438 71.949219 74.628906 71.710938 C 75.894531 77.074219 80.757812 81.070312 86.566406 81.070312 C 92.375 81.070312 97.234375 77.074219 98.5 71.710938 C 100.726562 71.949219 102.640625 70.222656 102.640625 68.035156 C 102.640625 65.992188 100.949219 64.300781 98.824219 64.34375 Z M 98.824219 64.34375 " fill-opacity="1" fill-rule="nonzero"/><path fill="#3762cc" d="M 86.5625 81.917969 C 80.675781 81.917969 75.59375 78.109375 73.976562 72.574219 C 72.933594 72.515625 71.929688 72.109375 71.144531 71.40625 C 70.1875 70.542969 69.636719 69.316406 69.636719 68.035156 C 69.636719 66.8125 70.125 65.660156 71.003906 64.800781 C 71.683594 64.136719 72.53125 63.710938 73.457031 63.558594 L 73.457031 63.195312 C 73.457031 56.046875 79.335938 50.230469 86.5625 50.230469 C 93.792969 50.230469 99.671875 56.046875 99.671875 63.195312 L 99.671875 63.558594 C 100.59375 63.710938 101.445312 64.136719 102.125 64.800781 C 103.003906 65.664062 103.488281 66.8125 103.488281 68.035156 C 103.488281 69.316406 102.941406 70.542969 101.984375 71.40625 C 101.199219 72.109375 100.195312 72.515625 99.148438 72.574219 C 97.535156 78.109375 92.453125 81.917969 86.5625 81.917969 Z M 74.628906 70.863281 C 75.019531 70.863281 75.363281 71.132812 75.457031 71.519531 C 76.664062 76.644531 81.230469 80.222656 86.5625 80.222656 C 91.894531 80.222656 96.464844 76.644531 97.671875 71.519531 C 97.769531 71.101562 98.164062 70.824219 98.589844 70.871094 C 99.425781 70.957031 100.226562 70.699219 100.847656 70.144531 C 101.445312 69.605469 101.792969 68.835938 101.792969 68.035156 C 101.792969 67.269531 101.488281 66.550781 100.933594 66.011719 C 100.378906 65.464844 99.625 65.175781 98.839844 65.191406 C 98.617188 65.199219 98.390625 65.109375 98.230469 64.949219 C 98.066406 64.789062 97.972656 64.570312 97.972656 64.34375 L 97.972656 63.195312 C 97.972656 56.980469 92.855469 51.925781 86.5625 51.925781 C 80.273438 51.925781 75.152344 56.980469 75.152344 63.195312 L 75.152344 64.34375 C 75.152344 64.570312 75.0625 64.789062 74.898438 64.949219 C 74.734375 65.109375 74.519531 65.199219 74.285156 65.191406 C 73.492188 65.175781 72.75 65.464844 72.191406 66.011719 C 71.640625 66.550781 71.335938 67.269531 71.335938 68.035156 C 71.335938 68.835938 71.679688 69.605469 72.28125 70.144531 C 72.902344 70.699219 73.703125 70.957031 74.539062 70.871094 C 74.570312 70.867188 74.601562 70.863281 74.628906 70.863281 Z M 74.628906 70.863281 " fill-opacity="1" fill-rule="nonzero"/><path fill="#4671c6" d="M 92.378906 47.800781 L 82.421875 47.800781 C 76.605469 47.800781 71.886719 52.507812 71.886719 58.3125 L 71.886719 62.09375 L 83.355469 62.09375 C 85.730469 62.09375 87.785156 60.753906 88.820312 58.796875 C 90.394531 60.824219 92.632812 62.09375 95.121094 62.09375 L 101.101562 62.09375 L 101.101562 58.308594 C 101.101562 52.507812 97.195312 47.800781 92.378906 47.800781 Z M 92.378906 47.800781 " fill-opacity="1" fill-rule="nonzero"/><path fill="#3762cc" d="M 101.101562 62.941406 L 95.121094 62.941406 C 92.839844 62.941406 90.632812 61.957031 88.921875 60.203125 C 87.605469 61.917969 85.5625 62.941406 83.355469 62.941406 L 71.886719 62.941406 C 71.417969 62.941406 71.039062 62.5625 71.039062 62.09375 L 71.039062 58.3125 C 71.039062 52.050781 76.144531 46.953125 82.421875 46.953125 L 92.378906 46.953125 C 97.65625 46.953125 101.949219 52.050781 101.949219 58.3125 L 101.949219 62.09375 C 101.949219 62.5625 101.570312 62.941406 101.101562 62.941406 Z M 88.820312 57.949219 C 89.078125 57.949219 89.328125 58.070312 89.488281 58.277344 C 90.976562 60.191406 92.976562 61.246094 95.121094 61.246094 L 100.25 61.246094 L 100.25 58.3125 C 100.25 52.984375 96.71875 48.648438 92.378906 48.648438 L 82.421875 48.648438 C 77.082031 48.648438 72.738281 52.984375 72.738281 58.3125 L 72.738281 61.246094 L 83.355469 61.246094 C 85.335938 61.246094 87.140625 60.15625 88.066406 58.402344 C 88.203125 58.144531 88.457031 57.976562 88.746094 57.953125 C 88.769531 57.949219 88.792969 57.949219 88.820312 57.949219 Z M 88.820312 57.949219 " fill-opacity="1" fill-rule="nonzero"/><path fill="#a4c9ff" d="M 21.195312 83.179688 C 18.679688 83.179688 16.636719 85.214844 16.636719 87.726562 L 16.636719 101.304688 L 47.398438 101.304688 L 47.398438 87.726562 C 47.398438 85.214844 45.359375 83.179688 42.84375 83.179688 Z M 21.195312 83.179688 " fill-opacity="1" fill-rule="nonzero"/><path fill="#f9cfcf" d="M 32.019531 88.585938 C 29.359375 88.585938 27.203125 86.433594 27.203125 83.777344 L 27.203125 77.898438 L 36.835938 77.898438 L 36.835938 83.777344 C 36.835938 86.433594 34.679688 88.585938 32.019531 88.585938 Z M 32.019531 88.585938 " fill-opacity="1" fill-rule="nonzero"/><path fill="#3762cc" d="M 47.398438 102.152344 L 16.636719 102.152344 C 16.167969 102.152344 15.789062 101.773438 15.789062 101.304688 L 15.789062 87.726562 C 15.789062 84.753906 18.214844 82.332031 21.195312 82.332031 L 26.351562 82.332031 L 26.351562 77.898438 C 26.351562 77.429688 26.734375 77.050781 27.203125 77.050781 L 36.835938 77.050781 C 37.304688 77.050781 37.683594 77.429688 37.683594 77.898438 L 37.683594 82.332031 L 42.84375 82.332031 C 45.824219 82.332031 48.25 84.753906 48.25 87.726562 L 48.25 101.304688 C 48.25 101.773438 47.867188 102.152344 47.398438 102.152344 Z M 17.488281 100.457031 L 46.550781 100.457031 L 46.550781 87.726562 C 46.550781 85.6875 44.886719 84.027344 42.84375 84.027344 L 36.835938 84.027344 C 36.367188 84.027344 35.984375 83.648438 35.984375 83.179688 L 35.984375 78.742188 L 28.050781 78.742188 L 28.050781 83.179688 C 28.050781 83.648438 27.671875 84.027344 27.203125 84.027344 L 21.195312 84.027344 C 19.152344 84.027344 17.488281 85.6875 17.488281 87.726562 Z M 17.488281 100.457031 " fill-opacity="1" fill-rule="nonzero"/><path fill="#4671c6" d="M 17.355469 57.769531 C 17.347656 57.949219 17.34375 58.128906 17.34375 58.3125 L 17.34375 69.03125 L 46.554688 69.03125 L 46.554688 57.769531 Z M 17.355469 57.769531 " fill-opacity="1" fill-rule="nonzero"/><path fill="#3762cc" d="M 46.554688 69.878906 L 17.34375 69.878906 C 16.871094 69.878906 16.492188 69.496094 16.492188 69.03125 L 16.492188 58.3125 C 16.492188 58.113281 16.496094 57.921875 16.507812 57.726562 C 16.53125 57.277344 16.902344 56.921875 17.355469 56.921875 L 46.554688 56.921875 C 47.023438 56.921875 47.40625 57.300781 47.40625 57.769531 L 47.40625 69.03125 C 47.40625 69.5 47.023438 69.878906 46.554688 69.878906 Z M 18.191406 68.183594 L 45.707031 68.183594 L 45.707031 58.617188 L 18.191406 58.617188 Z M 18.191406 68.183594 " fill-opacity="1" fill-rule="nonzero"/><path fill="#f9cfcf" d="M 44.277344 64.34375 L 44.277344 63.199219 C 44.277344 56.503906 38.789062 51.078125 32.019531 51.078125 C 25.25 51.078125 19.757812 56.503906 19.757812 63.199219 L 19.757812 64.34375 C 17.632812 64.300781 15.941406 65.992188 15.941406 68.035156 C 15.941406 70.21875 17.851562 71.949219 20.082031 71.710938 C 21.347656 77.074219 26.210938 81.070312 32.019531 81.070312 C 37.828125 81.070312 42.691406 77.074219 43.957031 71.710938 C 46.183594 71.949219 48.097656 70.222656 48.097656 68.035156 C 48.097656 65.992188 46.40625 64.300781 44.277344 64.34375 Z M 44.277344 64.34375 " fill-opacity="1" fill-rule="nonzero"/><path fill="#3762cc" d="M 32.019531 81.917969 C 26.128906 81.917969 21.050781 78.109375 19.433594 72.574219 C 18.386719 72.515625 17.382812 72.109375 16.601562 71.40625 C 15.640625 70.542969 15.09375 69.316406 15.09375 68.035156 C 15.09375 66.8125 15.578125 65.660156 16.457031 64.800781 C 17.136719 64.136719 17.988281 63.710938 18.910156 63.558594 L 18.910156 63.195312 C 18.910156 56.046875 24.789062 50.230469 32.019531 50.230469 C 39.246094 50.230469 45.128906 56.046875 45.128906 63.195312 L 45.128906 63.558594 C 46.050781 63.710938 46.898438 64.136719 47.578125 64.800781 C 48.460938 65.664062 48.945312 66.8125 48.945312 68.035156 C 48.945312 69.316406 48.394531 70.542969 47.4375 71.402344 C 46.652344 72.109375 45.648438 72.515625 44.605469 72.574219 C 42.988281 78.109375 37.910156 81.917969 32.019531 81.917969 Z M 20.085938 70.863281 C 20.472656 70.863281 20.820312 71.132812 20.910156 71.519531 C 22.117188 76.644531 26.6875 80.222656 32.019531 80.222656 C 37.351562 80.222656 41.917969 76.644531 43.128906 71.519531 C 43.226562 71.101562 43.625 70.824219 44.042969 70.871094 C 44.882812 70.957031 45.683594 70.699219 46.300781 70.144531 C 46.902344 69.605469 47.246094 68.835938 47.246094 68.035156 C 47.246094 67.269531 46.941406 66.550781 46.390625 66.011719 C 45.832031 65.464844 45.070312 65.175781 44.292969 65.191406 C 44.0625 65.199219 43.847656 65.109375 43.683594 64.949219 C 43.519531 64.789062 43.429688 64.570312 43.429688 64.34375 L 43.429688 63.199219 C 43.429688 56.980469 38.308594 51.925781 32.019531 51.925781 C 25.726562 51.925781 20.609375 56.980469 20.609375 63.199219 L 20.609375 64.34375 C 20.609375 64.570312 20.515625 64.789062 20.351562 64.949219 C 20.191406 65.109375 19.964844 65.199219 19.742188 65.191406 C 18.953125 65.175781 18.207031 65.464844 17.648438 66.011719 C 17.09375 66.550781 16.789062 67.269531 16.789062 68.035156 C 16.789062 68.835938 17.136719 69.605469 17.734375 70.144531 C 18.355469 70.703125 19.15625 70.957031 19.992188 70.871094 C 20.023438 70.867188 20.054688 70.863281 20.085938 70.863281 Z M 20.085938 70.863281 " fill-opacity="1" fill-rule="nonzero"/><path fill="#4671c6" d="M 37.832031 47.800781 L 27.875 47.800781 C 22.058594 47.800781 17.34375 52.507812 17.34375 58.3125 L 17.34375 62.09375 L 28.808594 62.09375 C 31.183594 62.09375 33.242188 60.753906 34.273438 58.796875 C 35.847656 60.824219 38.085938 62.09375 40.574219 62.09375 L 46.554688 62.09375 L 46.554688 58.308594 C 46.554688 52.507812 42.648438 47.800781 37.832031 47.800781 Z M 37.832031 47.800781 " fill-opacity="1" fill-rule="nonzero"/><path fill="#3762cc" d="M 46.554688 62.941406 L 40.574219 62.941406 C 38.292969 62.941406 36.085938 61.957031 34.375 60.203125 C 33.058594 61.917969 31.019531 62.941406 28.808594 62.941406 L 17.34375 62.941406 C 16.871094 62.941406 16.492188 62.5625 16.492188 62.09375 L 16.492188 58.3125 C 16.492188 52.050781 21.597656 46.953125 27.875 46.953125 L 37.832031 46.953125 C 43.109375 46.953125 47.40625 52.050781 47.40625 58.3125 L 47.40625 62.09375 C 47.40625 62.5625 47.023438 62.941406 46.554688 62.941406 Z M 34.273438 57.949219 C 34.535156 57.949219 34.785156 58.070312 34.945312 58.277344 C 36.429688 60.191406 38.429688 61.246094 40.574219 61.246094 L 45.707031 61.246094 L 45.707031 58.3125 C 45.707031 52.984375 42.175781 48.648438 37.832031 48.648438 L 27.875 48.648438 C 22.535156 48.648438 18.191406 52.984375 18.191406 58.3125 L 18.191406 61.246094 L 28.808594 61.246094 C 30.792969 61.246094 32.597656 60.15625 33.523438 58.402344 C 33.65625 58.144531 33.910156 57.976562 34.199219 57.953125 C 34.222656 57.949219 34.25 57.949219 34.273438 57.949219 Z M 34.273438 57.949219 " fill-opacity="1" fill-rule="nonzero"/><path fill="#a4c9ff" d="M 73.082031 78.933594 C 76.183594 78.933594 78.699219 81.441406 78.699219 84.535156 L 78.699219 101.273438 L 40.789062 101.273438 L 40.789062 84.535156 C 40.789062 81.441406 43.300781 78.933594 46.40625 78.933594 Z M 73.082031 78.933594 " fill-opacity="1" fill-rule="nonzero"/><path fill="#f9cfcf" d="M 59.710938 85.636719 C 63.222656 85.636719 66.074219 82.792969 66.074219 79.289062 L 66.074219 71.125 L 53.34375 71.125 L 53.34375 79.289062 C 53.34375 82.792969 56.195312 85.636719 59.710938 85.636719 Z M 59.710938 85.636719 " fill-opacity="1" fill-rule="nonzero"/><path fill="#3762cc" d="M 78.664062 102.152344 L 40.753906 102.152344 C 40.285156 102.152344 39.90625 101.773438 39.90625 101.304688 L 39.90625 84.570312 C 39.90625 81.011719 42.804688 78.121094 46.371094 78.121094 L 52.496094 78.121094 L 52.496094 71.125 C 52.496094 70.660156 52.875 70.277344 53.34375 70.277344 L 66.074219 70.277344 C 66.542969 70.277344 66.921875 70.660156 66.921875 71.125 L 66.921875 78.121094 L 73.050781 78.121094 C 76.613281 78.121094 79.515625 81.011719 79.515625 84.570312 L 79.515625 101.304688 C 79.515625 101.773438 79.132812 102.152344 78.664062 102.152344 Z M 41.601562 100.457031 L 77.816406 100.457031 L 77.816406 84.570312 C 77.816406 81.949219 75.675781 79.8125 73.046875 79.8125 L 66.074219 79.8125 C 65.605469 79.8125 65.222656 79.433594 65.222656 78.96875 L 65.222656 71.972656 L 54.195312 71.972656 L 54.195312 78.96875 C 54.195312 79.433594 53.8125 79.8125 53.34375 79.8125 L 46.371094 79.8125 C 43.742188 79.8125 41.601562 81.949219 41.601562 84.570312 Z M 41.601562 100.457031 " fill-opacity="1" fill-rule="nonzero"/><path fill="#4671c6" d="M 56.757812 43.707031 L 56.757812 35.332031 L 64.851562 35.332031 C 72.019531 35.332031 77.832031 41.132812 77.832031 48.285156 L 77.832031 61.496094 L 41.828125 61.496094 L 41.828125 43.707031 Z M 56.757812 43.707031 " fill-opacity="1" fill-rule="nonzero"/><path fill="#3762cc" d="M 77.832031 62.34375 L 41.828125 62.34375 C 41.359375 62.34375 40.980469 61.964844 40.980469 61.496094 L 40.980469 43.707031 C 40.980469 43.238281 41.359375 42.859375 41.828125 42.859375 L 55.90625 42.859375 L 55.90625 35.332031 C 55.90625 34.863281 56.289062 34.484375 56.757812 34.484375 L 64.851562 34.484375 C 72.476562 34.484375 78.679688 40.675781 78.679688 48.285156 L 78.679688 61.496094 C 78.679688 61.964844 78.300781 62.34375 77.832031 62.34375 Z M 42.675781 60.648438 L 76.980469 60.648438 L 76.980469 48.285156 C 76.980469 41.609375 71.539062 36.179688 64.851562 36.179688 L 57.605469 36.179688 L 57.605469 43.707031 C 57.605469 44.175781 57.226562 44.554688 56.757812 44.554688 L 42.675781 44.554688 Z M 42.675781 60.648438 " fill-opacity="1" fill-rule="nonzero"/><path fill="#f9cfcf" d="M 44.636719 55.71875 L 44.636719 54.304688 C 44.636719 46.054688 51.398438 39.367188 59.742188 39.367188 C 68.085938 39.367188 74.851562 46.054688 74.851562 54.304688 L 74.851562 55.71875 C 77.476562 55.664062 79.558594 57.75 79.558594 60.269531 C 79.558594 62.960938 77.203125 65.089844 74.453125 64.800781 C 72.894531 71.410156 66.902344 76.332031 59.742188 76.332031 C 52.585938 76.332031 46.59375 71.410156 45.035156 64.800781 C 42.289062 65.089844 39.929688 62.964844 39.929688 60.269531 C 39.929688 57.75 42.011719 55.664062 44.636719 55.71875 Z M 44.636719 55.71875 " fill-opacity="1" fill-rule="nonzero"/><path fill="#3762cc" d="M 59.742188 77.179688 C 52.523438 77.179688 46.304688 72.484375 44.382812 65.671875 C 43.089844 65.632812 41.839844 65.140625 40.875 64.273438 C 39.734375 63.25 39.082031 61.792969 39.082031 60.269531 C 39.082031 58.8125 39.65625 57.445312 40.703125 56.421875 C 41.550781 55.59375 42.625 55.074219 43.785156 54.917969 L 43.785156 54.304688 C 43.785156 45.601562 50.945312 38.519531 59.742188 38.519531 C 68.542969 38.519531 75.699219 45.601562 75.699219 54.304688 L 75.699219 54.917969 C 76.863281 55.074219 77.933594 55.59375 78.78125 56.421875 C 79.828125 57.445312 80.40625 58.8125 80.40625 60.269531 C 80.40625 61.792969 79.753906 63.25 78.613281 64.273438 C 77.644531 65.140625 76.398438 65.632812 75.105469 65.671875 C 73.179688 72.484375 66.960938 77.179688 59.742188 77.179688 Z M 45.035156 63.953125 C 45.425781 63.953125 45.769531 64.21875 45.859375 64.605469 C 47.371094 71.011719 53.082031 75.484375 59.742188 75.484375 C 66.40625 75.484375 72.113281 71.011719 73.625 64.605469 C 73.722656 64.191406 74.117188 63.910156 74.542969 63.957031 C 75.632812 64.074219 76.671875 63.738281 77.476562 63.015625 C 78.257812 62.3125 78.707031 61.3125 78.707031 60.269531 C 78.707031 59.273438 78.3125 58.335938 77.59375 57.632812 C 76.867188 56.921875 75.914062 56.546875 74.867188 56.5625 C 74.648438 56.574219 74.417969 56.480469 74.257812 56.320312 C 74.09375 56.164062 74 55.945312 74 55.71875 L 74 54.304688 C 74 46.535156 67.605469 40.214844 59.742188 40.214844 C 51.878906 40.214844 45.484375 46.535156 45.484375 54.304688 L 45.484375 55.71875 C 45.484375 55.945312 45.390625 56.164062 45.226562 56.320312 C 45.066406 56.480469 44.828125 56.574219 44.617188 56.5625 C 43.570312 56.546875 42.621094 56.921875 41.894531 57.632812 C 41.175781 58.335938 40.777344 59.273438 40.777344 60.269531 C 40.777344 61.3125 41.226562 62.3125 42.007812 63.015625 C 42.8125 63.738281 43.855469 64.070312 44.945312 63.957031 C 44.976562 63.953125 45.003906 63.953125 45.035156 63.953125 Z M 45.035156 63.953125 " fill-opacity="1" fill-rule="nonzero"/><path fill="#3762cc" d="M 51.898438 63.375 C 52.953125 63.375 53.808594 62.519531 53.808594 61.46875 L 53.808594 59.4375 C 53.808594 58.382812 52.953125 57.53125 51.898438 57.53125 C 50.84375 57.53125 49.988281 58.382812 49.988281 59.4375 L 49.988281 61.46875 C 49.988281 62.519531 50.84375 63.375 51.898438 63.375 Z M 51.898438 63.375 " fill-opacity="1" fill-rule="nonzero"/><path fill="#3762cc" d="M 67.589844 63.375 C 68.644531 63.375 69.5 62.519531 69.5 61.46875 L 69.5 59.4375 C 69.5 58.382812 68.644531 57.53125 67.589844 57.53125 C 66.535156 57.53125 65.679688 58.382812 65.679688 59.4375 L 65.679688 61.46875 C 65.679688 62.519531 66.535156 63.375 67.589844 63.375 Z M 67.589844 63.375 " fill-opacity="1" fill-rule="nonzero"/><path fill="#4671c6" d="M 64.851562 35.332031 C 72.019531 35.332031 77.832031 41.132812 77.832031 48.285156 L 77.832031 52.945312 L 49.472656 52.945312 C 46.496094 52.945312 43.792969 51.230469 42.53125 48.542969 L 39.148438 41.335938 C 38.984375 40.992188 39.238281 40.597656 39.617188 40.597656 L 41.519531 40.597656 C 43.851562 40.597656 46.113281 39.78125 47.90625 38.289062 C 50.203125 36.378906 53.101562 35.332031 56.09375 35.332031 Z M 64.851562 35.332031 " fill-opacity="1" fill-rule="nonzero"/><path fill="#3762cc" d="M 59.746094 69.386719 C 59.164062 69.386719 58.652344 69.316406 58.183594 69.175781 C 57.40625 68.9375 56.722656 68.539062 56.207031 68.023438 C 55.878906 67.691406 55.878906 67.152344 56.210938 66.824219 C 56.546875 66.496094 57.082031 66.496094 57.414062 66.828125 C 57.730469 67.148438 58.167969 67.398438 58.675781 67.554688 C 58.984375 67.644531 59.332031 67.691406 59.746094 67.691406 C 60.160156 67.691406 60.507812 67.644531 60.8125 67.554688 C 61.324219 67.398438 61.757812 67.148438 62.078125 66.828125 C 62.40625 66.496094 62.945312 66.492188 63.277344 66.824219 C 63.609375 67.152344 63.613281 67.691406 63.285156 68.023438 C 62.769531 68.539062 62.085938 68.9375 61.308594 69.175781 C 60.839844 69.316406 60.328125 69.386719 59.746094 69.386719 Z M 59.746094 69.386719 " fill-opacity="1" fill-rule="nonzero"/><path fill="#3762cc" d="M 77.832031 53.792969 L 49.472656 53.792969 C 46.183594 53.792969 43.15625 51.875 41.761719 48.90625 L 38.378906 41.695312 C 38.175781 41.269531 38.207031 40.78125 38.460938 40.382812 C 38.714844 39.988281 39.144531 39.75 39.617188 39.75 L 41.519531 39.75 C 43.648438 39.75 45.722656 39 47.363281 37.640625 C 49.808594 35.605469 52.910156 34.484375 56.09375 34.484375 L 64.851562 34.484375 C 72.476562 34.484375 78.679688 40.675781 78.679688 48.285156 L 78.679688 52.945312 C 78.679688 53.414062 78.300781 53.792969 77.832031 53.792969 Z M 40.136719 41.445312 L 43.300781 48.1875 C 44.417969 50.5625 46.839844 52.101562 49.472656 52.101562 L 76.980469 52.101562 L 76.980469 48.285156 C 76.980469 41.609375 71.539062 36.179688 64.851562 36.179688 L 56.09375 36.179688 C 53.304688 36.179688 50.589844 37.160156 48.449219 38.941406 C 46.507812 40.558594 44.046875 41.445312 41.519531 41.445312 Z M 40.136719 41.445312 " fill-opacity="1" fill-rule="nonzero"/><path fill="#6bdddd" d="M 70.722656 6.730469 L 47.933594 6.730469 C 46.871094 6.730469 46.011719 7.589844 46.011719 8.648438 L 46.011719 24.121094 C 46.011719 29.292969 50.871094 34.09375 58.824219 36.773438 C 59.148438 36.882812 59.503906 36.882812 59.828125 36.773438 L 59.832031 36.773438 C 67.785156 34.089844 72.640625 29.292969 72.640625 24.121094 L 72.640625 8.648438 C 72.640625 7.589844 71.78125 6.730469 70.722656 6.730469 Z M 70.722656 6.730469 " fill-opacity="1" fill-rule="nonzero"/><path fill="#e0ebfc" d="M 59.328125 32.519531 C 53.851562 30.445312 50.246094 27.191406 50.246094 24.242188 L 50.246094 10.875 L 68.40625 10.875 L 68.40625 24.242188 C 68.40625 27.191406 64.800781 30.445312 59.328125 32.519531 Z M 59.328125 32.519531 " fill-opacity="1" fill-rule="nonzero"/><path fill="#4671c6" d="M 56.378906 25.855469 C 56.289062 25.855469 56.203125 25.847656 56.113281 25.835938 C 55.570312 25.753906 55.089844 25.4375 54.804688 24.964844 L 52.339844 20.863281 C 51.820312 20 52.101562 18.875 52.96875 18.355469 C 53.835938 17.835938 54.964844 18.117188 55.484375 18.980469 L 56.796875 21.164062 L 63.503906 15.050781 C 64.253906 14.367188 65.414062 14.421875 66.097656 15.167969 C 66.78125 15.914062 66.726562 17.070312 65.980469 17.753906 L 57.613281 25.375 C 57.273438 25.683594 56.832031 25.855469 56.378906 25.855469 Z M 56.378906 25.855469 " fill-opacity="1" fill-rule="nonzero"/><g clip-path="url(#1a88e24229)"><path fill="#3762cc" d="M 59.328125 37.699219 C 59.0625 37.699219 58.800781 37.660156 58.550781 37.574219 C 50.167969 34.75 45.164062 29.71875 45.164062 24.121094 L 45.164062 8.648438 C 45.164062 7.125 46.40625 5.886719 47.933594 5.886719 L 70.722656 5.886719 C 72.25 5.886719 73.492188 7.125 73.492188 8.648438 L 73.492188 24.121094 C 73.492188 29.71875 68.484375 34.75 60.101562 37.574219 C 59.851562 37.660156 59.589844 37.699219 59.328125 37.699219 Z M 47.933594 7.578125 C 47.339844 7.578125 46.859375 8.058594 46.859375 8.648438 L 46.859375 24.121094 C 46.859375 28.886719 51.550781 33.425781 59.09375 35.96875 C 59.246094 36.019531 59.410156 36.019531 59.558594 35.96875 C 67.105469 33.425781 71.792969 28.886719 71.792969 24.121094 L 71.792969 8.648438 C 71.792969 8.058594 71.3125 7.578125 70.722656 7.578125 Z M 47.933594 7.578125 " fill-opacity="1" fill-rule="nonzero"/></g><path fill="#3762cc" d="M 59.328125 33.367188 C 59.222656 33.367188 59.121094 33.347656 59.023438 33.3125 C 53.085938 31.0625 49.398438 27.585938 49.398438 24.242188 L 49.398438 10.875 C 49.398438 10.40625 49.777344 10.027344 50.246094 10.027344 L 68.40625 10.027344 C 68.875 10.027344 69.253906 10.40625 69.253906 10.875 L 69.253906 24.242188 C 69.253906 27.585938 65.566406 31.0625 59.628906 33.3125 C 59.53125 33.347656 59.429688 33.367188 59.328125 33.367188 Z M 51.097656 11.722656 L 51.097656 24.242188 C 51.097656 26.734375 54.390625 29.675781 59.328125 31.613281 C 64.261719 29.675781 67.558594 26.734375 67.558594 24.242188 L 67.558594 11.722656 Z M 51.097656 11.722656 " fill-opacity="1" fill-rule="nonzero"/><g clip-path="url(#982ea6ba63)"><path fill="#4671c6" d="M 81.671875 113.070312 L 36.980469 113.070312 C 35.71875 113.070312 34.699219 112.046875 34.699219 110.789062 L 34.699219 92.257812 C 34.699219 91 35.71875 89.980469 36.980469 89.980469 L 81.671875 89.980469 C 82.933594 89.980469 83.957031 91 83.957031 92.257812 L 83.957031 110.789062 C 83.957031 112.046875 82.933594 113.070312 81.671875 113.070312 Z M 81.671875 113.070312 " fill-opacity="1" fill-rule="nonzero"/></g><path fill="#e0ebfc" d="M 48.519531 98.453125 C 48.519531 97.984375 48.140625 97.605469 47.671875 97.605469 L 45.984375 97.605469 C 45.515625 97.605469 45.136719 97.984375 45.136719 98.453125 C 45.136719 98.917969 45.511719 99.292969 45.980469 99.296875 L 45.980469 104.890625 C 45.511719 104.894531 45.136719 105.269531 45.136719 105.738281 C 45.136719 106.203125 45.515625 106.585938 45.984375 106.585938 L 47.671875 106.585938 C 48.140625 106.585938 48.519531 106.203125 48.519531 105.738281 C 48.519531 105.269531 48.144531 104.894531 47.679688 104.890625 L 47.679688 99.300781 C 48.144531 99.292969 48.519531 98.917969 48.519531 98.453125 Z M 48.519531 98.453125 " fill-opacity="1" fill-rule="nonzero"/><path fill="#e0ebfc" d="M 70.949219 97.605469 L 69.824219 97.605469 C 68.582031 97.605469 67.570312 98.613281 67.570312 99.851562 L 67.570312 104.335938 C 67.570312 105.574219 68.582031 106.585938 69.824219 106.585938 L 70.949219 106.585938 C 72.191406 106.585938 73.203125 105.574219 73.203125 104.335938 L 73.203125 99.851562 C 73.203125 98.613281 72.191406 97.605469 70.949219 97.605469 Z M 71.503906 104.335938 C 71.503906 104.640625 71.253906 104.890625 70.949219 104.890625 L 69.824219 104.890625 C 69.519531 104.890625 69.269531 104.640625 69.269531 104.335938 L 69.269531 99.851562 C 69.269531 99.546875 69.519531 99.296875 69.824219 99.296875 L 70.949219 99.296875 C 71.253906 99.296875 71.503906 99.546875 71.503906 99.851562 Z M 71.503906 104.335938 " fill-opacity="1" fill-rule="nonzero"/><path fill="#e0ebfc" d="M 80.242188 105.398438 L 78.746094 101.984375 C 79.652344 101.691406 80.3125 100.851562 80.3125 99.851562 C 80.3125 98.613281 79.300781 97.605469 78.058594 97.605469 L 75.53125 97.605469 C 75.0625 97.605469 74.683594 97.984375 74.683594 98.453125 L 74.683594 105.734375 C 74.683594 106.203125 75.0625 106.582031 75.53125 106.582031 C 76 106.582031 76.382812 106.203125 76.382812 105.734375 L 76.382812 102.101562 L 76.941406 102.101562 L 78.6875 106.074219 C 78.824219 106.394531 79.136719 106.582031 79.464844 106.582031 C 79.578125 106.582031 79.695312 106.5625 79.804688 106.511719 C 80.234375 106.324219 80.429688 105.824219 80.242188 105.398438 Z M 78.058594 100.40625 L 77.488281 100.40625 C 77.488281 100.40625 77.488281 100.40625 77.484375 100.40625 L 76.382812 100.40625 L 76.382812 99.300781 L 78.058594 99.300781 C 78.367188 99.300781 78.613281 99.546875 78.613281 99.851562 C 78.613281 100.15625 78.367188 100.40625 78.058594 100.40625 Z M 78.058594 100.40625 " fill-opacity="1" fill-rule="nonzero"/><path fill="#e0ebfc" d="M 51.941406 99.300781 L 53.0625 99.300781 C 53.371094 99.300781 53.617188 99.546875 53.617188 99.851562 C 53.617188 100.320312 54 100.699219 54.46875 100.699219 C 54.9375 100.699219 55.316406 100.320312 55.316406 99.851562 C 55.316406 98.613281 54.304688 97.605469 53.0625 97.605469 L 51.941406 97.605469 C 50.699219 97.605469 49.6875 98.613281 49.6875 99.851562 C 49.6875 101.09375 50.699219 102.101562 51.941406 102.101562 L 53.0625 102.101562 C 53.371094 102.101562 53.617188 102.347656 53.617188 102.65625 L 53.617188 104.335938 C 53.617188 104.640625 53.371094 104.890625 53.0625 104.890625 L 51.941406 104.890625 C 51.632812 104.890625 51.386719 104.640625 51.386719 104.335938 C 51.386719 103.867188 51.003906 103.488281 50.535156 103.488281 C 50.066406 103.488281 49.6875 103.867188 49.6875 104.335938 C 49.6875 105.574219 50.699219 106.585938 51.941406 106.585938 L 53.0625 106.585938 C 54.304688 106.585938 55.316406 105.574219 55.316406 104.335938 L 55.316406 102.65625 C 55.316406 101.414062 54.304688 100.40625 53.0625 100.40625 L 51.941406 100.40625 C 51.632812 100.40625 51.386719 100.15625 51.386719 99.851562 C 51.386719 99.546875 51.632812 99.300781 51.941406 99.300781 Z M 51.941406 99.300781 " fill-opacity="1" fill-rule="nonzero"/><path fill="#e0ebfc" d="M 65.929688 97.605469 L 61.996094 97.605469 C 61.527344 97.605469 61.148438 97.984375 61.148438 98.453125 C 61.148438 98.917969 61.527344 99.300781 61.996094 99.300781 L 63.113281 99.300781 L 63.113281 105.734375 C 63.113281 106.203125 63.496094 106.582031 63.964844 106.582031 C 64.433594 106.582031 64.8125 106.203125 64.8125 105.734375 L 64.8125 99.300781 L 65.929688 99.300781 C 66.398438 99.300781 66.777344 98.917969 66.777344 98.453125 C 66.777344 97.984375 66.398438 97.605469 65.929688 97.605469 Z M 65.929688 97.605469 " fill-opacity="1" fill-rule="nonzero"/><path fill="#e0ebfc" d="M 43.121094 97.605469 C 42.652344 97.605469 42.269531 97.984375 42.269531 98.453125 L 42.269531 101.8125 C 42.269531 103.214844 41.324219 104.402344 40.039062 104.769531 L 40.039062 98.453125 C 40.039062 97.984375 39.65625 97.605469 39.1875 97.605469 C 38.71875 97.605469 38.339844 97.984375 38.339844 98.453125 L 38.339844 105.734375 C 38.339844 106.203125 38.71875 106.582031 39.1875 106.582031 C 41.824219 106.582031 43.96875 104.445312 43.96875 101.8125 L 43.96875 98.453125 C 43.96875 97.984375 43.589844 97.605469 43.121094 97.605469 Z M 43.121094 97.605469 " fill-opacity="1" fill-rule="nonzero"/><path fill="#e0ebfc" d="M 60.136719 98.453125 C 60.136719 97.984375 59.753906 97.605469 59.285156 97.605469 L 57.601562 97.605469 C 57.132812 97.605469 56.753906 97.984375 56.753906 98.453125 C 56.753906 98.917969 57.128906 99.292969 57.59375 99.296875 L 57.59375 104.890625 C 57.128906 104.894531 56.753906 105.269531 56.753906 105.734375 C 56.753906 106.203125 57.132812 106.582031 57.601562 106.582031 L 59.285156 106.582031 C 59.753906 106.582031 60.136719 106.203125 60.136719 105.734375 C 60.136719 105.269531 59.757812 104.894531 59.292969 104.890625 L 59.292969 99.296875 C 59.757812 99.292969 60.136719 98.917969 60.136719 98.453125 Z M 60.136719 98.453125 " fill-opacity="1" fill-rule="nonzero"/><g clip-path="url(#2ec197ab22)"><path fill="#3762cc" d="M 81.671875 113.917969 L 36.980469 113.917969 C 35.253906 113.917969 33.847656 112.515625 33.847656 110.789062 L 33.847656 92.257812 C 33.847656 90.535156 35.253906 89.132812 36.980469 89.132812 L 81.671875 89.132812 C 83.398438 89.132812 84.804688 90.535156 84.804688 92.257812 L 84.804688 110.789062 C 84.804688 112.515625 83.398438 113.917969 81.671875 113.917969 Z M 36.980469 90.824219 C 36.191406 90.824219 35.546875 91.46875 35.546875 92.257812 L 35.546875 110.789062 C 35.546875 111.578125 36.191406 112.222656 36.980469 112.222656 L 81.671875 112.222656 C 82.460938 112.222656 83.105469 111.578125 83.105469 110.789062 L 83.105469 92.257812 C 83.105469 91.46875 82.460938 90.824219 81.671875 90.824219 Z M 36.980469 90.824219 " fill-opacity="1" fill-rule="nonzero"/></g><path fill="#e0ebfc" d="M 57.363281 92.839844 L 57.363281 85.285156 C 57.363281 84.816406 57.742188 84.4375 58.210938 84.4375 L 60.761719 84.4375 C 61.230469 84.4375 61.609375 84.816406 61.609375 85.285156 L 61.609375 92.839844 C 61.609375 93.304688 61.230469 93.6875 60.761719 93.6875 L 58.210938 93.6875 C 57.742188 93.6875 57.363281 93.304688 57.363281 92.839844 Z M 57.363281 92.839844 " fill-opacity="1" fill-rule="nonzero"/><path fill="#3762cc" d="M 60.757812 94.53125 L 58.210938 94.53125 C 57.273438 94.53125 56.511719 93.773438 56.511719 92.839844 L 56.511719 85.285156 C 56.511719 84.347656 57.273438 83.589844 58.210938 83.589844 L 60.757812 83.589844 C 61.695312 83.589844 62.457031 84.347656 62.457031 85.285156 L 62.457031 92.839844 C 62.457031 93.773438 61.695312 94.53125 60.757812 94.53125 Z M 58.210938 85.28125 L 58.210938 92.839844 L 60.757812 92.839844 L 60.757812 85.285156 L 58.210938 85.285156 Z M 58.210938 85.28125 " fill-opacity="1" fill-rule="nonzero"/><g fill="#4570c5" fill-opacity="1"><g transform="translate(123.59714, 78.80675)"><g><path d="M 20.28125 -40.75 L 36.5625 -40.75 C 38.289062 -40.75 39.734375 -39.734375 40.890625 -37.703125 C 41.097656 -37.078125 41.203125 -36.59375 41.203125 -36.25 L 41.203125 -35.109375 C 41.203125 -33.484375 40.175781 -32.125 38.125 -31.03125 C 37.46875 -30.757812 36.84375 -30.625 36.25 -30.625 L 22.5625 -30.625 C 17.144531 -30.625 13.242188 -28.351562 10.859375 -23.8125 C 10.441406 -22.5625 10.234375 -21.359375 10.234375 -20.203125 C 10.234375 -16.503906 12.332031 -13.539062 16.53125 -11.3125 C 18.382812 -10.507812 20.175781 -10.109375 21.90625 -10.109375 L 35.765625 -10.109375 C 38.421875 -10.109375 40.203125 -8.847656 41.109375 -6.328125 L 41.203125 -5.546875 L 41.203125 -4.40625 C 41.203125 -2.832031 40.222656 -1.492188 38.265625 -0.390625 C 37.722656 -0.128906 37.210938 0 36.734375 0 L 19.78125 0 C 15.320312 0 10.941406 -1.789062 6.640625 -5.375 C 4.203125 -7.851562 2.71875 -9.800781 2.1875 -11.21875 C 0.726562 -14.113281 0 -16.898438 0 -19.578125 L 0 -21.078125 C 0 -25.929688 2.023438 -30.503906 6.078125 -34.796875 C 10.429688 -38.765625 15.164062 -40.75 20.28125 -40.75 Z M 20.28125 -40.75 "/></g></g></g><g fill="#4570c5" fill-opacity="1"><g transform="translate(167.629066, 78.80675)"><g><path d="M 4.765625 -40.75 L 5.515625 -40.75 C 7.203125 -40.75 8.613281 -39.78125 9.75 -37.84375 C 10.070312 -37.21875 10.234375 -36.46875 10.234375 -35.59375 L 10.234375 -25.421875 L 30.96875 -25.421875 L 30.96875 -35.28125 C 30.96875 -38.007812 32.296875 -39.800781 34.953125 -40.65625 C 35.328125 -40.71875 35.628906 -40.75 35.859375 -40.75 L 36.5625 -40.75 C 38.3125 -40.75 39.753906 -39.734375 40.890625 -37.703125 C 41.097656 -37.078125 41.203125 -36.59375 41.203125 -36.25 L 41.203125 -4.40625 C 41.203125 -2.832031 40.222656 -1.492188 38.265625 -0.390625 C 37.722656 -0.128906 37.210938 0 36.734375 0 L 35.59375 0 C 33.800781 0 32.375 -1.097656 31.3125 -3.296875 C 31.082031 -3.960938 30.96875 -4.679688 30.96875 -5.453125 L 30.96875 -15.3125 L 10.234375 -15.3125 L 10.234375 -4.890625 C 10.234375 -2.671875 8.953125 -1.066406 6.390625 -0.078125 C 6.109375 -0.0234375 5.875 0 5.6875 0 L 4.546875 0 C 2.816406 0 1.40625 -1.039062 0.3125 -3.125 C 0.101562 -3.675781 0 -4.160156 0 -4.578125 L 0 -36 C 0 -38.0625 1.210938 -39.585938 3.640625 -40.578125 C 4.054688 -40.691406 4.429688 -40.75 4.765625 -40.75 Z M 4.765625 -40.75 "/></g></g></g><g fill="#4570c5" fill-opacity="1"><g transform="translate(211.660992, 78.80675)"><g><path d="M 4.765625 -40.75 L 36.5625 -40.75 C 38.3125 -40.75 39.753906 -39.734375 40.890625 -37.703125 C 41.097656 -37.078125 41.203125 -36.59375 41.203125 -36.25 L 41.203125 -35.109375 C 41.203125 -33.484375 40.175781 -32.125 38.125 -31.03125 C 37.46875 -30.757812 36.84375 -30.625 36.25 -30.625 L 10.234375 -30.625 L 10.234375 -25.421875 L 30.34375 -25.421875 C 32.894531 -25.421875 34.617188 -24.410156 35.515625 -22.390625 C 35.773438 -21.796875 35.90625 -21.253906 35.90625 -20.765625 L 35.90625 -20.0625 C 35.90625 -18 34.695312 -16.472656 32.28125 -15.484375 C 31.875 -15.367188 31.492188 -15.3125 31.140625 -15.3125 L 10.234375 -15.3125 L 10.234375 -10.109375 L 35.6875 -10.109375 C 38.675781 -10.109375 40.515625 -8.660156 41.203125 -5.765625 L 41.203125 -4.40625 C 41.203125 -2.832031 40.222656 -1.492188 38.265625 -0.390625 C 37.722656 -0.128906 37.210938 0 36.734375 0 L 4.546875 0 C 2.816406 0 1.40625 -1.039062 0.3125 -3.125 C 0.101562 -3.675781 0 -4.160156 0 -4.578125 L 0 -36 C 0 -38.0625 1.210938 -39.585938 3.640625 -40.578125 C 4.054688 -40.691406 4.429688 -40.75 4.765625 -40.75 Z M 4.765625 -40.75 "/></g></g></g><g fill="#4570c5" fill-opacity="1"><g transform="translate(255.692917, 78.80675)"><g><path d="M 20.28125 -40.75 L 36.5625 -40.75 C 38.289062 -40.75 39.734375 -39.734375 40.890625 -37.703125 C 41.097656 -37.078125 41.203125 -36.59375 41.203125 -36.25 L 41.203125 -35.109375 C 41.203125 -33.484375 40.175781 -32.125 38.125 -31.03125 C 37.46875 -30.757812 36.84375 -30.625 36.25 -30.625 L 22.5625 -30.625 C 17.144531 -30.625 13.242188 -28.351562 10.859375 -23.8125 C 10.441406 -22.5625 10.234375 -21.359375 10.234375 -20.203125 C 10.234375 -16.503906 12.332031 -13.539062 16.53125 -11.3125 C 18.382812 -10.507812 20.175781 -10.109375 21.90625 -10.109375 L 35.765625 -10.109375 C 38.421875 -10.109375 40.203125 -8.847656 41.109375 -6.328125 L 41.203125 -5.546875 L 41.203125 -4.40625 C 41.203125 -2.832031 40.222656 -1.492188 38.265625 -0.390625 C 37.722656 -0.128906 37.210938 0 36.734375 0 L 19.78125 0 C 15.320312 0 10.941406 -1.789062 6.640625 -5.375 C 4.203125 -7.851562 2.71875 -9.800781 2.1875 -11.21875 C 0.726562 -14.113281 0 -16.898438 0 -19.578125 L 0 -21.078125 C 0 -25.929688 2.023438 -30.503906 6.078125 -34.796875 C 10.429688 -38.765625 15.164062 -40.75 20.28125 -40.75 Z M 20.28125 -40.75 "/></g></g></g><g fill="#4570c5" fill-opacity="1"><g transform="translate(299.724843, 78.80675)"><g><path d="M 4.9375 -40.75 L 5.28125 -40.75 C 7.34375 -40.75 8.90625 -39.601562 9.96875 -37.3125 C 10.144531 -36.71875 10.234375 -36.15625 10.234375 -35.625 L 10.234375 -28.015625 C 25.191406 -35.796875 33.351562 -39.984375 34.71875 -40.578125 C 35.113281 -40.691406 35.492188 -40.75 35.859375 -40.75 L 36.421875 -40.75 C 38.597656 -40.75 40.160156 -39.5 41.109375 -37 C 41.171875 -36.6875 41.203125 -36.4375 41.203125 -36.25 L 41.203125 -35.140625 C 41.203125 -33.359375 39.988281 -31.890625 37.5625 -30.734375 C 24.300781 -23.847656 17.625 -20.40625 17.53125 -20.40625 L 17.53125 -20.34375 C 31.394531 -13.238281 38.6875 -9.453125 39.40625 -8.984375 C 40.601562 -7.785156 41.203125 -6.65625 41.203125 -5.59375 L 41.203125 -4.484375 C 41.203125 -2.765625 40.148438 -1.375 38.046875 -0.3125 C 37.492188 -0.101562 37 0 36.5625 0 L 35.6875 0 C 34.851562 0 32.609375 -1.015625 28.953125 -3.046875 L 10.234375 -12.734375 L 10.234375 -5.109375 C 10.234375 -2.703125 8.960938 -1.054688 6.421875 -0.171875 C 6.003906 -0.0546875 5.625 0 5.28125 0 L 5.109375 0 C 2.585938 0 0.910156 -1.332031 0.078125 -4 C 0.0234375 -4.207031 0 -4.414062 0 -4.625 L 0 -36.109375 C 0 -37.722656 0.914062 -39.078125 2.75 -40.171875 C 3.488281 -40.554688 4.21875 -40.75 4.9375 -40.75 Z M 4.9375 -40.75 "/></g></g></g><g fill="#4570c5" fill-opacity="1"><g transform="translate(343.75678, 78.80675)"><g><path d="M 4.921875 -40.75 L 5.6875 -40.75 C 7.425781 -40.75 8.875 -39.78125 10.03125 -37.84375 C 10.351562 -37.21875 10.515625 -36.46875 10.515625 -35.59375 L 10.515625 -4.890625 C 10.515625 -2.671875 9.207031 -1.066406 6.59375 -0.078125 C 6.289062 -0.0234375 6.046875 0 5.859375 0 L 4.6875 0 C 2.90625 0 1.457031 -1.039062 0.34375 -3.125 C 0.113281 -3.675781 0 -4.160156 0 -4.578125 L 0 -36 C 0 -38.0625 1.25 -39.585938 3.75 -40.578125 C 4.164062 -40.691406 4.554688 -40.75 4.921875 -40.75 Z M 4.921875 -40.75 "/></g></g></g><g fill="#4570c5" fill-opacity="1"><g transform="translate(357.108408, 78.80675)"><g><path d="M 4.765625 -40.75 L 5.515625 -40.75 C 6.972656 -40.75 8.457031 -39.894531 9.96875 -38.1875 C 19.519531 -28.789062 26.519531 -21.941406 30.96875 -17.640625 L 30.96875 -35.28125 C 30.96875 -37.820312 32.132812 -39.566406 34.46875 -40.515625 C 34.976562 -40.671875 35.441406 -40.75 35.859375 -40.75 L 36.5625 -40.75 C 38.3125 -40.75 39.753906 -39.734375 40.890625 -37.703125 C 41.097656 -37.078125 41.203125 -36.59375 41.203125 -36.25 L 41.203125 -4.40625 C 41.203125 -2.832031 40.222656 -1.492188 38.265625 -0.390625 C 37.722656 -0.128906 37.210938 0 36.734375 0 L 35.59375 0 C 34.132812 0 32.328125 -1.257812 30.171875 -3.78125 L 10.234375 -23.265625 L 10.234375 -4.890625 C 10.234375 -2.671875 8.953125 -1.066406 6.390625 -0.078125 C 6.109375 -0.0234375 5.875 0 5.6875 0 L 4.546875 0 C 2.816406 0 1.40625 -1.039062 0.3125 -3.125 C 0.101562 -3.675781 0 -4.160156 0 -4.578125 L 0 -36 C 0 -38.0625 1.210938 -39.585938 3.640625 -40.578125 C 4.054688 -40.691406 4.429688 -40.75 4.765625 -40.75 Z M 4.765625 -40.75 "/></g></g></g><g fill="#4570c5" fill-opacity="1"><g transform="translate(401.140345, 78.80675)"><g><path d="M 14.15625 -40.75 L 36.515625 -40.75 C 38.597656 -40.75 40.128906 -39.617188 41.109375 -37.359375 C 41.171875 -37.078125 41.203125 -36.84375 41.203125 -36.65625 L 41.203125 -35.109375 C 41.203125 -33.523438 40.195312 -32.164062 38.1875 -31.03125 C 37.394531 -30.757812 36.75 -30.625 36.25 -30.625 L 10.28125 -30.625 L 10.28125 -25.515625 L 25.734375 -25.515625 C 32.003906 -25.515625 36.675781 -23.535156 39.75 -19.578125 C 40.71875 -18.078125 41.203125 -16.816406 41.203125 -15.796875 L 41.203125 -9.71875 C 41.203125 -7.351562 39.609375 -5.023438 36.421875 -2.734375 C 33.367188 -0.910156 30.378906 0 27.453125 0 L 4.453125 0 C 2.898438 0 1.546875 -0.878906 0.390625 -2.640625 C 0.128906 -3.210938 0 -3.722656 0 -4.171875 L 0 -5.28125 C 0 -7.34375 1.210938 -8.867188 3.640625 -9.859375 C 4.179688 -10.023438 4.804688 -10.109375 5.515625 -10.109375 L 31 -10.109375 L 31 -15.234375 L 14.65625 -15.234375 C 10.113281 -15.234375 6.203125 -16.648438 2.921875 -19.484375 C 0.972656 -21.441406 0 -23.421875 0 -25.421875 L 0 -30.578125 C 0 -33.910156 2.289062 -36.769531 6.875 -39.15625 C 9.539062 -40.21875 11.96875 -40.75 14.15625 -40.75 Z M 14.15625 -40.75 "/></g></g></g><g fill="#4570c5" fill-opacity="1"><g transform="translate(123.59714, 103.438016)"><g><path d="M 3.59375 -1 C 5.0625 -1 5.796875 -1.503906 5.796875 -2.515625 C 5.796875 -2.828125 5.726562 -3.09375 5.59375 -3.3125 C 5.46875 -3.53125 5.296875 -3.71875 5.078125 -3.875 C 4.859375 -4.03125 4.601562 -4.164062 4.3125 -4.28125 C 4.03125 -4.40625 3.726562 -4.523438 3.40625 -4.640625 C 3.03125 -4.765625 2.675781 -4.90625 2.34375 -5.0625 C 2.019531 -5.226562 1.738281 -5.421875 1.5 -5.640625 C 1.257812 -5.859375 1.066406 -6.113281 0.921875 -6.40625 C 0.785156 -6.707031 0.71875 -7.070312 0.71875 -7.5 C 0.71875 -8.382812 1.015625 -9.070312 1.609375 -9.5625 C 2.210938 -10.0625 3.046875 -10.3125 4.109375 -10.3125 C 4.710938 -10.3125 5.265625 -10.242188 5.765625 -10.109375 C 6.265625 -9.984375 6.628906 -9.84375 6.859375 -9.6875 L 6.421875 -8.53125 C 6.210938 -8.664062 5.90625 -8.789062 5.5 -8.90625 C 5.101562 -9.03125 4.640625 -9.09375 4.109375 -9.09375 C 3.828125 -9.09375 3.570312 -9.0625 3.34375 -9 C 3.113281 -8.945312 2.910156 -8.859375 2.734375 -8.734375 C 2.554688 -8.617188 2.414062 -8.472656 2.3125 -8.296875 C 2.21875 -8.117188 2.171875 -7.910156 2.171875 -7.671875 C 2.171875 -7.398438 2.222656 -7.171875 2.328125 -6.984375 C 2.429688 -6.796875 2.578125 -6.628906 2.765625 -6.484375 C 2.960938 -6.347656 3.191406 -6.222656 3.453125 -6.109375 C 3.710938 -5.992188 4 -5.878906 4.3125 -5.765625 C 4.738281 -5.585938 5.132812 -5.410156 5.5 -5.234375 C 5.863281 -5.054688 6.179688 -4.847656 6.453125 -4.609375 C 6.722656 -4.367188 6.925781 -4.082031 7.0625 -3.75 C 7.207031 -3.414062 7.28125 -3.007812 7.28125 -2.53125 C 7.28125 -1.644531 6.957031 -0.960938 6.3125 -0.484375 C 5.675781 -0.015625 4.769531 0.21875 3.59375 0.21875 C 3.195312 0.21875 2.832031 0.191406 2.5 0.140625 C 2.164062 0.0859375 1.863281 0.0234375 1.59375 -0.046875 C 1.332031 -0.117188 1.109375 -0.195312 0.921875 -0.28125 C 0.734375 -0.363281 0.585938 -0.4375 0.484375 -0.5 L 0.90625 -1.65625 C 1.125 -1.53125 1.460938 -1.390625 1.921875 -1.234375 C 2.378906 -1.078125 2.9375 -1 3.59375 -1 Z M 3.59375 -1 "/></g></g></g><g fill="#4570c5" fill-opacity="1"><g transform="translate(131.333378, 103.438016)"><g><path d="M 1.25 0 L 1.25 -10.078125 L 7.40625 -10.078125 L 7.40625 -8.875 L 2.65625 -8.875 L 2.65625 -5.875 L 6.875 -5.875 L 6.875 -4.703125 L 2.65625 -4.703125 L 2.65625 -1.203125 L 7.765625 -1.203125 L 7.765625 0 Z M 1.25 0 "/></g></g></g><g fill="#4570c5" fill-opacity="1"><g transform="translate(139.636748, 103.438016)"><g><path d="M 6.1875 -4.21875 C 6.34375 -4.019531 6.535156 -3.765625 6.765625 -3.453125 C 7.003906 -3.140625 7.25 -2.789062 7.5 -2.40625 C 7.757812 -2.019531 8.007812 -1.617188 8.25 -1.203125 C 8.5 -0.785156 8.710938 -0.382812 8.890625 0 L 7.34375 0 C 7.15625 -0.363281 6.945312 -0.734375 6.71875 -1.109375 C 6.488281 -1.492188 6.253906 -1.859375 6.015625 -2.203125 C 5.785156 -2.546875 5.554688 -2.867188 5.328125 -3.171875 C 5.097656 -3.472656 4.894531 -3.734375 4.71875 -3.953125 C 4.59375 -3.941406 4.460938 -3.9375 4.328125 -3.9375 C 4.191406 -3.9375 4.054688 -3.9375 3.921875 -3.9375 L 2.65625 -3.9375 L 2.65625 0 L 1.25 0 L 1.25 -9.9375 C 1.644531 -10.03125 2.085938 -10.09375 2.578125 -10.125 C 3.066406 -10.164062 3.515625 -10.1875 3.921875 -10.1875 C 5.335938 -10.1875 6.414062 -9.914062 7.15625 -9.375 C 7.90625 -8.84375 8.28125 -8.050781 8.28125 -7 C 8.28125 -6.332031 8.101562 -5.757812 7.75 -5.28125 C 7.394531 -4.800781 6.875 -4.445312 6.1875 -4.21875 Z M 4.046875 -8.953125 C 3.441406 -8.953125 2.976562 -8.9375 2.65625 -8.90625 L 2.65625 -5.109375 L 3.671875 -5.109375 C 4.148438 -5.109375 4.582031 -5.128906 4.96875 -5.171875 C 5.363281 -5.222656 5.691406 -5.316406 5.953125 -5.453125 C 6.222656 -5.585938 6.429688 -5.78125 6.578125 -6.03125 C 6.722656 -6.28125 6.796875 -6.609375 6.796875 -7.015625 C 6.796875 -7.390625 6.722656 -7.703125 6.578125 -7.953125 C 6.429688 -8.203125 6.234375 -8.398438 5.984375 -8.546875 C 5.734375 -8.691406 5.441406 -8.796875 5.109375 -8.859375 C 4.773438 -8.921875 4.421875 -8.953125 4.046875 -8.953125 Z M 4.046875 -8.953125 "/></g></g></g><g fill="#4570c5" fill-opacity="1"><g transform="translate(148.783531, 103.438016)"><g><path d="M 9.390625 -10.078125 C 9.023438 -9.015625 8.675781 -8.03125 8.34375 -7.125 C 8.007812 -6.21875 7.679688 -5.351562 7.359375 -4.53125 C 7.035156 -3.71875 6.71875 -2.941406 6.40625 -2.203125 C 6.09375 -1.460938 5.769531 -0.726562 5.4375 0 L 4.109375 0 C 3.785156 -0.726562 3.460938 -1.460938 3.140625 -2.203125 C 2.828125 -2.941406 2.507812 -3.71875 2.1875 -4.53125 C 1.863281 -5.351562 1.53125 -6.21875 1.1875 -7.125 C 0.851562 -8.03125 0.503906 -9.015625 0.140625 -10.078125 L 1.703125 -10.078125 C 2.222656 -8.546875 2.734375 -7.070312 3.234375 -5.65625 C 3.742188 -4.238281 4.265625 -2.910156 4.796875 -1.671875 C 5.328125 -2.898438 5.84375 -4.222656 6.34375 -5.640625 C 6.851562 -7.066406 7.367188 -8.546875 7.890625 -10.078125 Z M 9.390625 -10.078125 "/></g></g></g><g fill="#4570c5" fill-opacity="1"><g transform="translate(158.322949, 103.438016)"><g><path d="M 1.25 0 L 1.25 -10.078125 L 7.40625 -10.078125 L 7.40625 -8.875 L 2.65625 -8.875 L 2.65625 -5.875 L 6.875 -5.875 L 6.875 -4.703125 L 2.65625 -4.703125 L 2.65625 -1.203125 L 7.765625 -1.203125 L 7.765625 0 Z M 1.25 0 "/></g></g></g><g fill="#4570c5" fill-opacity="1"><g transform="translate(166.626319, 103.438016)"><g><path d="M 6.1875 -4.21875 C 6.34375 -4.019531 6.535156 -3.765625 6.765625 -3.453125 C 7.003906 -3.140625 7.25 -2.789062 7.5 -2.40625 C 7.757812 -2.019531 8.007812 -1.617188 8.25 -1.203125 C 8.5 -0.785156 8.710938 -0.382812 8.890625 0 L 7.34375 0 C 7.15625 -0.363281 6.945312 -0.734375 6.71875 -1.109375 C 6.488281 -1.492188 6.253906 -1.859375 6.015625 -2.203125 C 5.785156 -2.546875 5.554688 -2.867188 5.328125 -3.171875 C 5.097656 -3.472656 4.894531 -3.734375 4.71875 -3.953125 C 4.59375 -3.941406 4.460938 -3.9375 4.328125 -3.9375 C 4.191406 -3.9375 4.054688 -3.9375 3.921875 -3.9375 L 2.65625 -3.9375 L 2.65625 0 L 1.25 0 L 1.25 -9.9375 C 1.644531 -10.03125 2.085938 -10.09375 2.578125 -10.125 C 3.066406 -10.164062 3.515625 -10.1875 3.921875 -10.1875 C 5.335938 -10.1875 6.414062 -9.914062 7.15625 -9.375 C 7.90625 -8.84375 8.28125 -8.050781 8.28125 -7 C 8.28125 -6.332031 8.101562 -5.757812 7.75 -5.28125 C 7.394531 -4.800781 6.875 -4.445312 6.1875 -4.21875 Z M 4.046875 -8.953125 C 3.441406 -8.953125 2.976562 -8.9375 2.65625 -8.90625 L 2.65625 -5.109375 L 3.671875 -5.109375 C 4.148438 -5.109375 4.582031 -5.128906 4.96875 -5.171875 C 5.363281 -5.222656 5.691406 -5.316406 5.953125 -5.453125 C 6.222656 -5.585938 6.429688 -5.78125 6.578125 -6.03125 C 6.722656 -6.28125 6.796875 -6.609375 6.796875 -7.015625 C 6.796875 -7.390625 6.722656 -7.703125 6.578125 -7.953125 C 6.429688 -8.203125 6.234375 -8.398438 5.984375 -8.546875 C 5.734375 -8.691406 5.441406 -8.796875 5.109375 -8.859375 C 4.773438 -8.921875 4.421875 -8.953125 4.046875 -8.953125 Z M 4.046875 -8.953125 "/></g></g></g><g fill="#4570c5" fill-opacity="1"><g transform="translate(175.773102, 103.438016)"><g/></g></g><g fill="#4570c5" fill-opacity="1"><g transform="translate(179.132259, 103.438016)"><g><path d="M 4.484375 -5.140625 C 4.484375 -4.878906 4.4375 -4.640625 4.34375 -4.421875 C 4.257812 -4.203125 4.132812 -4.007812 3.96875 -3.84375 C 3.8125 -3.675781 3.617188 -3.539062 3.390625 -3.4375 C 3.171875 -3.332031 2.914062 -3.28125 2.625 -3.28125 C 2.332031 -3.28125 2.070312 -3.332031 1.84375 -3.4375 C 1.613281 -3.539062 1.414062 -3.675781 1.25 -3.84375 C 1.09375 -4.007812 0.96875 -4.203125 0.875 -4.421875 C 0.789062 -4.640625 0.75 -4.878906 0.75 -5.140625 C 0.75 -5.378906 0.789062 -5.613281 0.875 -5.84375 C 0.96875 -6.070312 1.09375 -6.265625 1.25 -6.421875 C 1.414062 -6.585938 1.613281 -6.722656 1.84375 -6.828125 C 2.070312 -6.929688 2.332031 -6.984375 2.625 -6.984375 C 2.914062 -6.984375 3.171875 -6.929688 3.390625 -6.828125 C 3.617188 -6.722656 3.8125 -6.585938 3.96875 -6.421875 C 4.132812 -6.265625 4.257812 -6.070312 4.34375 -5.84375 C 4.4375 -5.613281 4.484375 -5.378906 4.484375 -5.140625 Z M 4.484375 -5.140625 "/></g></g></g><g fill="#4570c5" fill-opacity="1"><g transform="translate(184.367311, 103.438016)"><g/></g></g><g fill="#4570c5" fill-opacity="1"><g transform="translate(187.726468, 103.438016)"><g><path d="M 3.59375 -1 C 5.0625 -1 5.796875 -1.503906 5.796875 -2.515625 C 5.796875 -2.828125 5.726562 -3.09375 5.59375 -3.3125 C 5.46875 -3.53125 5.296875 -3.71875 5.078125 -3.875 C 4.859375 -4.03125 4.601562 -4.164062 4.3125 -4.28125 C 4.03125 -4.40625 3.726562 -4.523438 3.40625 -4.640625 C 3.03125 -4.765625 2.675781 -4.90625 2.34375 -5.0625 C 2.019531 -5.226562 1.738281 -5.421875 1.5 -5.640625 C 1.257812 -5.859375 1.066406 -6.113281 0.921875 -6.40625 C 0.785156 -6.707031 0.71875 -7.070312 0.71875 -7.5 C 0.71875 -8.382812 1.015625 -9.070312 1.609375 -9.5625 C 2.210938 -10.0625 3.046875 -10.3125 4.109375 -10.3125 C 4.710938 -10.3125 5.265625 -10.242188 5.765625 -10.109375 C 6.265625 -9.984375 6.628906 -9.84375 6.859375 -9.6875 L 6.421875 -8.53125 C 6.210938 -8.664062 5.90625 -8.789062 5.5 -8.90625 C 5.101562 -9.03125 4.640625 -9.09375 4.109375 -9.09375 C 3.828125 -9.09375 3.570312 -9.0625 3.34375 -9 C 3.113281 -8.945312 2.910156 -8.859375 2.734375 -8.734375 C 2.554688 -8.617188 2.414062 -8.472656 2.3125 -8.296875 C 2.21875 -8.117188 2.171875 -7.910156 2.171875 -7.671875 C 2.171875 -7.398438 2.222656 -7.171875 2.328125 -6.984375 C 2.429688 -6.796875 2.578125 -6.628906 2.765625 -6.484375 C 2.960938 -6.347656 3.191406 -6.222656 3.453125 -6.109375 C 3.710938 -5.992188 4 -5.878906 4.3125 -5.765625 C 4.738281 -5.585938 5.132812 -5.410156 5.5 -5.234375 C 5.863281 -5.054688 6.179688 -4.847656 6.453125 -4.609375 C 6.722656 -4.367188 6.925781 -4.082031 7.0625 -3.75 C 7.207031 -3.414062 7.28125 -3.007812 7.28125 -2.53125 C 7.28125 -1.644531 6.957031 -0.960938 6.3125 -0.484375 C 5.675781 -0.015625 4.769531 0.21875 3.59375 0.21875 C 3.195312 0.21875 2.832031 0.191406 2.5 0.140625 C 2.164062 0.0859375 1.863281 0.0234375 1.59375 -0.046875 C 1.332031 -0.117188 1.109375 -0.195312 0.921875 -0.28125 C 0.734375 -0.363281 0.585938 -0.4375 0.484375 -0.5 L 0.90625 -1.65625 C 1.125 -1.53125 1.460938 -1.390625 1.921875 -1.234375 C 2.378906 -1.078125 2.9375 -1 3.59375 -1 Z M 3.59375 -1 "/></g></g></g><g fill="#4570c5" fill-opacity="1"><g transform="translate(195.462705, 103.438016)"><g><path d="M 6.765625 -6.84375 C 6.359375 -5.539062 5.945312 -4.335938 5.53125 -3.234375 C 5.113281 -2.128906 4.695312 -1.050781 4.28125 0 L 2.859375 0 C 2.347656 -1.476562 1.894531 -3.039062 1.5 -4.6875 C 1.113281 -6.34375 0.75 -8.140625 0.40625 -10.078125 L 1.890625 -10.078125 C 2.023438 -9.328125 2.164062 -8.570312 2.3125 -7.8125 C 2.457031 -7.050781 2.609375 -6.3125 2.765625 -5.59375 C 2.921875 -4.882812 3.078125 -4.207031 3.234375 -3.5625 C 3.390625 -2.914062 3.546875 -2.316406 3.703125 -1.765625 C 4.097656 -2.773438 4.507812 -3.890625 4.9375 -5.109375 C 5.375 -6.328125 5.785156 -7.585938 6.171875 -8.890625 L 7.390625 -8.890625 C 7.765625 -7.585938 8.175781 -6.328125 8.625 -5.109375 C 9.070312 -3.890625 9.488281 -2.773438 9.875 -1.765625 C 10.03125 -2.304688 10.1875 -2.898438 10.34375 -3.546875 C 10.5 -4.203125 10.648438 -4.882812 10.796875 -5.59375 C 10.953125 -6.300781 11.101562 -7.035156 11.25 -7.796875 C 11.394531 -8.566406 11.535156 -9.328125 11.671875 -10.078125 L 13.109375 -10.078125 C 12.753906 -8.140625 12.378906 -6.34375 11.984375 -4.6875 C 11.597656 -3.039062 11.148438 -1.476562 10.640625 0 L 9.234375 0 C 8.804688 -1.050781 8.390625 -2.128906 7.984375 -3.234375 C 7.578125 -4.335938 7.171875 -5.539062 6.765625 -6.84375 Z M 6.765625 -6.84375 "/></g></g></g><g fill="#4570c5" fill-opacity="1"><g transform="translate(208.972036, 103.438016)"><g><path d="M 7.984375 0 C 7.816406 -0.4375 7.660156 -0.863281 7.515625 -1.28125 C 7.367188 -1.707031 7.21875 -2.140625 7.0625 -2.578125 L 2.5 -2.578125 L 1.578125 0 L 0.109375 0 C 0.503906 -1.0625 0.867188 -2.046875 1.203125 -2.953125 C 1.546875 -3.867188 1.878906 -4.734375 2.203125 -5.546875 C 2.523438 -6.359375 2.847656 -7.132812 3.171875 -7.875 C 3.492188 -8.613281 3.828125 -9.347656 4.171875 -10.078125 L 5.46875 -10.078125 C 5.820312 -9.347656 6.15625 -8.613281 6.46875 -7.875 C 6.789062 -7.132812 7.113281 -6.359375 7.4375 -5.546875 C 7.757812 -4.734375 8.09375 -3.867188 8.4375 -2.953125 C 8.78125 -2.046875 9.144531 -1.0625 9.53125 0 Z M 6.65625 -3.734375 C 6.351562 -4.578125 6.046875 -5.394531 5.734375 -6.1875 C 5.429688 -6.976562 5.113281 -7.738281 4.78125 -8.46875 C 4.445312 -7.738281 4.125 -6.976562 3.8125 -6.1875 C 3.507812 -5.394531 3.207031 -4.578125 2.90625 -3.734375 Z M 6.65625 -3.734375 "/></g></g></g><g fill="#4570c5" fill-opacity="1"><g transform="translate(218.613248, 103.438016)"><g><path d="M 7.40625 -4.953125 L 8.8125 -4.953125 L 8.8125 -0.25 C 8.695312 -0.207031 8.53125 -0.160156 8.3125 -0.109375 C 8.09375 -0.0664062 7.835938 -0.0195312 7.546875 0.03125 C 7.265625 0.0820312 6.953125 0.125 6.609375 0.15625 C 6.273438 0.1875 5.9375 0.203125 5.59375 0.203125 C 4.882812 0.203125 4.238281 0.0859375 3.65625 -0.140625 C 3.070312 -0.378906 2.570312 -0.71875 2.15625 -1.15625 C 1.738281 -1.601562 1.414062 -2.148438 1.1875 -2.796875 C 0.957031 -3.453125 0.84375 -4.203125 0.84375 -5.046875 C 0.84375 -5.890625 0.96875 -6.640625 1.21875 -7.296875 C 1.476562 -7.953125 1.828125 -8.5 2.265625 -8.9375 C 2.703125 -9.382812 3.210938 -9.722656 3.796875 -9.953125 C 4.390625 -10.191406 5.019531 -10.3125 5.6875 -10.3125 C 6.144531 -10.3125 6.550781 -10.28125 6.90625 -10.21875 C 7.257812 -10.164062 7.5625 -10.097656 7.8125 -10.015625 C 8.0625 -9.941406 8.265625 -9.863281 8.421875 -9.78125 C 8.585938 -9.707031 8.695312 -9.648438 8.75 -9.609375 L 8.3125 -8.4375 C 8.03125 -8.625 7.65625 -8.773438 7.1875 -8.890625 C 6.71875 -9.015625 6.242188 -9.078125 5.765625 -9.078125 C 5.242188 -9.078125 4.769531 -8.984375 4.34375 -8.796875 C 3.925781 -8.617188 3.570312 -8.351562 3.28125 -8 C 2.988281 -7.65625 2.757812 -7.234375 2.59375 -6.734375 C 2.425781 -6.234375 2.34375 -5.671875 2.34375 -5.046875 C 2.34375 -4.441406 2.410156 -3.890625 2.546875 -3.390625 C 2.691406 -2.898438 2.90625 -2.476562 3.1875 -2.125 C 3.476562 -1.769531 3.832031 -1.492188 4.25 -1.296875 C 4.675781 -1.109375 5.175781 -1.015625 5.75 -1.015625 C 6.15625 -1.015625 6.5 -1.035156 6.78125 -1.078125 C 7.070312 -1.128906 7.28125 -1.171875 7.40625 -1.203125 Z M 7.40625 -4.953125 "/></g></g></g><g fill="#4570c5" fill-opacity="1"><g transform="translate(228.385335, 103.438016)"><g><path d="M 7.40625 -4.953125 L 8.8125 -4.953125 L 8.8125 -0.25 C 8.695312 -0.207031 8.53125 -0.160156 8.3125 -0.109375 C 8.09375 -0.0664062 7.835938 -0.0195312 7.546875 0.03125 C 7.265625 0.0820312 6.953125 0.125 6.609375 0.15625 C 6.273438 0.1875 5.9375 0.203125 5.59375 0.203125 C 4.882812 0.203125 4.238281 0.0859375 3.65625 -0.140625 C 3.070312 -0.378906 2.570312 -0.71875 2.15625 -1.15625 C 1.738281 -1.601562 1.414062 -2.148438 1.1875 -2.796875 C 0.957031 -3.453125 0.84375 -4.203125 0.84375 -5.046875 C 0.84375 -5.890625 0.96875 -6.640625 1.21875 -7.296875 C 1.476562 -7.953125 1.828125 -8.5 2.265625 -8.9375 C 2.703125 -9.382812 3.210938 -9.722656 3.796875 -9.953125 C 4.390625 -10.191406 5.019531 -10.3125 5.6875 -10.3125 C 6.144531 -10.3125 6.550781 -10.28125 6.90625 -10.21875 C 7.257812 -10.164062 7.5625 -10.097656 7.8125 -10.015625 C 8.0625 -9.941406 8.265625 -9.863281 8.421875 -9.78125 C 8.585938 -9.707031 8.695312 -9.648438 8.75 -9.609375 L 8.3125 -8.4375 C 8.03125 -8.625 7.65625 -8.773438 7.1875 -8.890625 C 6.71875 -9.015625 6.242188 -9.078125 5.765625 -9.078125 C 5.242188 -9.078125 4.769531 -8.984375 4.34375 -8.796875 C 3.925781 -8.617188 3.570312 -8.351562 3.28125 -8 C 2.988281 -7.65625 2.757812 -7.234375 2.59375 -6.734375 C 2.425781 -6.234375 2.34375 -5.671875 2.34375 -5.046875 C 2.34375 -4.441406 2.410156 -3.890625 2.546875 -3.390625 C 2.691406 -2.898438 2.90625 -2.476562 3.1875 -2.125 C 3.476562 -1.769531 3.832031 -1.492188 4.25 -1.296875 C 4.675781 -1.109375 5.175781 -1.015625 5.75 -1.015625 C 6.15625 -1.015625 6.5 -1.035156 6.78125 -1.078125 C 7.070312 -1.128906 7.28125 -1.171875 7.40625 -1.203125 Z M 7.40625 -4.953125 "/></g></g></g><g fill="#4570c5" fill-opacity="1"><g transform="translate(238.157421, 103.438016)"><g><path d="M 1.25 0 L 1.25 -10.078125 L 7.40625 -10.078125 L 7.40625 -8.875 L 2.65625 -8.875 L 2.65625 -5.875 L 6.875 -5.875 L 6.875 -4.703125 L 2.65625 -4.703125 L 2.65625 -1.203125 L 7.765625 -1.203125 L 7.765625 0 Z M 1.25 0 "/></g></g></g><g fill="#4570c5" fill-opacity="1"><g transform="translate(246.46079, 103.438016)"><g><path d="M 6.1875 -4.21875 C 6.34375 -4.019531 6.535156 -3.765625 6.765625 -3.453125 C 7.003906 -3.140625 7.25 -2.789062 7.5 -2.40625 C 7.757812 -2.019531 8.007812 -1.617188 8.25 -1.203125 C 8.5 -0.785156 8.710938 -0.382812 8.890625 0 L 7.34375 0 C 7.15625 -0.363281 6.945312 -0.734375 6.71875 -1.109375 C 6.488281 -1.492188 6.253906 -1.859375 6.015625 -2.203125 C 5.785156 -2.546875 5.554688 -2.867188 5.328125 -3.171875 C 5.097656 -3.472656 4.894531 -3.734375 4.71875 -3.953125 C 4.59375 -3.941406 4.460938 -3.9375 4.328125 -3.9375 C 4.191406 -3.9375 4.054688 -3.9375 3.921875 -3.9375 L 2.65625 -3.9375 L 2.65625 0 L 1.25 0 L 1.25 -9.9375 C 1.644531 -10.03125 2.085938 -10.09375 2.578125 -10.125 C 3.066406 -10.164062 3.515625 -10.1875 3.921875 -10.1875 C 5.335938 -10.1875 6.414062 -9.914062 7.15625 -9.375 C 7.90625 -8.84375 8.28125 -8.050781 8.28125 -7 C 8.28125 -6.332031 8.101562 -5.757812 7.75 -5.28125 C 7.394531 -4.800781 6.875 -4.445312 6.1875 -4.21875 Z M 4.046875 -8.953125 C 3.441406 -8.953125 2.976562 -8.9375 2.65625 -8.90625 L 2.65625 -5.109375 L 3.671875 -5.109375 C 4.148438 -5.109375 4.582031 -5.128906 4.96875 -5.171875 C 5.363281 -5.222656 5.691406 -5.316406 5.953125 -5.453125 C 6.222656 -5.585938 6.429688 -5.78125 6.578125 -6.03125 C 6.722656 -6.28125 6.796875 -6.609375 6.796875 -7.015625 C 6.796875 -7.390625 6.722656 -7.703125 6.578125 -7.953125 C 6.429688 -8.203125 6.234375 -8.398438 5.984375 -8.546875 C 5.734375 -8.691406 5.441406 -8.796875 5.109375 -8.859375 C 4.773438 -8.921875 4.421875 -8.953125 4.046875 -8.953125 Z M 4.046875 -8.953125 "/></g></g></g><g fill="#4570c5" fill-opacity="1"><g transform="translate(255.607574, 103.438016)"><g/></g></g><g fill="#4570c5" fill-opacity="1"><g transform="translate(258.966731, 103.438016)"><g><path d="M 4.484375 -5.140625 C 4.484375 -4.878906 4.4375 -4.640625 4.34375 -4.421875 C 4.257812 -4.203125 4.132812 -4.007812 3.96875 -3.84375 C 3.8125 -3.675781 3.617188 -3.539062 3.390625 -3.4375 C 3.171875 -3.332031 2.914062 -3.28125 2.625 -3.28125 C 2.332031 -3.28125 2.070312 -3.332031 1.84375 -3.4375 C 1.613281 -3.539062 1.414062 -3.675781 1.25 -3.84375 C 1.09375 -4.007812 0.96875 -4.203125 0.875 -4.421875 C 0.789062 -4.640625 0.75 -4.878906 0.75 -5.140625 C 0.75 -5.378906 0.789062 -5.613281 0.875 -5.84375 C 0.96875 -6.070312 1.09375 -6.265625 1.25 -6.421875 C 1.414062 -6.585938 1.613281 -6.722656 1.84375 -6.828125 C 2.070312 -6.929688 2.332031 -6.984375 2.625 -6.984375 C 2.914062 -6.984375 3.171875 -6.929688 3.390625 -6.828125 C 3.617188 -6.722656 3.8125 -6.585938 3.96875 -6.421875 C 4.132812 -6.265625 4.257812 -6.070312 4.34375 -5.84375 C 4.4375 -5.613281 4.484375 -5.378906 4.484375 -5.140625 Z M 4.484375 -5.140625 "/></g></g></g><g fill="#4570c5" fill-opacity="1"><g transform="translate(264.201783, 103.438016)"><g/></g></g><g fill="#4570c5" fill-opacity="1"><g transform="translate(267.56094, 103.438016)"><g><path d="M 6.1875 -4.21875 C 6.34375 -4.019531 6.535156 -3.765625 6.765625 -3.453125 C 7.003906 -3.140625 7.25 -2.789062 7.5 -2.40625 C 7.757812 -2.019531 8.007812 -1.617188 8.25 -1.203125 C 8.5 -0.785156 8.710938 -0.382812 8.890625 0 L 7.34375 0 C 7.15625 -0.363281 6.945312 -0.734375 6.71875 -1.109375 C 6.488281 -1.492188 6.253906 -1.859375 6.015625 -2.203125 C 5.785156 -2.546875 5.554688 -2.867188 5.328125 -3.171875 C 5.097656 -3.472656 4.894531 -3.734375 4.71875 -3.953125 C 4.59375 -3.941406 4.460938 -3.9375 4.328125 -3.9375 C 4.191406 -3.9375 4.054688 -3.9375 3.921875 -3.9375 L 2.65625 -3.9375 L 2.65625 0 L 1.25 0 L 1.25 -9.9375 C 1.644531 -10.03125 2.085938 -10.09375 2.578125 -10.125 C 3.066406 -10.164062 3.515625 -10.1875 3.921875 -10.1875 C 5.335938 -10.1875 6.414062 -9.914062 7.15625 -9.375 C 7.90625 -8.84375 8.28125 -8.050781 8.28125 -7 C 8.28125 -6.332031 8.101562 -5.757812 7.75 -5.28125 C 7.394531 -4.800781 6.875 -4.445312 6.1875 -4.21875 Z M 4.046875 -8.953125 C 3.441406 -8.953125 2.976562 -8.9375 2.65625 -8.90625 L 2.65625 -5.109375 L 3.671875 -5.109375 C 4.148438 -5.109375 4.582031 -5.128906 4.96875 -5.171875 C 5.363281 -5.222656 5.691406 -5.316406 5.953125 -5.453125 C 6.222656 -5.585938 6.429688 -5.78125 6.578125 -6.03125 C 6.722656 -6.28125 6.796875 -6.609375 6.796875 -7.015625 C 6.796875 -7.390625 6.722656 -7.703125 6.578125 -7.953125 C 6.429688 -8.203125 6.234375 -8.398438 5.984375 -8.546875 C 5.734375 -8.691406 5.441406 -8.796875 5.109375 -8.859375 C 4.773438 -8.921875 4.421875 -8.953125 4.046875 -8.953125 Z M 4.046875 -8.953125 "/></g></g></g><g fill="#4570c5" fill-opacity="1"><g transform="translate(276.707723, 103.438016)"><g><path d="M 1.25 0 L 1.25 -10.078125 L 7.40625 -10.078125 L 7.40625 -8.875 L 2.65625 -8.875 L 2.65625 -5.875 L 6.875 -5.875 L 6.875 -4.703125 L 2.65625 -4.703125 L 2.65625 -1.203125 L 7.765625 -1.203125 L 7.765625 0 Z M 1.25 0 "/></g></g></g><g fill="#4570c5" fill-opacity="1"><g transform="translate(285.011093, 103.438016)"><g><path d="M 3.59375 -1 C 5.0625 -1 5.796875 -1.503906 5.796875 -2.515625 C 5.796875 -2.828125 5.726562 -3.09375 5.59375 -3.3125 C 5.46875 -3.53125 5.296875 -3.71875 5.078125 -3.875 C 4.859375 -4.03125 4.601562 -4.164062 4.3125 -4.28125 C 4.03125 -4.40625 3.726562 -4.523438 3.40625 -4.640625 C 3.03125 -4.765625 2.675781 -4.90625 2.34375 -5.0625 C 2.019531 -5.226562 1.738281 -5.421875 1.5 -5.640625 C 1.257812 -5.859375 1.066406 -6.113281 0.921875 -6.40625 C 0.785156 -6.707031 0.71875 -7.070312 0.71875 -7.5 C 0.71875 -8.382812 1.015625 -9.070312 1.609375 -9.5625 C 2.210938 -10.0625 3.046875 -10.3125 4.109375 -10.3125 C 4.710938 -10.3125 5.265625 -10.242188 5.765625 -10.109375 C 6.265625 -9.984375 6.628906 -9.84375 6.859375 -9.6875 L 6.421875 -8.53125 C 6.210938 -8.664062 5.90625 -8.789062 5.5 -8.90625 C 5.101562 -9.03125 4.640625 -9.09375 4.109375 -9.09375 C 3.828125 -9.09375 3.570312 -9.0625 3.34375 -9 C 3.113281 -8.945312 2.910156 -8.859375 2.734375 -8.734375 C 2.554688 -8.617188 2.414062 -8.472656 2.3125 -8.296875 C 2.21875 -8.117188 2.171875 -7.910156 2.171875 -7.671875 C 2.171875 -7.398438 2.222656 -7.171875 2.328125 -6.984375 C 2.429688 -6.796875 2.578125 -6.628906 2.765625 -6.484375 C 2.960938 -6.347656 3.191406 -6.222656 3.453125 -6.109375 C 3.710938 -5.992188 4 -5.878906 4.3125 -5.765625 C 4.738281 -5.585938 5.132812 -5.410156 5.5 -5.234375 C 5.863281 -5.054688 6.179688 -4.847656 6.453125 -4.609375 C 6.722656 -4.367188 6.925781 -4.082031 7.0625 -3.75 C 7.207031 -3.414062 7.28125 -3.007812 7.28125 -2.53125 C 7.28125 -1.644531 6.957031 -0.960938 6.3125 -0.484375 C 5.675781 -0.015625 4.769531 0.21875 3.59375 0.21875 C 3.195312 0.21875 2.832031 0.191406 2.5 0.140625 C 2.164062 0.0859375 1.863281 0.0234375 1.59375 -0.046875 C 1.332031 -0.117188 1.109375 -0.195312 0.921875 -0.28125 C 0.734375 -0.363281 0.585938 -0.4375 0.484375 -0.5 L 0.90625 -1.65625 C 1.125 -1.53125 1.460938 -1.390625 1.921875 -1.234375 C 2.378906 -1.078125 2.9375 -1 3.59375 -1 Z M 3.59375 -1 "/></g></g></g><g fill="#4570c5" fill-opacity="1"><g transform="translate(292.747331, 103.438016)"><g><path d="M 7.984375 -10.078125 L 7.984375 -8.859375 L 4.8125 -8.859375 L 4.8125 0 L 3.40625 0 L 3.40625 -8.859375 L 0.234375 -8.859375 L 0.234375 -10.078125 Z M 7.984375 -10.078125 "/></g></g></g><g fill="#4570c5" fill-opacity="1"><g transform="translate(300.96344, 103.438016)"><g/></g></g><g fill="#4570c5" fill-opacity="1"><g transform="translate(304.322597, 103.438016)"><g><path d="M 7.984375 0 C 7.816406 -0.4375 7.660156 -0.863281 7.515625 -1.28125 C 7.367188 -1.707031 7.21875 -2.140625 7.0625 -2.578125 L 2.5 -2.578125 L 1.578125 0 L 0.109375 0 C 0.503906 -1.0625 0.867188 -2.046875 1.203125 -2.953125 C 1.546875 -3.867188 1.878906 -4.734375 2.203125 -5.546875 C 2.523438 -6.359375 2.847656 -7.132812 3.171875 -7.875 C 3.492188 -8.613281 3.828125 -9.347656 4.171875 -10.078125 L 5.46875 -10.078125 C 5.820312 -9.347656 6.15625 -8.613281 6.46875 -7.875 C 6.789062 -7.132812 7.113281 -6.359375 7.4375 -5.546875 C 7.757812 -4.734375 8.09375 -3.867188 8.4375 -2.953125 C 8.78125 -2.046875 9.144531 -1.0625 9.53125 0 Z M 6.65625 -3.734375 C 6.351562 -4.578125 6.046875 -5.394531 5.734375 -6.1875 C 5.429688 -6.976562 5.113281 -7.738281 4.78125 -8.46875 C 4.445312 -7.738281 4.125 -6.976562 3.8125 -6.1875 C 3.507812 -5.394531 3.207031 -4.578125 2.90625 -3.734375 Z M 6.65625 -3.734375 "/></g></g></g><g fill="#4570c5" fill-opacity="1"><g transform="translate(313.963809, 103.438016)"><g><path d="M 3.921875 -10.1875 C 5.335938 -10.1875 6.425781 -9.914062 7.1875 -9.375 C 7.945312 -8.832031 8.328125 -8.03125 8.328125 -6.96875 C 8.328125 -6.382812 8.222656 -5.882812 8.015625 -5.46875 C 7.804688 -5.0625 7.503906 -4.726562 7.109375 -4.46875 C 6.722656 -4.21875 6.25 -4.03125 5.6875 -3.90625 C 5.125 -3.789062 4.488281 -3.734375 3.78125 -3.734375 L 2.65625 -3.734375 L 2.65625 0 L 1.25 0 L 1.25 -9.9375 C 1.644531 -10.03125 2.085938 -10.09375 2.578125 -10.125 C 3.066406 -10.164062 3.515625 -10.1875 3.921875 -10.1875 Z M 4.046875 -8.953125 C 3.441406 -8.953125 2.976562 -8.9375 2.65625 -8.90625 L 2.65625 -4.953125 L 3.71875 -4.953125 C 4.207031 -4.953125 4.644531 -4.984375 5.03125 -5.046875 C 5.414062 -5.109375 5.742188 -5.210938 6.015625 -5.359375 C 6.285156 -5.515625 6.492188 -5.722656 6.640625 -5.984375 C 6.785156 -6.242188 6.859375 -6.578125 6.859375 -6.984375 C 6.859375 -7.367188 6.78125 -7.6875 6.625 -7.9375 C 6.476562 -8.195312 6.273438 -8.398438 6.015625 -8.546875 C 5.753906 -8.691406 5.453125 -8.796875 5.109375 -8.859375 C 4.773438 -8.921875 4.421875 -8.953125 4.046875 -8.953125 Z M 4.046875 -8.953125 "/></g></g></g><g fill="#4570c5" fill-opacity="1"><g transform="translate(322.805231, 103.438016)"><g><path d="M 1.25 -10.078125 L 2.65625 -10.078125 L 2.65625 0 L 1.25 0 Z M 1.25 -10.078125 "/></g></g></g><g fill="#4570c5" fill-opacity="1"><g transform="translate(326.716986, 103.438016)"><g/></g></g><g fill="#4570c5" fill-opacity="1"><g transform="translate(330.076131, 103.438016)"><g><path d="M 4.484375 -5.140625 C 4.484375 -4.878906 4.4375 -4.640625 4.34375 -4.421875 C 4.257812 -4.203125 4.132812 -4.007812 3.96875 -3.84375 C 3.8125 -3.675781 3.617188 -3.539062 3.390625 -3.4375 C 3.171875 -3.332031 2.914062 -3.28125 2.625 -3.28125 C 2.332031 -3.28125 2.070312 -3.332031 1.84375 -3.4375 C 1.613281 -3.539062 1.414062 -3.675781 1.25 -3.84375 C 1.09375 -4.007812 0.96875 -4.203125 0.875 -4.421875 C 0.789062 -4.640625 0.75 -4.878906 0.75 -5.140625 C 0.75 -5.378906 0.789062 -5.613281 0.875 -5.84375 C 0.96875 -6.070312 1.09375 -6.265625 1.25 -6.421875 C 1.414062 -6.585938 1.613281 -6.722656 1.84375 -6.828125 C 2.070312 -6.929688 2.332031 -6.984375 2.625 -6.984375 C 2.914062 -6.984375 3.171875 -6.929688 3.390625 -6.828125 C 3.617188 -6.722656 3.8125 -6.585938 3.96875 -6.421875 C 4.132812 -6.265625 4.257812 -6.070312 4.34375 -5.84375 C 4.4375 -5.613281 4.484375 -5.378906 4.484375 -5.140625 Z M 4.484375 -5.140625 "/></g></g></g><g fill="#4570c5" fill-opacity="1"><g transform="translate(335.311183, 103.438016)"><g/></g></g><g fill="#4570c5" fill-opacity="1"><g transform="translate(338.670329, 103.438016)"><g><path d="M 7.59375 -10.078125 L 9 -10.078125 L 9 0 L 7.59375 0 L 7.59375 -4.65625 L 2.65625 -4.65625 L 2.65625 0 L 1.25 0 L 1.25 -10.078125 L 2.65625 -10.078125 L 2.65625 -5.875 L 7.59375 -5.875 Z M 7.59375 -10.078125 "/></g></g></g><g fill="#4570c5" fill-opacity="1"><g transform="translate(348.922309, 103.438016)"><g><path d="M 7.984375 -10.078125 L 7.984375 -8.859375 L 4.8125 -8.859375 L 4.8125 0 L 3.40625 0 L 3.40625 -8.859375 L 0.234375 -8.859375 L 0.234375 -10.078125 Z M 7.984375 -10.078125 "/></g></g></g><g fill="#4570c5" fill-opacity="1"><g transform="translate(357.138418, 103.438016)"><g><path d="M 7.984375 -10.078125 L 7.984375 -8.859375 L 4.8125 -8.859375 L 4.8125 0 L 3.40625 0 L 3.40625 -8.859375 L 0.234375 -8.859375 L 0.234375 -10.078125 Z M 7.984375 -10.078125 "/></g></g></g><g fill="#4570c5" fill-opacity="1"><g transform="translate(365.354527, 103.438016)"><g><path d="M 3.921875 -10.1875 C 5.335938 -10.1875 6.425781 -9.914062 7.1875 -9.375 C 7.945312 -8.832031 8.328125 -8.03125 8.328125 -6.96875 C 8.328125 -6.382812 8.222656 -5.882812 8.015625 -5.46875 C 7.804688 -5.0625 7.503906 -4.726562 7.109375 -4.46875 C 6.722656 -4.21875 6.25 -4.03125 5.6875 -3.90625 C 5.125 -3.789062 4.488281 -3.734375 3.78125 -3.734375 L 2.65625 -3.734375 L 2.65625 0 L 1.25 0 L 1.25 -9.9375 C 1.644531 -10.03125 2.085938 -10.09375 2.578125 -10.125 C 3.066406 -10.164062 3.515625 -10.1875 3.921875 -10.1875 Z M 4.046875 -8.953125 C 3.441406 -8.953125 2.976562 -8.9375 2.65625 -8.90625 L 2.65625 -4.953125 L 3.71875 -4.953125 C 4.207031 -4.953125 4.644531 -4.984375 5.03125 -5.046875 C 5.414062 -5.109375 5.742188 -5.210938 6.015625 -5.359375 C 6.285156 -5.515625 6.492188 -5.722656 6.640625 -5.984375 C 6.785156 -6.242188 6.859375 -6.578125 6.859375 -6.984375 C 6.859375 -7.367188 6.78125 -7.6875 6.625 -7.9375 C 6.476562 -8.195312 6.273438 -8.398438 6.015625 -8.546875 C 5.753906 -8.691406 5.453125 -8.796875 5.109375 -8.859375 C 4.773438 -8.921875 4.421875 -8.953125 4.046875 -8.953125 Z M 4.046875 -8.953125 "/></g></g></g><g fill="#4570c5" fill-opacity="1"><g transform="translate(374.195938, 103.438016)"><g/></g></g><g fill="#4570c5" fill-opacity="1"><g transform="translate(377.555106, 103.438016)"><g><path d="M 7.984375 -10.078125 L 7.984375 -8.859375 L 4.8125 -8.859375 L 4.8125 0 L 3.40625 0 L 3.40625 -8.859375 L 0.234375 -8.859375 L 0.234375 -10.078125 Z M 7.984375 -10.078125 "/></g></g></g><g fill="#4570c5" fill-opacity="1"><g transform="translate(385.771215, 103.438016)"><g><path d="M 1.25 0 L 1.25 -10.078125 L 7.40625 -10.078125 L 7.40625 -8.875 L 2.65625 -8.875 L 2.65625 -5.875 L 6.875 -5.875 L 6.875 -4.703125 L 2.65625 -4.703125 L 2.65625 -1.203125 L 7.765625 -1.203125 L 7.765625 0 Z M 1.25 0 "/></g></g></g><g fill="#4570c5" fill-opacity="1"><g transform="translate(394.074573, 103.438016)"><g><path d="M 3.59375 -1 C 5.0625 -1 5.796875 -1.503906 5.796875 -2.515625 C 5.796875 -2.828125 5.726562 -3.09375 5.59375 -3.3125 C 5.46875 -3.53125 5.296875 -3.71875 5.078125 -3.875 C 4.859375 -4.03125 4.601562 -4.164062 4.3125 -4.28125 C 4.03125 -4.40625 3.726562 -4.523438 3.40625 -4.640625 C 3.03125 -4.765625 2.675781 -4.90625 2.34375 -5.0625 C 2.019531 -5.226562 1.738281 -5.421875 1.5 -5.640625 C 1.257812 -5.859375 1.066406 -6.113281 0.921875 -6.40625 C 0.785156 -6.707031 0.71875 -7.070312 0.71875 -7.5 C 0.71875 -8.382812 1.015625 -9.070312 1.609375 -9.5625 C 2.210938 -10.0625 3.046875 -10.3125 4.109375 -10.3125 C 4.710938 -10.3125 5.265625 -10.242188 5.765625 -10.109375 C 6.265625 -9.984375 6.628906 -9.84375 6.859375 -9.6875 L 6.421875 -8.53125 C 6.210938 -8.664062 5.90625 -8.789062 5.5 -8.90625 C 5.101562 -9.03125 4.640625 -9.09375 4.109375 -9.09375 C 3.828125 -9.09375 3.570312 -9.0625 3.34375 -9 C 3.113281 -8.945312 2.910156 -8.859375 2.734375 -8.734375 C 2.554688 -8.617188 2.414062 -8.472656 2.3125 -8.296875 C 2.21875 -8.117188 2.171875 -7.910156 2.171875 -7.671875 C 2.171875 -7.398438 2.222656 -7.171875 2.328125 -6.984375 C 2.429688 -6.796875 2.578125 -6.628906 2.765625 -6.484375 C 2.960938 -6.347656 3.191406 -6.222656 3.453125 -6.109375 C 3.710938 -5.992188 4 -5.878906 4.3125 -5.765625 C 4.738281 -5.585938 5.132812 -5.410156 5.5 -5.234375 C 5.863281 -5.054688 6.179688 -4.847656 6.453125 -4.609375 C 6.722656 -4.367188 6.925781 -4.082031 7.0625 -3.75 C 7.207031 -3.414062 7.28125 -3.007812 7.28125 -2.53125 C 7.28125 -1.644531 6.957031 -0.960938 6.3125 -0.484375 C 5.675781 -0.015625 4.769531 0.21875 3.59375 0.21875 C 3.195312 0.21875 2.832031 0.191406 2.5 0.140625 C 2.164062 0.0859375 1.863281 0.0234375 1.59375 -0.046875 C 1.332031 -0.117188 1.109375 -0.195312 0.921875 -0.28125 C 0.734375 -0.363281 0.585938 -0.4375 0.484375 -0.5 L 0.90625 -1.65625 C 1.125 -1.53125 1.460938 -1.390625 1.921875 -1.234375 C 2.378906 -1.078125 2.9375 -1 3.59375 -1 Z M 3.59375 -1 "/></g></g></g><g fill="#4570c5" fill-opacity="1"><g transform="translate(401.810811, 103.438016)"><g><path d="M 7.984375 -10.078125 L 7.984375 -8.859375 L 4.8125 -8.859375 L 4.8125 0 L 3.40625 0 L 3.40625 -8.859375 L 0.234375 -8.859375 L 0.234375 -10.078125 Z M 7.984375 -10.078125 "/></g></g></g><g fill="#4570c5" fill-opacity="1"><g transform="translate(410.02692, 103.438016)"><g><path d="M 1.25 -10.078125 L 2.65625 -10.078125 L 2.65625 0 L 1.25 0 Z M 1.25 -10.078125 "/></g></g></g><g fill="#4570c5" fill-opacity="1"><g transform="translate(413.938675, 103.438016)"><g><path d="M 8.15625 0 C 7.945312 -0.351562 7.703125 -0.753906 7.421875 -1.203125 C 7.148438 -1.648438 6.851562 -2.113281 6.53125 -2.59375 C 6.207031 -3.070312 5.875 -3.554688 5.53125 -4.046875 C 5.1875 -4.546875 4.84375 -5.023438 4.5 -5.484375 C 4.164062 -5.953125 3.835938 -6.390625 3.515625 -6.796875 C 3.203125 -7.203125 2.910156 -7.5625 2.640625 -7.875 L 2.640625 0 L 1.25 0 L 1.25 -10.078125 L 2.375 -10.078125 C 2.832031 -9.597656 3.316406 -9.035156 3.828125 -8.390625 C 4.347656 -7.742188 4.863281 -7.078125 5.375 -6.390625 C 5.882812 -5.710938 6.363281 -5.039062 6.8125 -4.375 C 7.257812 -3.71875 7.640625 -3.132812 7.953125 -2.625 L 7.953125 -10.078125 L 9.34375 -10.078125 L 9.34375 0 Z M 8.15625 0 "/></g></g></g><g fill="#4570c5" fill-opacity="1"><g transform="translate(424.525096, 103.438016)"><g><path d="M 7.40625 -4.953125 L 8.8125 -4.953125 L 8.8125 -0.25 C 8.695312 -0.207031 8.53125 -0.160156 8.3125 -0.109375 C 8.09375 -0.0664062 7.835938 -0.0195312 7.546875 0.03125 C 7.265625 0.0820312 6.953125 0.125 6.609375 0.15625 C 6.273438 0.1875 5.9375 0.203125 5.59375 0.203125 C 4.882812 0.203125 4.238281 0.0859375 3.65625 -0.140625 C 3.070312 -0.378906 2.570312 -0.71875 2.15625 -1.15625 C 1.738281 -1.601562 1.414062 -2.148438 1.1875 -2.796875 C 0.957031 -3.453125 0.84375 -4.203125 0.84375 -5.046875 C 0.84375 -5.890625 0.96875 -6.640625 1.21875 -7.296875 C 1.476562 -7.953125 1.828125 -8.5 2.265625 -8.9375 C 2.703125 -9.382812 3.210938 -9.722656 3.796875 -9.953125 C 4.390625 -10.191406 5.019531 -10.3125 5.6875 -10.3125 C 6.144531 -10.3125 6.550781 -10.28125 6.90625 -10.21875 C 7.257812 -10.164062 7.5625 -10.097656 7.8125 -10.015625 C 8.0625 -9.941406 8.265625 -9.863281 8.421875 -9.78125 C 8.585938 -9.707031 8.695312 -9.648438 8.75 -9.609375 L 8.3125 -8.4375 C 8.03125 -8.625 7.65625 -8.773438 7.1875 -8.890625 C 6.71875 -9.015625 6.242188 -9.078125 5.765625 -9.078125 C 5.242188 -9.078125 4.769531 -8.984375 4.34375 -8.796875 C 3.925781 -8.617188 3.570312 -8.351562 3.28125 -8 C 2.988281 -7.65625 2.757812 -7.234375 2.59375 -6.734375 C 2.425781 -6.234375 2.34375 -5.671875 2.34375 -5.046875 C 2.34375 -4.441406 2.410156 -3.890625 2.546875 -3.390625 C 2.691406 -2.898438 2.90625 -2.476562 3.1875 -2.125 C 3.476562 -1.769531 3.832031 -1.492188 4.25 -1.296875 C 4.675781 -1.109375 5.175781 -1.015625 5.75 -1.015625 C 6.15625 -1.015625 6.5 -1.035156 6.78125 -1.078125 C 7.070312 -1.128906 7.28125 -1.171875 7.40625 -1.203125 Z M 7.40625 -4.953125 "/></g></g></g><g fill="#4570c5" fill-opacity="1"><g transform="translate(123.213291, 24.594149)"><g><path d="M 8.078125 -1.34375 L 8.078125 0 L 1.375 0 L 1.375 -11.125 L 2.9375 -11.125 L 2.9375 -1.34375 Z M 8.078125 -1.34375 "/></g></g></g><g fill="#4570c5" fill-opacity="1"><g transform="translate(131.54147, 24.594149)"><g><path d="M 8.8125 0 C 8.625 -0.476562 8.453125 -0.953125 8.296875 -1.421875 C 8.140625 -1.890625 7.972656 -2.363281 7.796875 -2.84375 L 2.765625 -2.84375 L 1.75 0 L 0.125 0 C 0.550781 -1.175781 0.953125 -2.265625 1.328125 -3.265625 C 1.703125 -4.265625 2.066406 -5.210938 2.421875 -6.109375 C 2.785156 -7.015625 3.144531 -7.875 3.5 -8.6875 C 3.851562 -9.507812 4.222656 -10.320312 4.609375 -11.125 L 6.03125 -11.125 C 6.414062 -10.320312 6.785156 -9.507812 7.140625 -8.6875 C 7.492188 -7.875 7.847656 -7.015625 8.203125 -6.109375 C 8.566406 -5.210938 8.9375 -4.265625 9.3125 -3.265625 C 9.6875 -2.265625 10.085938 -1.175781 10.515625 0 Z M 7.34375 -4.125 C 7 -5.050781 6.660156 -5.953125 6.328125 -6.828125 C 5.992188 -7.703125 5.644531 -8.539062 5.28125 -9.34375 C 4.90625 -8.539062 4.546875 -7.703125 4.203125 -6.828125 C 3.867188 -5.953125 3.535156 -5.050781 3.203125 -4.125 Z M 7.34375 -4.125 "/></g></g></g><g fill="#4570c5" fill-opacity="1"><g transform="translate(142.180366, 24.594149)"><g><path d="M 4.375 0.09375 C 4.15625 0.09375 3.910156 0.0859375 3.640625 0.078125 C 3.378906 0.0664062 3.117188 0.0507812 2.859375 0.03125 C 2.597656 0.0078125 2.335938 -0.015625 2.078125 -0.046875 C 1.828125 -0.078125 1.59375 -0.117188 1.375 -0.171875 L 1.375 -10.953125 C 1.59375 -11.015625 1.828125 -11.0625 2.078125 -11.09375 C 2.335938 -11.125 2.597656 -11.148438 2.859375 -11.171875 C 3.117188 -11.191406 3.378906 -11.207031 3.640625 -11.21875 C 3.898438 -11.226562 4.140625 -11.234375 4.359375 -11.234375 C 5.003906 -11.234375 5.609375 -11.179688 6.171875 -11.078125 C 6.734375 -10.984375 7.21875 -10.820312 7.625 -10.59375 C 8.039062 -10.363281 8.363281 -10.0625 8.59375 -9.6875 C 8.832031 -9.3125 8.953125 -8.851562 8.953125 -8.3125 C 8.953125 -7.695312 8.804688 -7.191406 8.515625 -6.796875 C 8.234375 -6.410156 7.847656 -6.125 7.359375 -5.9375 C 8.015625 -5.75 8.535156 -5.441406 8.921875 -5.015625 C 9.304688 -4.597656 9.5 -4.007812 9.5 -3.25 C 9.5 -2.144531 9.085938 -1.3125 8.265625 -0.75 C 7.453125 -0.1875 6.15625 0.09375 4.375 0.09375 Z M 2.921875 -5.1875 L 2.921875 -1.265625 C 3.035156 -1.253906 3.175781 -1.242188 3.34375 -1.234375 C 3.476562 -1.222656 3.640625 -1.210938 3.828125 -1.203125 C 4.015625 -1.203125 4.234375 -1.203125 4.484375 -1.203125 C 4.941406 -1.203125 5.375 -1.226562 5.78125 -1.28125 C 6.195312 -1.34375 6.554688 -1.445312 6.859375 -1.59375 C 7.171875 -1.75 7.421875 -1.957031 7.609375 -2.21875 C 7.796875 -2.488281 7.890625 -2.828125 7.890625 -3.234375 C 7.890625 -3.597656 7.820312 -3.90625 7.6875 -4.15625 C 7.550781 -4.414062 7.347656 -4.617188 7.078125 -4.765625 C 6.816406 -4.910156 6.503906 -5.015625 6.140625 -5.078125 C 5.773438 -5.148438 5.367188 -5.1875 4.921875 -5.1875 Z M 2.921875 -6.4375 L 4.5625 -6.4375 C 4.945312 -6.4375 5.304688 -6.460938 5.640625 -6.515625 C 5.984375 -6.566406 6.28125 -6.660156 6.53125 -6.796875 C 6.789062 -6.941406 6.988281 -7.125 7.125 -7.34375 C 7.269531 -7.570312 7.34375 -7.859375 7.34375 -8.203125 C 7.34375 -8.523438 7.269531 -8.796875 7.125 -9.015625 C 6.976562 -9.234375 6.769531 -9.40625 6.5 -9.53125 C 6.238281 -9.664062 5.929688 -9.765625 5.578125 -9.828125 C 5.234375 -9.898438 4.863281 -9.9375 4.46875 -9.9375 C 4.070312 -9.9375 3.757812 -9.929688 3.53125 -9.921875 C 3.300781 -9.910156 3.097656 -9.894531 2.921875 -9.875 Z M 2.921875 -6.4375 "/></g></g></g><g fill="#4570c5" fill-opacity="1"><g transform="translate(152.498323, 24.594149)"><g><path d="M 0.796875 -5.5625 C 0.796875 -7.425781 1.125 -8.859375 1.78125 -9.859375 C 2.445312 -10.867188 3.363281 -11.375 4.53125 -11.375 C 5.695312 -11.375 6.609375 -10.867188 7.265625 -9.859375 C 7.921875 -8.859375 8.25 -7.425781 8.25 -5.5625 C 8.25 -3.707031 7.921875 -2.273438 7.265625 -1.265625 C 6.609375 -0.265625 5.695312 0.234375 4.53125 0.234375 C 3.363281 0.234375 2.445312 -0.265625 1.78125 -1.265625 C 1.125 -2.273438 0.796875 -3.707031 0.796875 -5.5625 Z M 6.671875 -5.5625 C 6.671875 -6.175781 6.632812 -6.753906 6.5625 -7.296875 C 6.5 -7.847656 6.382812 -8.328125 6.21875 -8.734375 C 6.050781 -9.140625 5.828125 -9.460938 5.546875 -9.703125 C 5.273438 -9.941406 4.9375 -10.0625 4.53125 -10.0625 C 4.125 -10.0625 3.78125 -9.941406 3.5 -9.703125 C 3.21875 -9.460938 2.992188 -9.140625 2.828125 -8.734375 C 2.660156 -8.328125 2.539062 -7.847656 2.46875 -7.296875 C 2.40625 -6.753906 2.375 -6.175781 2.375 -5.5625 C 2.375 -4.957031 2.40625 -4.378906 2.46875 -3.828125 C 2.539062 -3.285156 2.660156 -2.8125 2.828125 -2.40625 C 2.992188 -2 3.21875 -1.675781 3.5 -1.4375 C 3.78125 -1.195312 4.125 -1.078125 4.53125 -1.078125 C 4.9375 -1.078125 5.273438 -1.195312 5.546875 -1.4375 C 5.828125 -1.675781 6.050781 -2 6.21875 -2.40625 C 6.382812 -2.8125 6.5 -3.285156 6.5625 -3.828125 C 6.632812 -4.378906 6.671875 -4.957031 6.671875 -5.5625 Z M 6.671875 -5.5625 "/></g></g></g><g fill="#4570c5" fill-opacity="1"><g transform="translate(161.548605, 24.594149)"><g><path d="M 3.1875 -6.828125 C 4.800781 -6.765625 5.984375 -6.410156 6.734375 -5.765625 C 7.492188 -5.128906 7.875 -4.257812 7.875 -3.15625 C 7.875 -2.664062 7.789062 -2.210938 7.625 -1.796875 C 7.457031 -1.378906 7.207031 -1.019531 6.875 -0.71875 C 6.539062 -0.414062 6.113281 -0.179688 5.59375 -0.015625 C 5.082031 0.148438 4.472656 0.234375 3.765625 0.234375 C 3.492188 0.234375 3.210938 0.210938 2.921875 0.171875 C 2.628906 0.128906 2.359375 0.078125 2.109375 0.015625 C 1.867188 -0.046875 1.648438 -0.109375 1.453125 -0.171875 C 1.265625 -0.234375 1.128906 -0.289062 1.046875 -0.34375 L 1.328125 -1.640625 C 1.515625 -1.554688 1.8125 -1.441406 2.21875 -1.296875 C 2.632812 -1.160156 3.140625 -1.09375 3.734375 -1.09375 C 4.222656 -1.09375 4.628906 -1.144531 4.953125 -1.25 C 5.273438 -1.351562 5.535156 -1.492188 5.734375 -1.671875 C 5.941406 -1.859375 6.09375 -2.070312 6.1875 -2.3125 C 6.28125 -2.5625 6.328125 -2.816406 6.328125 -3.078125 C 6.328125 -3.484375 6.253906 -3.84375 6.109375 -4.15625 C 5.972656 -4.476562 5.726562 -4.742188 5.375 -4.953125 C 5.019531 -5.171875 4.546875 -5.332031 3.953125 -5.4375 C 3.367188 -5.550781 2.628906 -5.609375 1.734375 -5.609375 C 1.796875 -6.140625 1.84375 -6.632812 1.875 -7.09375 C 1.914062 -7.550781 1.953125 -8 1.984375 -8.4375 C 2.015625 -8.875 2.039062 -9.304688 2.0625 -9.734375 C 2.09375 -10.171875 2.117188 -10.632812 2.140625 -11.125 L 7.5 -11.125 L 7.5 -9.859375 L 3.4375 -9.859375 C 3.425781 -9.691406 3.410156 -9.472656 3.390625 -9.203125 C 3.367188 -8.929688 3.347656 -8.644531 3.328125 -8.34375 C 3.304688 -8.050781 3.28125 -7.765625 3.25 -7.484375 C 3.226562 -7.210938 3.207031 -6.992188 3.1875 -6.828125 Z M 3.1875 -6.828125 "/></g></g></g></svg>